<svg xmlns="http://www.w3.org/2000/svg" viewBox="0 0 194.14 141.89"><defs><style>.cls-1{fill:#e0f2f5;}.cls-2{fill:#fff;}.cls-3{fill:#f4bb3a;}.cls-4{fill:#f7ce72;}.cls-5{fill:#ef8b46;}.cls-6{fill:#6a4542;}.cls-7{fill:#ce793b;}.cls-8{fill:#fcd486;}</style></defs><title>affection_1</title><g id="Layer_2" data-name="Layer 2"><g id="OBJECTS"><path class="cls-1" d="M99.72,52.35A4.36,4.36,0,1,1,95.37,48,4.36,4.36,0,0,1,99.72,52.35Z"/><path class="cls-2" d="M80,56.05a2.89,2.89,0,1,1-2.89-2.89A2.89,2.89,0,0,1,80,56.05Z"/><circle class="cls-2" cx="38.16" cy="118.97" r="2.89"/><path class="cls-2" d="M32,80.4a2.89,2.89,0,1,1-2.89-2.89A2.89,2.89,0,0,1,32,80.4Z"/><path class="cls-2" d="M51.48,31.49a4.92,4.92,0,1,1-4.92-4.92A4.92,4.92,0,0,1,51.48,31.49Z"/><circle class="cls-2" cx="92.97" cy="75.16" r="7.21"/><circle class="cls-1" cx="56.78" cy="72.22" r="5.3"/><circle class="cls-1" cx="2.41" cy="139.48" r="2.41"/><path class="cls-1" d="M8,122.06a4,4,0,1,1-4-4A4,4,0,0,1,8,122.06Z"/><path class="cls-3" d="M100.34,18.46S88.34,41.41,84.21,38s-2.73-8.31-4.58-11.93S74,22.82,73.51,18c-.2-1.91,2.57-4.32,1.65-8.95-.47-2.41-6.42-5.31-4-7.78,1.23-1.25,17.91.41,27.7,9.45"/><path class="cls-4" d="M94.93,15.92c-2.75.77-5.54,1.32-8.33,1.83s-5.62.91-8.46,1.12c2.75-.77,5.54-1.32,8.33-1.82S92.08,16.14,94.93,15.92Z"/><path class="cls-4" d="M96.32,19.86c-1.6,2.38-3.37,4.63-5.17,6.84s-3.7,4.36-5.73,6.38c1.6-2.38,3.37-4.63,5.18-6.83S94.29,21.89,96.32,19.86Z"/><path class="cls-4" d="M94.42,10.86,89.76,9c-1.55-.59-3.1-1.18-4.67-1.74S82,6.19,80.38,5.66c-.79-.26-1.58-.51-2.38-.74s-1.6-.46-2.4-.72a44.14,44.14,0,0,1,9.73,2.42c1.57.58,3.13,1.2,4.65,1.91A42.67,42.67,0,0,1,94.42,10.86Z"/><path class="cls-4" d="M94.12,18.79a53.29,53.29,0,0,1-5.65,3.41,53.11,53.11,0,0,1-6,2.78,53.16,53.16,0,0,1,5.64-3.41A55.09,55.09,0,0,1,94.12,18.79Z"/><path class="cls-4" d="M93.23,14.14A74.08,74.08,0,0,1,85.65,13a74.1,74.1,0,0,1-7.44-1.84,74.08,74.08,0,0,1,7.58,1.14A74.1,74.1,0,0,1,93.23,14.14Z"/><path class="cls-3" d="M150.84,35.39l-15.91.44c-2.14.52-2.16,3.1-.32,4.31,4.81,3.15,10.13,9.23,14.84,12.54,1.94,1.36,4.94.19,7.21-.53,3-.94,12.07-2.24,12.07-2.24Z"/><path class="cls-3" d="M162.6,15.05,153.13,2.94A1.82,1.82,0,0,1,154.85,0s7.11,1.69,10.4,3c5,2,13.29,6.12,14.4,10.13l4.47,16Z"/><path class="cls-5" d="M93.18,16.09a5.59,5.59,0,0,1,3.4-6.72,82.78,82.78,0,0,1,61.18,1.11C183,21,194,28.92,194.14,50a5.81,5.81,0,0,1-5.23,5.78,42.53,42.53,0,0,1-33.17-11C142,32.56,112.66,20.37,98.63,20.22a5.67,5.67,0,0,1-5.45-4.13Z"/><path class="cls-6" d="M177.89,51.07a1.78,1.78,0,0,1-2.19,1.21,1.77,1.77,0,0,1,1-3.4A1.78,1.78,0,0,1,177.89,51.07Z"/><path class="cls-7" d="M176.18,48.82a2,2,0,0,1,.49.06,1.77,1.77,0,0,1-.48,3.47,1.66,1.66,0,0,1-.49-.07,1.76,1.76,0,0,1,.48-3.46m0-1h0a2.76,2.76,0,0,0-2.42,4.11,2.76,2.76,0,0,0,1.66,1.31,2.75,2.75,0,0,0,3.42-1.9,2.78,2.78,0,0,0-1.91-3.42,2.71,2.71,0,0,0-.75-.1Z"/><path class="cls-6" d="M188.06,39.14A1.77,1.77,0,1,1,186.85,37,1.75,1.75,0,0,1,188.06,39.14Z"/><path class="cls-7" d="M186.36,36.89a1.66,1.66,0,0,1,.49.07,1.76,1.76,0,0,1-.49,3.46,1.59,1.59,0,0,1-.48-.07,1.76,1.76,0,0,1,.48-3.46m0-1h0a2.77,2.77,0,0,0-.75,5.43,2.71,2.71,0,0,0,.75.1,2.76,2.76,0,0,0,2.66-2,2.7,2.7,0,0,0-.24-2.1,2.72,2.72,0,0,0-2.42-1.42Z"/><path class="cls-3" d="M187.48,38.39a.65.65,0,0,1-.79.44.66.66,0,0,1-.45-.8.65.65,0,0,1,1.24.36Z"/><path class="cls-3" d="M177.23,50.43a.64.64,0,0,1-.79.44.64.64,0,1,1,.79-.44Z"/><path class="cls-3" d="M100.64,12.42a58.13,58.13,0,0,1,18.29-.93c1.53.14,3.07.25,4.58.52s3,.45,4.55.8l4.5,1L137,15.17c1.49.41,2.9,1,4.35,1.55s2.89,1.07,4.26,1.76l4.17,2c1.37.69,2.69,1.5,4,2.27a79.83,79.83,0,0,1,7.66,5.06,22.46,22.46,0,0,1,1.8,1.42c.59.49,1.18,1,1.75,1.49,1.15,1,2.29,2,3.4,3.05-1.37-.69-2.71-1.41-4-2.14s-2.59-1.55-4-2.16c-2.71-1.33-5.31-2.79-8.06-4A147,147,0,0,0,135.76,19a139.28,139.28,0,0,0-17.25-4.4A128.65,128.65,0,0,0,100.64,12.42Z"/><path class="cls-8" d="M168.4,33.75l-2.77-1.36c-.87-.44-1.95-1-3.14-1.63s-2.61-1.24-4.12-2-3.13-1.57-4.88-2.35L148,24c-3.86-1.62-8.07-3.13-12.32-4.54A125.58,125.58,0,0,0,123,16c-2-.45-4-.92-5.9-1.27s-3.68-.68-5.34-.93c-3.31-.51-6.09-.87-8-1.05l-3.07-.28s1.12,0,3.08.08,4.77.26,8.11.69,7.24,1,11.35,1.91A123.75,123.75,0,0,1,136,18.51c4.24,1.45,8.47,3,12.34,4.68,2,.81,3.76,1.77,5.51,2.55s3.35,1.72,4.83,2.51c.74.39,1.45.77,2.13,1.11a21,21,0,0,1,1.91,1.08c1.16.73,2.2,1.29,3.05,1.78Z"/><path class="cls-3" d="M175.39,27.58a2.72,2.72,0,0,1,0-1,3,3,0,0,1,.35-1,2.86,2.86,0,0,1,.38-.48,2.53,2.53,0,0,1,.52-.39,2.6,2.6,0,0,1,1.2-.28,3.48,3.48,0,0,1,1,.16,3.61,3.61,0,0,1,.67.26l.25.12-.28,0c-.17,0-.41-.06-.69-.08l-.46,0c-.16,0-.32,0-.5,0a4.37,4.37,0,0,0-.5.09,4.14,4.14,0,0,0-.49.19,2.45,2.45,0,0,0-.76.67,3.58,3.58,0,0,0-.45.83A6.11,6.11,0,0,0,175.39,27.58Z"/><path class="cls-3" d="M174.4,24.41a3,3,0,0,1,0-1,3.53,3.53,0,0,1,.35-1,2.83,2.83,0,0,1,.39-.48,2.12,2.12,0,0,1,.51-.38,2.65,2.65,0,0,1,1.2-.29,3.43,3.43,0,0,1,1,.16,4.27,4.27,0,0,1,.68.26l.24.12-.27,0a6.92,6.92,0,0,0-.7-.08l-.45,0c-.16,0-.33,0-.5,0a4.54,4.54,0,0,0-.51.09,2.55,2.55,0,0,0-.48.2,2.36,2.36,0,0,0-.77.67,3.34,3.34,0,0,0-.45.82A6.11,6.11,0,0,0,174.4,24.41Z"/><path class="cls-3" d="M160.22,23.93a2.85,2.85,0,0,1,0-1,3.15,3.15,0,0,1,.36-1,1.91,1.91,0,0,1,.38-.48,2.46,2.46,0,0,1,.51-.39,2.69,2.69,0,0,1,1.21-.29,4.28,4.28,0,0,1,1,.16,4.36,4.36,0,0,1,.67.27,2,2,0,0,1,.24.12l-.27,0c-.17,0-.41-.07-.69-.08l-.46,0c-.16,0-.33,0-.5,0a5.09,5.09,0,0,0-.51.1,2.18,2.18,0,0,0-.48.19,2.49,2.49,0,0,0-.77.67,4,4,0,0,0-.45.83A5.06,5.06,0,0,0,160.22,23.93Z"/><path class="cls-3" d="M169.19,23.93a3,3,0,0,1,0-1,3.37,3.37,0,0,1,.35-1,2.22,2.22,0,0,1,.39-.48,2.46,2.46,0,0,1,.51-.39,2.65,2.65,0,0,1,1.2-.29,4.2,4.2,0,0,1,1,.16,4.55,4.55,0,0,1,.68.27l.24.12-.27,0a6.92,6.92,0,0,0-.7-.08l-.45,0c-.17,0-.33,0-.5,0a4.18,4.18,0,0,0-.51.1,2,2,0,0,0-.48.19,2.49,2.49,0,0,0-.77.67,3.58,3.58,0,0,0-.45.83A5.74,5.74,0,0,0,169.19,23.93Z"/><path class="cls-3" d="M160.89,17.89a3,3,0,0,1,0-1,3.37,3.37,0,0,1,.35-1,2.22,2.22,0,0,1,.39-.48,2.46,2.46,0,0,1,.51-.39,2.68,2.68,0,0,1,1.2-.29,3.86,3.86,0,0,1,1.71.43l.24.12-.27,0a6.92,6.92,0,0,0-.7-.08l-.45,0c-.16,0-.33,0-.5,0a4.59,4.59,0,0,0-.51.1,2,2,0,0,0-.48.19,2.49,2.49,0,0,0-.77.67,4,4,0,0,0-.45.83A5.74,5.74,0,0,0,160.89,17.89Z"/><path class="cls-3" d="M141.67,10.33a2.85,2.85,0,0,1,0-1,3.33,3.33,0,0,1,.36-1,2.43,2.43,0,0,1,.38-.48,2.46,2.46,0,0,1,.51-.39,2.67,2.67,0,0,1,1.21-.28,3.48,3.48,0,0,1,1,.16,3.61,3.61,0,0,1,.67.26l.24.12-.27,0c-.17,0-.41-.06-.69-.08l-.46,0-.5,0a3.22,3.22,0,0,0-.51.09,2.82,2.82,0,0,0-.48.19,2.49,2.49,0,0,0-.77.67,4.54,4.54,0,0,0-.45.83A5.33,5.33,0,0,0,141.67,10.33Z"/><path class="cls-3" d="M148.32,16.77a3,3,0,0,1,0-1,3.53,3.53,0,0,1,.35-1,2.83,2.83,0,0,1,.39-.48,2.42,2.42,0,0,1,.51-.38,2.65,2.65,0,0,1,1.2-.29,3.78,3.78,0,0,1,1,.16,4.27,4.27,0,0,1,.68.26l.24.12-.27,0a6.92,6.92,0,0,0-.7-.08l-.45,0c-.16,0-.33,0-.5,0a4.54,4.54,0,0,0-.51.09,2.55,2.55,0,0,0-.48.2,2.49,2.49,0,0,0-.77.67,3.53,3.53,0,0,0-.45.82A6.11,6.11,0,0,0,148.32,16.77Z"/><path class="cls-3" d="M169.69,29.05a2.85,2.85,0,0,1,0-1,3.58,3.58,0,0,1,.35-1,2.49,2.49,0,0,1,.39-.48,2.46,2.46,0,0,1,.51-.39,2.67,2.67,0,0,1,1.21-.28,3.48,3.48,0,0,1,1,.16,3.61,3.61,0,0,1,.67.26,2,2,0,0,1,.24.12l-.27,0c-.17,0-.41-.06-.69-.08l-.46,0-.5,0a3.22,3.22,0,0,0-.51.09,2.82,2.82,0,0,0-.48.19,2.49,2.49,0,0,0-.77.67,4,4,0,0,0-.45.83A5.33,5.33,0,0,0,169.69,29.05Z"/><path class="cls-3" d="M159.16,43.56a2.73,2.73,0,0,1-.24-1,3.29,3.29,0,0,1,.09-1.05,2.14,2.14,0,0,1,.25-.56,2.43,2.43,0,0,1,.4-.51,2.52,2.52,0,0,1,1.09-.58,3.52,3.52,0,0,1,1-.11,3.9,3.9,0,0,1,.72.08l.27.06-.27,0c-.17,0-.42,0-.7.1l-.44.09c-.16,0-.31.11-.48.16a3.31,3.31,0,0,0-.47.22,2.33,2.33,0,0,0-.41.31,2.28,2.28,0,0,0-.57.84,3.38,3.38,0,0,0-.23.91A5.45,5.45,0,0,0,159.16,43.56Z"/><path class="cls-3" d="M159.5,38.72a2.73,2.73,0,0,1-.24-1,3.29,3.29,0,0,1,.09-1,2.49,2.49,0,0,1,.24-.56,2.43,2.43,0,0,1,.4-.51,2.58,2.58,0,0,1,1.09-.58,3.61,3.61,0,0,1,1-.11,3.9,3.9,0,0,1,.72.08l.26.06-.27,0c-.17,0-.41,0-.69.1l-.45.09c-.15,0-.31.11-.47.16a2.86,2.86,0,0,0-.47.22,2.28,2.28,0,0,0-1,1.15,3.75,3.75,0,0,0-.22.91A5.45,5.45,0,0,0,159.5,38.72Z"/><path class="cls-3" d="M154.91,34.11a2.73,2.73,0,0,1-.24-1,3.31,3.31,0,0,1,.09-1,2.3,2.3,0,0,1,.25-.56,2.43,2.43,0,0,1,.4-.51,2.75,2.75,0,0,1,1.09-.58,3.89,3.89,0,0,1,1-.11,3.77,3.77,0,0,1,.72.09l.27,0-.27,0c-.17,0-.42,0-.7.1l-.44.09c-.16,0-.31.12-.48.16a5,5,0,0,0-.47.22,4,4,0,0,0-.41.31,2.37,2.37,0,0,0-.57.84,3.35,3.35,0,0,0-.23.92A5.34,5.34,0,0,0,154.91,34.11Z"/><path class="cls-3" d="M130,27.75a2.77,2.77,0,0,1-.71-.7,3.18,3.18,0,0,1-.48-.94,2.34,2.34,0,0,1,0-1.25,2.65,2.65,0,0,1,.62-1.07,4.32,4.32,0,0,1,1.48-.94l.26-.09-.21.18c-.13.11-.33.25-.54.44l-.33.32c-.11.11-.21.25-.32.38a4.61,4.61,0,0,0-.29.43,3.19,3.19,0,0,0-.19.48,2.35,2.35,0,0,0,0,1,3.66,3.66,0,0,0,.29.9A5.2,5.2,0,0,0,130,27.75Z"/><path class="cls-3" d="M141.12,28.3a2.73,2.73,0,0,1-.24-1,3.31,3.31,0,0,1,.09-1,2.7,2.7,0,0,1,.24-.56,2.74,2.74,0,0,1,.4-.5,2.78,2.78,0,0,1,1.09-.59,4,4,0,0,1,1-.11,3.77,3.77,0,0,1,.72.09l.26.05-.27,0-.69.1-.45.09c-.15.05-.31.12-.47.16a4,4,0,0,0-.47.22,3.25,3.25,0,0,0-.42.31,2.66,2.66,0,0,0-.57.84,3.82,3.82,0,0,0-.22.92A5.34,5.34,0,0,0,141.12,28.3Z"/><path class="cls-3" d="M146.57,35.58a3,3,0,0,1-.24-1,3.31,3.31,0,0,1,.09-1,2.3,2.3,0,0,1,.25-.56,2.38,2.38,0,0,1,.4-.5,2.65,2.65,0,0,1,1.09-.59,3.93,3.93,0,0,1,1-.11,3.77,3.77,0,0,1,.72.09l.27.05-.27,0c-.17,0-.42.05-.69.1l-.45.09c-.16,0-.31.12-.48.16a5,5,0,0,0-.47.22,4,4,0,0,0-.41.31,2.37,2.37,0,0,0-.57.84,4.42,4.42,0,0,0-.23.92A5.34,5.34,0,0,0,146.57,35.58Z"/><path class="cls-3" d="M154,41.23a3,3,0,0,1-.24-1,3.29,3.29,0,0,1,.09-1,2.53,2.53,0,0,1,.25-.56,2.43,2.43,0,0,1,.4-.51,2.63,2.63,0,0,1,1.09-.58,3.61,3.61,0,0,1,1-.11,4.86,4.86,0,0,1,.71.08l.27.06-.27,0c-.17,0-.41,0-.69.1l-.45.09c-.16,0-.31.11-.48.16a3.21,3.21,0,0,0-.46.22,2.28,2.28,0,0,0-1,1.15,4.27,4.27,0,0,0-.23.92A6.79,6.79,0,0,0,154,41.23Z"/><path class="cls-8" d="M178.82,20.06a13.52,13.52,0,0,1-.6-1.3c-.32-.79-.68-1.84-1-2.9s-.62-2.13-.84-2.94c-.12-.4-.21-.74-.29-1s-.11-.38-.11-.38a4.94,4.94,0,0,1,.92,1.12,9.92,9.92,0,0,1,.69,1.31,14.55,14.55,0,0,1,.58,1.57,16.42,16.42,0,0,1,.62,3.06A8.38,8.38,0,0,1,178.82,20.06Z"/><path class="cls-8" d="M174.25,17.36a12.34,12.34,0,0,1-.59-1.3c-.33-.79-.69-1.84-1-2.9S172,11,171.8,10.22c-.12-.4-.21-.74-.29-1s-.11-.38-.11-.38a4.87,4.87,0,0,1,.92,1.13,9.17,9.17,0,0,1,.69,1.3,14.55,14.55,0,0,1,.58,1.57,15.65,15.65,0,0,1,.62,3.06A8.38,8.38,0,0,1,174.25,17.36Z"/><path class="cls-8" d="M169.68,15.11a13.26,13.26,0,0,1-.59-1.31c-.32-.78-.69-1.84-1-2.9s-.62-2.13-.84-2.94c-.12-.4-.21-.74-.28-1s-.12-.38-.12-.38a4.66,4.66,0,0,1,.92,1.12,8.25,8.25,0,0,1,.69,1.3,16.22,16.22,0,0,1,.59,1.58,16,16,0,0,1,.61,3.06A8.39,8.39,0,0,1,169.68,15.11Z"/><path class="cls-8" d="M165.5,12.65s-.39-.43-.89-1.12S163.51,9.9,162.93,9,161.82,7,161.41,6.3c-.21-.36-.38-.67-.51-.88s-.2-.34-.2-.34a4.87,4.87,0,0,1,1.16.87,9.06,9.06,0,0,1,1,1.1,13,13,0,0,1,.95,1.39,16.26,16.26,0,0,1,1.33,2.82A8.4,8.4,0,0,1,165.5,12.65Z"/><path class="cls-8" d="M151,50.58a10,10,0,0,1,1.25-.55A20.55,20.55,0,0,1,158,48.81a10.19,10.19,0,0,1,1.38,0,9,9,0,0,1-1.26.56,21,21,0,0,1-2.84.82,23,23,0,0,1-2.93.4A9,9,0,0,1,151,50.58Z"/><path class="cls-8" d="M145.62,47.16a10.75,10.75,0,0,1,1.38-.54,23.47,23.47,0,0,1,3.09-.78,24.23,24.23,0,0,1,3.17-.36,11.18,11.18,0,0,1,1.47,0,10.93,10.93,0,0,1-1.37.54,23.89,23.89,0,0,1-3.09.78,22.62,22.62,0,0,1-3.17.36A11.29,11.29,0,0,1,145.62,47.16Z"/><path class="cls-8" d="M142.06,43.56a13.4,13.4,0,0,1,1.49-.5,29.8,29.8,0,0,1,3.35-.68,28.07,28.07,0,0,1,3.41-.25,13,13,0,0,1,1.58.07,13.19,13.19,0,0,1-1.5.5,27.08,27.08,0,0,1-3.35.67,26.35,26.35,0,0,1-3.41.26A12.7,12.7,0,0,1,142.06,43.56Z"/><path class="cls-8" d="M137.89,39.4a10.73,10.73,0,0,1,1.42-.29,23.46,23.46,0,0,1,3.12-.21,21.78,21.78,0,0,1,3.12.21,10.28,10.28,0,0,1,1.42.29,10.28,10.28,0,0,1-1.42.29,25.13,25.13,0,0,1-3.12.21,23.32,23.32,0,0,1-3.12-.22A9.94,9.94,0,0,1,137.89,39.4Z"/><path class="cls-7" d="M102.26,17.06a.65.65,0,1,1-.64-.64A.65.65,0,0,1,102.26,17.06Z"/><path class="cls-7" d="M109.45,17.36a.65.65,0,1,1-.64-.64A.65.65,0,0,1,109.45,17.36Z"/><circle class="cls-7" cx="113.36" cy="8.17" r="0.64"/><path class="cls-7" d="M118.58,20.28a.65.65,0,1,1-.65-.64A.65.65,0,0,1,118.58,20.28Z"/><path class="cls-7" d="M132.18,8.82a.65.65,0,1,1-.65-.65A.65.65,0,0,1,132.18,8.82Z"/><circle class="cls-7" cx="96.97" cy="18.99" r="0.64"/><path class="cls-7" d="M96,14.14a.65.65,0,0,1-1.29,0,.65.65,0,1,1,1.29,0Z"/><path class="cls-7" d="M108.35,7.53a.65.65,0,1,1-.65-.65A.65.65,0,0,1,108.35,7.53Z"/><path class="cls-7" d="M107.06,19.64a.65.65,0,1,1-.65-.65A.65.65,0,0,1,107.06,19.64Z"/></g></g></svg>