<svg id="Capa_1" enable-background="new 0 0 497 497" height="512" viewBox="0 0 497 497" width="512" xmlns="http://www.w3.org/2000/svg"><g><path d="m91.75 65.25c-16.569 0-30 13.432-30 30v19.529h60v-4.529-15c0-16.568-13.431-30-30-30z" fill="#8288cb"/><g><path d="m407 110.25h-24.333l-35.528-48.81c-7.53-10.345-18.063-17.851-29.93-21.718h-84.754c-22.091 0-40 17.909-40 40v205.629c0 96.593 78.304 174.898 174.898 174.898h16.647 23c49.706 0 90-40.294 90-90v-30l-40-70 40-70c0-49.705-40.294-89.999-90-89.999z" fill="#676fb2"/><path d="m298.629 36.75h-92.84c-19.188 0-37.218 9.177-48.51 24.69l-35.528 48.81h-31.751c-49.706 0-90 40.294-90 90l40 70-40 70v30c0 49.706 40.294 90 90 90h294c-31.85 0-59.504-16.679-75.5-41.643-8.968-13.995-14.5-30.502-14.5-48.357v-170l-42.25-90 35.528-48.81c7.529-10.345 18.063-17.851 29.93-21.718-5.929-1.932-12.186-2.972-18.579-2.972z" fill="#4c5699"/></g><g><path d="m0 200.25h294v140h-294z" fill="#70dcba"/><path d="m294 200.25h203v140h-203z" fill="#b0ebd8"/></g><g><path d="m308.5 121.893h-60l-108.095 153.42 108.095 143.294h60c58.634-23.736 100-81.212 100-148.357s-41.366-124.621-100-148.357z" fill="#efedff"/><path d="m272.271 142.436c11.051-8.333 23.211-15.273 36.229-20.543-18.53-7.502-38.78-11.643-60-11.643-88.365 0-160 71.635-160 160s71.635 160 160 160c21.22 0 41.47-4.141 60-11.643-13.018-5.27-25.178-12.21-36.229-20.543z" fill="#d4d4ff"/></g><g><path d="m272.271 142.436h-20l-63.771 127.814 63.771 127.814h20c60.369-11.201 106.229-64.249 106.229-127.814s-45.86-116.613-106.229-127.814z" fill="#ffdbe0"/><path d="m243.506 370.125c-21.901-27.374-35.006-62.092-35.006-99.875s13.105-72.501 35.006-99.875c8.378-10.472 18.05-19.86 28.764-27.939-7.709-1.431-15.653-2.186-23.771-2.186-71.683 0-130 58.317-130 130s58.317 130 130 130c8.118 0 16.061-.755 23.771-2.186-10.714-8.079-20.385-17.467-28.764-27.939z" fill="#ffb5c0"/></g><path d="m278.5 58.5h-60c-8.284 0-15 6.716-15 15s6.716 15 15 15h60c8.284 0 15-6.716 15-15s-6.716-15-15-15z" fill="#8288cb"/><g><path d="m331.193 234.387-2.088-.481.482-2.083c3.108-13.428-8.305-25.766-21.719-23.923-10.889 1.496-18.973 7.445-26.268 15.519l-8.611-8.611h-48.062v98.681h22.573c3.106 13.499 15.222 27.458 23.321 34.992 19.524 18.16 39.569 5.012 38.99-11.513l-.075-2.136 2.142-.075c21.25-.74 32.417-33.173-9.518-50.833 11.233-.978 22.476-4.374 29.891-8.995 4.512-2.812 8.196-6.446 10.98-10.585 7.533-11.206 1.438-26.853-12.038-29.957z" fill="#ffb5c0"/><path d="m280.992 183.62c-5.963-12.112-24.06-14.671-33.492-4.582-9.433-10.089-27.529-7.53-33.492 4.582-5.449 11.066-4.282 27.922-.607 39.799-7.295-8.075-15.379-14.023-26.268-15.519-13.413-1.843-24.827 10.495-21.719 23.923l.482 2.083-2.088.481c-13.477 3.103-19.572 18.751-12.037 29.958 2.783 4.139 6.467 7.773 10.98 10.585 7.414 4.621 18.657 8.016 29.89 8.995-41.935 17.661-30.769 50.093-9.518 50.833l2.142.075-.075 2.136c-.579 16.525 19.467 29.673 38.99 11.513 8.099-7.533 20.215-21.493 23.321-34.992v-11.235-44.736c0-13.235 7.545-24.7 18.563-30.351 4.66-2.39 9.938-3.748 15.536-3.748 3.674-11.878 4.841-28.733-.608-39.8z" fill="#ff8e9e"/></g><g><path d="m275.671 234.258c-2.907-2.907-6.152-5.27-9.607-7.09h-29.923v63.728l11.359 11.359c10.198 0 20.394-3.88 28.17-11.656 2.49-2.49 4.577-5.231 6.27-8.137 8.885-15.251 6.798-35.136-6.269-48.204z" fill="#ffdbe0"/><path d="m266.063 227.168c-15.31-8.066-34.927-5.53-47.657 8.061-15.067 16.099-14.268 41.62 2.312 56.691v.001h.001c7.584 6.898 17.183 10.334 26.78 10.335v-44.736c.001-13.236 7.546-24.701 18.564-30.352z" fill="#ffb5c0"/></g></g></svg>