<svg xmlns="http://www.w3.org/2000/svg" viewBox="0 0 2465.62 1448.67"><defs><style>.cls-1{fill:#495863;}.cls-2{opacity:0.8;}.cls-3{fill:#aec3ff;}.cls-4{fill:#d2e0ff;}.cls-5{fill:#143a72;}.cls-6{fill:#1c468a;}.cls-7{fill:#2a4e96;}.cls-8{fill:#739af0;}.cls-9{fill:#fff;}.cls-10{fill:#f77d48;}.cls-11{fill:#ebf3fa;}.cls-12{fill:#f99746;}.cls-13{fill:#163560;}.cls-14{fill:#ffb27d;}.cls-15{fill:#e06338;}.cls-16{fill:#5f7fb2;}.cls-17{fill:#e8945b;}.cls-18{fill:#233862;}.cls-19{fill:#ea8336;}.cls-20{fill:#214c7f;}.cls-21{fill:#707fe5;}.cls-22{fill:#8c9df4;}.cls-23{fill:#fca56b;}.cls-24{fill:#0b2e59;}.cls-25{fill:#7c9af2;}</style></defs><g id="Layer_2" data-name="Layer 2"><g id="_Layer_" data-name="&lt;Layer&gt;"><path class="cls-1" d="M2365.53,1444.76c-145.15,0-2259.48.48-2260.7-3l-.21-.44a2.29,2.29,0,0,1-.2-.64c-.81-1.73-325.77-486.58,179.42-824.1,197.67-132.07-12.37-219.25,144.82-366.27,180.64-168.95,377.78,18,578.66-58.66,35.49-13.53,71.1-35.29,106.75-68.7a391.22,391.22,0,0,1,65.61-49.39c74.31-44.94,162.07-66,247.65-71.83,224.45-15.3,477,70.76,607.39,196.56,26.24,25.33,145.58,156.39,51.51,336.54-59.39,113.74,189.42,222.37,277.84,352.25C2588.86,1217.34,2367.57,1440.46,2365.53,1444.76Z"/><g class="cls-2"><path class="cls-3" d="M1176,561s96.41-36.45,65-110.27c0,0-27-46.49-60.94-62.5,0,0,3.84,103.64-15.49,103.16s4.05-115.79,4.05-115.79-86.92-59.12-124.22-61.08c0,0,43.34,107.14,24.72,101.92s-68.89-114.61-68.89-114.61-93.38-32.2-117.34,22.4-3.32,86.8,10.37,92.5,105.18,18.21,101,29.71-68.66,21.22-101.44,5.39c0,0,23.88,99.37,74.4,102.1s70.56-25.79,101.74-23.53,52.48,13.94,35.82,19.93-68-7.43-96.08,10-50.2,27.46-5.38,43.88,128.72,23,150.66-10.12Z"/><path class="cls-3" d="M924.13,348.56S1161.05,466.57,1176,561c0,0-7.23,40.14,10.73,90.13L1184,668.87s-17-64.39-30-74.82C1154,594.05,1221.52,524.15,924.13,348.56Z"/><path class="cls-3" d="M1186.71,651.09s29.65,64.08-2.9,131.78l-9.48-4.14s21.33-76.75,7.13-119.09S1186.71,651.09,1186.71,651.09Z"/></g><path class="cls-4" d="M832,641.49S801,409.63,623.08,366.91c0,0-34.67-7.77-50.17,29.71s54.24,44.65,95.83,64.45S804.36,556.68,832,641.49Z"/><path class="cls-4" d="M840.33,599.49s37.28-185.83-87.75-265.43c0,0-24.51-15.09-46.26,9.54s29.79,48.5,56.43,74.63S841.46,527.22,840.33,599.49Z"/><path class="cls-4" d="M1833.85,371.89c-20.49,7.91-156.38,23-150.66,40.16s100.81,34,149.94,11.81c0,0-18.3,68.4-53.83,112.3L1596,537a78.92,78.92,0,0,0-26.53-3.52,191.26,191.26,0,0,0-30.45,3.78q-42.24.22-89,.43l-98.27.46c-31.93-27.85-60.19-71.24-33.86-129.1,0,0,41.68-67.78,92.57-90.2,0,0-9.59,153.27,19,153.3s-1.61-171.56-1.61-171.56S1558.72,216.39,1614,214.9c0,0-68.19,157-40.43,149.93s106.29-167,106.29-167,139.44-44.14,172.83,37.58S1854.34,364,1833.85,371.89Z"/><path class="cls-4" d="M1397.91,721.27c-1.13,3.61-2.05,6.62-2.72,8.82C1396,727.06,1396.89,724.1,1397.91,721.27Z"/><path class="cls-4" d="M1790.63,270C1570.86,392.28,1482.76,480.09,1450,537.71l-26.18.12C1494,409.6,1783.22,273.43,1790.63,270Z"/><path class="cls-4" d="M739.25,1443.49,840.1,1443c5.39-4.61-3.8-15-13.36-15.64-4.15-.29-9.4.6-15.39,1.9-1.47-18.43-9.78-101.26-39.63-97.79-33.57,3.89.17,36.49,9.75,55.85,7.1,14.33,14.62,34.9,18,44.61-2.72.6-5.54,1.19-8.43,1.74-4.51-13.65-21.29-59.55-42.34-56.77-24.71,3.25-14.68,21.64,2.89,32.5,12.9,8,28.74,19.35,36.27,24.84a106.44,106.44,0,0,1-19.71,1.67C750.92,1435.61,742.51,1440.74,739.25,1443.49Z"/><rect class="cls-5" x="1061.82" y="1289.84" width="287.34" height="116.72"/><path class="cls-6" d="M1439.51,1440.85h-468a34.3,34.3,0,0,1,34.3-34.29h399.43a34.3,34.3,0,0,1,34.3,34.29Z"/><rect class="cls-7" x="446.75" y="507.55" width="1525.66" height="800.1" rx="39.52"/><path class="cls-8" d="M513.4,536.48H1905.77A39.52,39.52,0,0,1,1945.29,576v663.18a39.52,39.52,0,0,1-39.52,39.52H513.4a39.52,39.52,0,0,1-39.52-39.52V576A39.53,39.53,0,0,1,513.4,536.48Z"/><rect class="cls-9" x="532.89" y="1106.7" width="1304.32" height="10.93"/><rect class="cls-10" x="532.75" y="1106.7" width="715.1" height="10.93"/><path class="cls-10" d="M1221.79,1112.17a18.59,18.59,0,1,1,18.59,18.58A18.59,18.59,0,0,1,1221.79,1112.17Z"/><circle class="cls-10" cx="1207.6" cy="824.09" r="224.02" transform="translate(-229.02 1095.27) rotate(-45)"/><path class="cls-9" d="M1147.12,706.57v235a15.3,15.3,0,0,0,24.59,12.16l154-117.51a15.3,15.3,0,0,0,0-24.33l-154-117.51A15.31,15.31,0,0,0,1147.12,706.57Z"/><circle class="cls-10" cx="1223.47" cy="1194.88" r="47.12"/><path class="cls-10" d="M1030.7,1194.88a47.13,47.13,0,1,1,47.13,47.13A47.13,47.13,0,0,1,1030.7,1194.88Z"/><path class="cls-10" d="M1324,1194.88a47.13,47.13,0,1,1,47.13,47.13A47.13,47.13,0,0,1,1324,1194.88Z"/><path class="cls-9" d="M1084.94,1208.05v-26.33a4,4,0,0,0-6.49-3.21l-17.25,13.16a4,4,0,0,0,0,6.42l17.25,13.17A4,4,0,0,0,1084.94,1208.05Z"/><path class="cls-9" d="M1363,1182.07v25.63a4.22,4.22,0,0,0,6.77,3.35l16.79-12.82a4.2,4.2,0,0,0,0-6.69l-16.79-12.82A4.22,4.22,0,0,0,1363,1182.07Z"/><path class="cls-9" d="M1211.42,1216.21h0a5.36,5.36,0,0,1-5.35-5.36v-31.94a5.36,5.36,0,0,1,5.35-5.35h0a5.36,5.36,0,0,1,5.36,5.35v31.94A5.36,5.36,0,0,1,1211.42,1216.21Z"/><path class="cls-9" d="M1237.49,1216.21h0a5.36,5.36,0,0,1-5.36-5.36v-31.94a5.36,5.36,0,0,1,5.36-5.35h0a5.36,5.36,0,0,1,5.35,5.35v31.94A5.36,5.36,0,0,1,1237.49,1216.21Z"/><circle class="cls-11" cx="1796.2" cy="1023.92" r="24.97" transform="translate(-197.93 1570.01) rotate(-45)"/><path class="cls-11" d="M1840.94,997.1a8.26,8.26,0,0,1-5.7-2.27c-13.12-12.36-26.69-18.38-40.34-17.84-21.25.81-36.42,17.2-36.57,17.37A8.33,8.33,0,0,1,1746,983.21c.79-.88,19.77-21.67,48.09-22.85,18.34-.77,36,6.76,52.6,22.36a8.32,8.32,0,0,1-5.71,14.38Z"/><path class="cls-11" d="M1866.84,961a8.28,8.28,0,0,1-5.71-2.27c-21.78-20.53-44.5-30.49-67.48-29.57-35.75,1.42-61,28.81-61.21,29.09a8.33,8.33,0,0,1-12.38-11.14c1.2-1.34,29.92-32.79,72.73-34.57,27.71-1.17,54.54,10.31,79.76,34.07a8.33,8.33,0,0,1-5.71,14.39Z"/><path class="cls-11" d="M1894.13,925.88a8.28,8.28,0,0,1-5.71-2.27c-30.92-29.13-63.26-43.25-96.09-41.91-51,2-86.82,41-87.17,41.43A8.32,8.32,0,0,1,1692.78,912c1.63-1.82,40.6-44.51,98.69-46.93,37.55-1.57,74,14,108.37,46.43a8.32,8.32,0,0,1-5.71,14.38Z"/><rect class="cls-10" x="1602.01" y="1084.12" width="403.57" height="358.68" rx="44.02"/><rect class="cls-12" x="1628.33" y="1107.51" width="350.93" height="311.9" rx="38.28"/><path class="cls-5" d="M1855.9,1380.53H1747.58a5.33,5.33,0,0,1-5.32-5.33h0a5.32,5.32,0,0,1,5.32-5.32H1855.9a5.32,5.32,0,0,1,5.32,5.32h0A5.33,5.33,0,0,1,1855.9,1380.53Z"/><path class="cls-11" d="M1655.51,1139.1a8,8,0,1,1,8,8A8,8,0,0,1,1655.51,1139.1Z"/><path class="cls-5" d="M1690.65,1139.1a8,8,0,1,1,8,8A8,8,0,0,1,1690.65,1139.1Z"/><path class="cls-8" d="M1728.6,1139.1a8,8,0,1,1,8,8A8,8,0,0,1,1728.6,1139.1Z"/><path class="cls-13" d="M2146.52,583.23c-16.35-8.49-29.46-3.15-29.46-3.15-50-5.88-64.63,52.47-64,72.55s3,41.65-19.37,67.73c-64.55,75.35,70.64,78.68,70.64,78.68,1.14-60.2,73.3-38.24,70.14-32.14C2267,789.1,2183.71,602.52,2146.52,583.23Z"/><path class="cls-14" d="M1957,837s-10.48-16-18.93-16.26-24.08-4.7-22.83-1.57,11,3.44,11.89,5.32-14.39,4.69-18.77,5-14.71,0-14.39,2.18,18.6,11.27,31.51,10,28.86,3.75,28.86,3.75Z"/><path class="cls-10" d="M2080.76,838.54a131.56,131.56,0,0,1-13.46,20.35c-10.46,13.1-26.58,28.23-46.82,31.21-9.67,1.43-19.13-.65-27.82-4.51h0c-24.58-10.91-43.07-36-43.07-36-4.33-11.82,2.76-19.83,2.76-19.83s49.64,11.16,54.37,8.8,32.31-81.82,38.87-91.8,29-15.17,29-15.17Z"/><path class="cls-15" d="M2067.3,858.89c-10.46,13.1-26.58,28.23-46.82,31.21-9.67,1.43-19.13-.65-27.82-4.51,1,.13,25.52,3.16,35.3-14.35,10-17.86,20.79-46.23,35.61-36.78C2070,838.55,2069.69,848.69,2067.3,858.89Z"/><path class="cls-16" d="M2266,1374.42s15.15,13.82,12.2,23.64-16.63,16.37-18.48,28.38-9.23,18.55-15.88,18.55H2212.1s-4.9-8.44,6.93-11,16.28-16.65,15.54-29.75,1.11-30.56,1.11-30.56l25.12-5.82Z"/><path class="cls-16" d="M2137.76,1380.29s5.45,58.56-1.2,61.83l-85.11-.17s0-9.82,13.67-12,37.68-10.19,41.75-28S2137.76,1380.29,2137.76,1380.29Z"/><path class="cls-14" d="M2198.41,960.13c-17.51-39.28-28.23-50.55-26.18-62.74,1.52-9.08-4.64-169.18-4.64-169.18-2.08-.64-6.25-1.22-8.52-1.72a21.38,21.38,0,0,1-15.61-13.57c-3-8.35-5.35-20.68-5.29-36.13l-2.25.45-37.72,7.47s.86,11.87.88,23V708a21.7,21.7,0,0,1-15.65,21l-8.91,2.55s-13.86,39.55-16.5,80.17,25.19,58.28-.21,139.47C2031.88,1034.12,2208.09,981.84,2198.41,960.13Z"/><path class="cls-17" d="M2098.2,684.71s.86,11.87.88,23c21.11-.59,32.27-19.85,36.84-30.52Z"/><path class="cls-14" d="M2091.15,695.3s49.94.82,50-30.29,6.5-52-25.38-53.8-38.1,10-40.64,20.4S2078.16,694.28,2091.15,695.3Z"/><path class="cls-13" d="M2093,610.45s13.67,36.5,34.66,41.89,30.09-.22,30.09-.22-16.1-12.79-19.44-35.11C2138.31,617,2103.31,593.08,2093,610.45Z"/><path class="cls-13" d="M2096.39,613.41s-10.14,3.79-14.32,11.19a50.34,50.34,0,0,0-6.75,28.56s-10.3-24.81,1.28-38.84C2088.88,599.43,2096.39,613.41,2096.39,613.41Z"/><path class="cls-11" d="M2102,676a12.55,12.55,0,0,1-10.34,4.21,9.17,9.17,0,0,1-7.7-5.08S2094.18,672.67,2102,676Z"/><path class="cls-10" d="M2203.23,799a338.4,338.4,0,0,1,0,39.33c-.84,14.23-15.23,33.28-17.27,38-5.12,11.82-10.9,13.74-10.9,13.74l-44.69,11-15.71,3.84-49.55-14.8s-22.57-63-13.51-98.45,22.91-60.08,22.91-60.08,40.43,39.59,93.08-3.36Z"/><path class="cls-15" d="M2190.15,844.18c-.84,14.22-2.15,27.47-4.19,32.18-5.12,11.82-10.9,13.74-10.9,13.74l-44.69,11L2111,895.35s63.8-15.87,71.52-90Z"/><path class="cls-5" d="M2068.26,899.67s-24.53,76.37-26.11,102.38,46.9,369.41,48.85,381.39c1.84,11.29,15.87,18.49,15.87,18.49s6.45,3.81,15.65,1.21c12.78-3.61,16.82-7.93,16.82-7.93s19.09-244.91,7.28-332.4a1383.11,1383.11,0,0,1-12-163.14Z"/><path class="cls-7" d="M2172.23,897.39s37.43,50.22,40.91,84.17,5.48,153.2,12.91,186.29,34.75,96.79,34.75,200c0,0-2.84,5.91-11.6,9.07a98.75,98.75,0,0,1-10.21,2.82,16.05,16.05,0,0,1-17.95-8.52c-18.46-37.18-77.29-157.1-80.3-182-2.14-17.61-20.71-134.2-61.22-202.61-9.73-16.42,6-81.74,6-81.74Z"/><path class="cls-9" d="M2100.91,676.83s-.87,3.66-10,3.1c0,0-7.65-.48-7.42-4.5C2083.5,675.43,2090.93,672.56,2100.91,676.83Z"/><path class="cls-18" d="M2064.34,887.88s9.85,7.79,29.42,8.18c23.38.47,81.3-6,81.3-6a48.06,48.06,0,0,1,2.47,14.79s-70.74,17.84-111.73,2.6C2065.8,907.49,2060.51,897.55,2064.34,887.88Z"/><path class="cls-9" d="M2088.16,916.21c-5.89,0-10.67-5.42-10.67-12.08s4.78-12.07,10.67-12.07,10.66,5.42,10.66,12.07S2094,916.21,2088.16,916.21Zm0-20.61c-3.94,0-7.14,3.83-7.14,8.53s3.2,8.54,7.14,8.54,7.13-3.83,7.13-8.54S2092.09,895.6,2088.16,895.6Z"/><path class="cls-14" d="M2153,955.34s-11.74,6.28-16.37,13.8-9.88,10.91-7.62,12.76,9.27-7.62,9.27-5.35-6,10.7-8,14.41,1.41,7,10.49,4.73,17.3-11.32,18.54-14.2,8.22-17.09,8.22-17.09Z"/><path class="cls-10" d="M2167.59,728.21s35.45,2.49,49,35.52,17,74.4,17,83.73c0,35.14-4.17,84.11-69.64,124.1,0,0-16.5-9.56-16-16.22,0,0,60.55-100.46,6.6-164.21C2144.05,778.68,2167.59,728.21,2167.59,728.21Z"/><path class="cls-18" d="M3.05,1440.85H2462.56a3.05,3.05,0,0,1,3.05,3.05v1.71a3.05,3.05,0,0,1-3.05,3.05H3.06A3.06,3.06,0,0,1,0,1445.62v-1.71A3.05,3.05,0,0,1,3.05,1440.85Z"/><path class="cls-19" d="M553.37,833.25c-.67-9-1.77-10.1-1.77-10.1s-81.59-7.7-94.87-11.56c-7.88-2.29-96.19-55.23-96.19-55.23L290.34,799s138.34,55.49,158.92,58.43c34,4.85,91.6-13.35,91.6-13.35S553.9,840.36,553.37,833.25Z"/><path class="cls-20" d="M335.78,1409.26s1.08,26.24,6.12,32.61l70.07.41c-.49-2.71-.78-9-10.47-10.65a47,47,0,0,1-34-26.86C359.66,1387.75,335.78,1409.26,335.78,1409.26Z"/><path class="cls-20" d="M198.27,1405.48s-4.89,34.85,1.75,35.46c.88.08,28.24.52,40.08.72,13.93.23,36.82-.26,36.82-.26a3.64,3.64,0,0,0,3.3-5.48c-1.61-2.72-4.68-5.62-10.53-6.75-12.2-2.35-32.53-11.31-39.66-27.62C222.52,1384.39,198.27,1405.48,198.27,1405.48Z"/><path class="cls-21" d="M372.22,1048.37s-19.49,68.18-75.33,186.57-58.26,175.46-58.26,175.46a49,49,0,0,1-19.66,1.79,52.75,52.75,0,0,1-20.7-6.71s3.62-140.92,30-200.67S260,981.57,260,981.57Z"/><path class="cls-22" d="M403.5,989.71s1.55,105.57-16.72,235.19-9.72,189.91-9.72,189.91-4.84,3.52-19.74,3.46C339.89,1418.21,331,1411,331,1411s-26.14-129.67-18.65-194.55-35.8-222.63-35.8-222.63Z"/><path class="cls-14" d="M361.08,726.55c-.19,8.28-1.29,17.3-4.61,21.72L337.88,758l-20.61-15.28s7.54-16.75,5.7-41.24c-.18-1.47-.92-10.85-.92-11l10.31,5.16,28,14a6,6,0,0,0,.18,1.29C360.71,713.67,361.08,719.74,361.08,726.55Z"/><path class="cls-12" d="M407.33,1001.23c1.89,18.83-142.52,32.37-149.26,1.52-4.41-20.11-.48-121.92,16.51-194.41,9.08-38.73,28.28-69.3,45.54-74.37,6.36-1.87,34.85,5.57,38.84,7.53,13.2,6.47,24.41,19.94,26.25,26.15,2.62,8.81,5.63,20.11,8.09,32.56a238.31,238.31,0,0,1,4.81,42.88c.11,11,1.22,25.78,2.7,42.07.78,8.56,1.66,17.52,2.55,26.56,0,.06,0,.11,0,.17.12,1.75.7,15.22,1.39,31.19.53,12.26,1.11,26,1.59,37C406.88,991.88,407.26,1000.6,407.33,1001.23Z"/><path class="cls-23" d="M361.08,726.55c-10.5-4.23-30.56-13.8-36.08-24.67-2.4-4.78,1.29-6.25,7.36-6.25l28,14a6,6,0,0,0,.18,1.29C360.71,713.67,361.08,719.74,361.08,726.55Z"/><path class="cls-14" d="M373.81,707.89s-50.25,15.68-59.53-15.76-22-50.6,9.68-61.94,41.49-1.18,47.14,8.56S386.64,703,373.81,707.89Z"/><path class="cls-13" d="M369.13,635.72s-3.21,36.59-10.77,35S343.93,668,345,679s1.47,24.29-21.85,26.24-46.71-58.71-40.3-70.1C301.36,602.27,395.84,595.64,369.13,635.72Z"/><path class="cls-19" d="M389.79,1003C305,967.1,309.6,843.5,308.12,840.14L399,928.58c-1.11,11-2.19,22.63-3.29,34.31,0,.08,0,.14,0,.22C395.41,965.35,392.84,982.59,389.79,1003Z"/><path class="cls-24" d="M474.73,1177.82l-67.32-41.55c-44-27.12-57.71-85.28-30.59-129.23l251.09-406.8c27.12-44,85.28-57.72,129.23-30.59l67.32,41.55c43.95,27.12,57.71,85.28,30.59,129.23L604,1147.24C576.84,1191.19,518.68,1205,474.73,1177.82Z"/><path class="cls-25" d="M783.35,704.18A15.89,15.89,0,1,1,788.52,726,15.88,15.88,0,0,1,783.35,704.18Z"/><path class="cls-25" d="M669.76,718.12l-17.75-11a8.62,8.62,0,0,1-2.8-11.82l5.56-9a8.62,8.62,0,0,1,11.82-2.8l17.75,11a8.62,8.62,0,0,1,2.8,11.82l-5.56,9A8.6,8.6,0,0,1,669.76,718.12Z"/><path class="cls-25" d="M711.54,743.91,693.79,733a8.62,8.62,0,0,1-2.8-11.82l5.56-9a8.63,8.63,0,0,1,11.83-2.8l17.75,10.95a8.63,8.63,0,0,1,2.79,11.83l-5.56,9A8.61,8.61,0,0,1,711.54,743.91Z"/><path class="cls-25" d="M753.32,769.7l-17.74-11a8.61,8.61,0,0,1-2.8-11.82l5.56-9a8.62,8.62,0,0,1,11.82-2.8l17.75,11a8.62,8.62,0,0,1,2.8,11.82l-5.56,9A8.63,8.63,0,0,1,753.32,769.7Z"/><path class="cls-25" d="M646.89,755.18l-17.75-10.95a8.62,8.62,0,0,1-2.8-11.82l5.56-9a8.62,8.62,0,0,1,11.82-2.8l17.75,10.95a8.62,8.62,0,0,1,2.8,11.82l-5.56,9A8.62,8.62,0,0,1,646.89,755.18Z"/><path class="cls-25" d="M688.67,781l-17.75-11a8.62,8.62,0,0,1-2.8-11.82l5.56-9a8.61,8.61,0,0,1,11.82-2.79l17.75,11a8.62,8.62,0,0,1,2.8,11.82l-5.56,9A8.62,8.62,0,0,1,688.67,781Z"/><path class="cls-25" d="M730.45,806.76l-17.75-11A8.6,8.6,0,0,1,709.91,784l5.55-9a8.62,8.62,0,0,1,11.83-2.79l17.75,11A8.6,8.6,0,0,1,747.83,795l-5.56,9A8.62,8.62,0,0,1,730.45,806.76Z"/><rect class="cls-25" x="605.53" y="757.63" width="38.04" height="27.77" rx="8.59" transform="translate(498.28 -213.05) rotate(31.68)"/><path class="cls-25" d="M667.92,814.59l-17.75-11a8.63,8.63,0,0,1-2.8-11.83l5.56-9a8.62,8.62,0,0,1,11.82-2.8l17.75,11a8.62,8.62,0,0,1,2.8,11.82l-5.56,9A8.62,8.62,0,0,1,667.92,814.59Z"/><path class="cls-25" d="M709.7,840.38l-17.75-11a8.62,8.62,0,0,1-2.8-11.82l5.56-9a8.61,8.61,0,0,1,11.83-2.8l17.75,11a8.62,8.62,0,0,1,2.79,11.82l-5.56,9A8.62,8.62,0,0,1,709.7,840.38Z"/><path class="cls-25" d="M484.22,1097.69,470,1088.91a10.19,10.19,0,0,1-3.31-14l2-3.25a10.19,10.19,0,0,1,14-3.31l14.23,8.78a10.2,10.2,0,0,1,3.31,14l-2,3.24A10.19,10.19,0,0,1,484.22,1097.69Z"/><path class="cls-25" d="M426.83,1063.29l-14.23-8.78a10.19,10.19,0,0,1-3.31-14l2-3.25a10.2,10.2,0,0,1,14-3.31l14.23,8.78a10.2,10.2,0,0,1,3.31,14l-2,3.24A10.2,10.2,0,0,1,426.83,1063.29Z"/><rect class="cls-25" x="522.38" y="1107.44" width="37.06" height="24.15" rx="10.17" transform="translate(668.57 -117.25) rotate(31.68)"/><path class="cls-25" d="M595,931.17,570.8,916.22a10.21,10.21,0,0,1-3.31-14l15-24.22a10.19,10.19,0,0,1,14-3.31l24.22,14.95a10.19,10.19,0,0,1,3.31,14l-15,24.21A10.2,10.2,0,0,1,595,931.17Z"/><path class="cls-10" d="M537.28,895.53l-24.22-14.95a10.19,10.19,0,0,1-3.31-14l14.94-24.22a10.2,10.2,0,0,1,14-3.31l24.21,15a10.19,10.19,0,0,1,3.31,14l-14.94,24.21A10.2,10.2,0,0,1,537.28,895.53Z"/><path class="cls-10" d="M650.51,965.42,626.3,950.47a10.19,10.19,0,0,1-3.31-14l14.94-24.22a10.19,10.19,0,0,1,14-3.31l24.22,14.95a10.19,10.19,0,0,1,3.31,14l-14.94,24.22A10.22,10.22,0,0,1,650.51,965.42Z"/><path class="cls-10" d="M629.92,874.62,605.7,859.68a10.19,10.19,0,0,1-3.31-14l15-24.22a10.19,10.19,0,0,1,14-3.31l24.22,14.94a10.22,10.22,0,0,1,3.31,14l-15,24.21A10.19,10.19,0,0,1,629.92,874.62Z"/><path class="cls-10" d="M560.12,987.71l-24.21-15a10.2,10.2,0,0,1-3.32-14l14.95-24.22a10.21,10.21,0,0,1,14-3.31l24.22,15a10.19,10.19,0,0,1,3.31,14L574.12,984.4A10.2,10.2,0,0,1,560.12,987.71Z"/><path class="cls-9" d="M618.16,848.28l17.13,10.58a2.36,2.36,0,0,0,3.6-2.15l-1.06-17.46a2.36,2.36,0,0,0-3.28-2l-16.08,6.89A2.35,2.35,0,0,0,618.16,848.28Z"/><path class="cls-9" d="M574,958.25l-17.13-10.58a2.36,2.36,0,0,0-3.6,2.15l1.06,17.46a2.35,2.35,0,0,0,3.28,2l16.08-6.88A2.35,2.35,0,0,0,574,958.25Z"/><path class="cls-9" d="M539.09,879.81l10.58-17.14a2.36,2.36,0,0,0-2.15-3.59l-17.46,1.06a2.36,2.36,0,0,0-2,3.28l6.88,16.08A2.36,2.36,0,0,0,539.09,879.81Z"/><path class="cls-9" d="M651.15,925.31l-10.58,17.14a2.36,2.36,0,0,0,2.15,3.59L660.18,945a2.36,2.36,0,0,0,2-3.28l-6.88-16.08A2.36,2.36,0,0,0,651.15,925.31Z"/><path class="cls-10" d="M665.81,604.75c12.65-20.49,38.92-27.21,58.68-15s25.52,38.7,12.88,59.18-38.92,27.22-58.68,15S653.16,625.24,665.81,604.75Z"/><path class="cls-9" d="M688.76,647.61c-11-6.82-14.28-21.69-7.21-33.15A24.68,24.68,0,0,1,701,602.68a2.2,2.2,0,0,1,2.32,2.17,2.38,2.38,0,0,1-2.21,2.43,20,20,0,0,0-15.77,9.54c-5.72,9.27-3.1,21.31,5.85,26.83s20.88,2.47,26.6-6.8a20,20,0,0,0,1.49-18.29,2.38,2.38,0,0,1,1.2-3.06,2.19,2.19,0,0,1,3,1.11,24.71,24.71,0,0,1-1.84,22.59C714.56,650.66,699.81,654.43,688.76,647.61Z"/><path class="cls-9" d="M701.59,626.83h0a2.24,2.24,0,0,1-.73-3.08l14.7-23.82a2.24,2.24,0,0,1,3.08-.73h0a2.24,2.24,0,0,1,.73,3.08l-14.7,23.82A2.24,2.24,0,0,1,701.59,626.83Z"/><path class="cls-14" d="M509,1007.15s8.23,1.76,12.2.67c1.39-.38,8.81-.52,12.71,5.7,3.56,5.68,22.08,6.83,22.08,6.83,4.61,4.73-6,20.76-16.85,18.12-8.82-2.16-30.74-13.66-42.12-17.92C484.76,1016,509,1007.15,509,1007.15Z"/><path class="cls-14" d="M517.19,1008.91s8.62-2.71,13.42-2.38,10.58-2.29,9.75.08-8.33,4.71-9.94,7.3S517.19,1008.91,517.19,1008.91Z"/><path class="cls-12" d="M506.87,998.71S446.71,959.57,427,941.39c-9.8-9-45.78-144.09-45.78-144.09l-7.43,3.75c-17.5-10-40.23-1.89-40.23-1.89s-21.31,9.3-24.6,26.33c-7.27,37.74,36.34,116.3,56.83,135.57,26.44,24.85,126.55,64,126.55,64s14.72,1.47,17.73-11.95C512.12,1003.85,506.87,998.71,506.87,998.71Z"/></g></g></svg>