<svg xmlns="http://www.w3.org/2000/svg" viewBox="0 0 138.81 54.98"><defs><style>.cls-1{fill:#040501;}.cls-2{fill:#11c3d1;}.cls-3{fill:#fcab8b;}.cls-4{fill:#21e8ed;}.cls-5{fill:#fff;}.cls-6{fill:#d1d1d3;}</style></defs><title>Asset 1</title><g id="Layer_2" data-name="Layer 2"><g id="Layer_1-2" data-name="Layer 1"><path class="cls-1" d="M119.82,12.84a60.32,60.32,0,0,1,.86-7.53c.53-1.94,2.09-2.1,5.1-3.27s6.72-3,10.61-1.46,2.48,4,0,4.86-9.18,6.39-9.18,6.39S120,14,119.82,12.84Z"/><path class="cls-1" d="M101.93,25.13a56.85,56.85,0,0,1,.83-7c.51-1.81,2-1.95,4.78-3s6.3-2.76,9.93-1.32,2.31,3.7,0,4.54-8.61,5.94-8.61,5.94S102.1,26.2,101.93,25.13Z"/><path class="cls-2" d="M113.2,33.38,110.39,21.6s-1.67-2.13-5.27-1.1a12.94,12.94,0,0,0-3.36,1.69l-.16,12.65Z"/><path class="cls-3" d="M20,32.75a52.78,52.78,0,0,1-8.86-1.14c-3.18-.87-8.86.32-10.37.14S0,33.32,2.15,34.2s6.89.55,8.56.93-.69,1.52.13,2.77c1.13,1.72,1.09,1,1.59.42s1.17-2.22,1.67-2.45,5.94.78,5.94.78Z"/><path class="cls-4" d="M44.66,39.83c1.78-.66,6.28.11,9-.87s7.25-5.64,8.89-5.11,5.94,7,5.94,7,6.68,3.78,7.63,4.37,12.52-2.68,14.42-3.34,3.25-.84,9.45,0c5.62.77,17-1,20.11-1.56a76.24,76.24,0,0,0,7.67-2.11c.39-1.48.3-3.24.84-4.87,1-2.91.22-11.15,0-13.39s-.93-8.7-.93-8.7-2.25-2.35-4.92-1.68-3,1.95-3,1.95.2,8.71.13,11.77a70.54,70.54,0,0,1-1.5,7.09s-5.73-.78-9.87-1.4-13.17-2-19.38.19c-2.94,1.05-9.29,4.25-11.68,4.37-3,.15-9.91-6.06-26.89,1.8a82.49,82.49,0,0,0-9.49-.15c-3.55.27-14.28-3.38-17.2-3.77a20.29,20.29,0,0,0-6.47.49v3.67S31.13,37,34.31,37.79,42.89,40.49,44.66,39.83Z"/><path class="cls-2" d="M26,39.81c3,1.87,8.13,5.27,14.79,5.74,4.12.29,7.44-1,9.91-.73,5.06.52,14,4.11,19.5,5.81,4.37,1.35,14.63,0,20-1.12,2.45,1,5,2,6.51,2.74A29.58,29.58,0,0,0,108.85,55c1.51,0,4.44-6.24,4.44-8.14V43.17s8.9-.81,12.14-2.18a3.78,3.78,0,0,0,2.33-2.77,76.24,76.24,0,0,1-7.67,2.11c-3.1.58-14.49,2.33-20.11,1.56-6.2-.84-7.54-.65-9.45,0s-13.48,3.93-14.42,3.34-7.63-4.37-7.63-4.37-4.29-6.49-5.94-7S56.35,38,53.65,39s-7.21.21-9,.87-7.17-1.26-10.35-2-16.86-2.2-16.86-2.2v1.92S23.07,37.94,26,39.81Z"/><path class="cls-4" d="M64.19,34.37s-.28-5.4,4.63-7.65a32.91,32.91,0,0,0,10.53-8.36,70,70,0,0,1,7.47-8.18h7.69S91,21.45,87.41,24.33s-7.34,5.87-8.88,10.36C75.58,43.35,64.19,34.37,64.19,34.37Z"/><path class="cls-5" d="M64.19,34.37s5.73-3.64,9.08-5.19,5.33-2.14,6.81-4.8,4.69-6,6.29-8.14a20.67,20.67,0,0,0,3-4.71H86.82s-3.85,4.8-5.33,6.83-4.62,5.8-6.8,6-5.89,2.51-8.27,4.14S64.19,34.37,64.19,34.37Z"/><path class="cls-1" d="M76.59,47.07l1.89-2.18c-2.23-.66-5.15-1.7-6.69-3-2.72-2.28-6-7.2-6.27-9.53a9.22,9.22,0,0,1,.9-3.84S63,30.42,62.1,32.36c0,0-.43,5.34,3.27,8.81s9,5,11,5.81Z"/><path class="cls-5" d="M17.45,33.21a18.33,18.33,0,0,1,8,.64c2.59.95,6.6,1.29,8.7,1.53a40.65,40.65,0,0,0,6.22-.17,30.63,30.63,0,0,1,4.38-.52c1.44,0,3.91.21,3.91.21l.67,1.58a27.31,27.31,0,0,0-6,.38c-1.3.26-5.53,1.89-8.1,2.1-4.71.4-9.78-1.08-11.31-1.45a34.15,34.15,0,0,0-6.51-.65Z"/><path class="cls-1" d="M48.07,33.28s-1.48,4.08.74,7,3.66,5,6.46,5.83l2.8.82s-5.84-4.79-6.6-8.89-1-5-1-5Z"/><path class="cls-3" d="M53.16,24.39c-4.84.53-6.56,5.89-4.37,11.18s6.83,7.78,9.5,5.44,4.37-6.23,3.64-9.27S59.24,23.73,53.16,24.39Z"/><path class="cls-6" d="M48,32.49a4.17,4.17,0,0,0,.26,3.42c1.16,1.72,2.11,1.09,2.7-.07s1.59-1.52,3-.22a2.64,2.64,0,0,0,2.47.18A4.29,4.29,0,0,0,58,34.44a9,9,0,0,0,1.62-4.13l-1.66-1.13a10.49,10.49,0,0,1-3,1.71A26.64,26.64,0,0,1,48,32.49Z"/><path class="cls-1" d="M48,32.49A5.45,5.45,0,0,1,54,29.75c8,1.5,5.8,9.61,5.8,9.61.72-1,3.37-5.33,3.33-9,0-2.52-1-5-5.25-6.91C52.4,21,49.34,23.79,47.69,27,46.77,28.86,48,32.49,48,32.49Z"/><path class="cls-5" d="M48.07,33.28a2.42,2.42,0,0,0,.74,2.63c.9.84,1.59.18,1.8-.56a4,4,0,0,0-.11-2.27C49.89,33.11,48.64,33.2,48.07,33.28Z"/><path class="cls-5" d="M56.38,31a18.94,18.94,0,0,1-3.74,1.66,2.69,2.69,0,0,0,.91,2,2.68,2.68,0,0,0,4.35-2C57.9,31.9,56.52,31.09,56.38,31Z"/><path class="cls-3" d="M86.82,11.53s-2.08-3.12-1.48-4.6a10.92,10.92,0,0,1,1.48-2.6c.59-1,1.62-1,4-1s2.51.59,3.7,2.36-.78,6.71-.78,6.71S89.48,13.77,86.82,11.53Z"/><path class="cls-2" d="M79.35,33s-1.86,2.71-3,4.18c-.79,1,.24,2.22,3.5,3.12s7.69.6,9.47-.65S92.73,37,94,33a11.3,11.3,0,0,0,.5-4.92,80.87,80.87,0,0,0-9.28,2.2A30.29,30.29,0,0,0,79.35,33Z"/><path class="cls-5" d="M92.58,36.31s8.14-1.62,12-1.62c6,0,11.85,1.31,14.2,1.62,3.4.44,5.47-.18,6.36-2.51s2.66-13.54,1.63-16.14a57.91,57.91,0,0,1-2-8.08,2.78,2.78,0,0,0-2,0c-1.15.38.15,5.68.74,7.28s.6,4.93.3,8.44-.3,6.79-1.18,7.51a7.41,7.41,0,0,1-5.32.8c-2.21-.4-10.06-1.36-13.61-1.52s-10.8-.19-11.1.27S92.58,36.31,92.58,36.31Z"/><path class="cls-1" d="M66.81,49.5a5.2,5.2,0,0,0,5,1c2.9-1,14-7.21,12.21-19.45a15.72,15.72,0,0,0-3,1.05s0,4.88-4.28,10.72C74.09,46.45,66.81,49.5,66.81,49.5Z"/><path class="cls-1" d="M90.21,49.51a34.46,34.46,0,0,0,5.33-2.44,6.22,6.22,0,0,0,2.22-2.87h3s-1.12,5-5.26,6.56S90.21,49.51,90.21,49.51Z"/><path class="cls-1" d="M89.18,29.18s-.4,5.54,1.72,9.24,6.86,5.78,6.86,5.78l4.88.19S98,41.87,95.9,39s-2.58-10.74-2.58-10.74A12.25,12.25,0,0,0,89.18,29.18Z"/></g></g></svg>