<svg xmlns="http://www.w3.org/2000/svg" viewBox="0 0 56.02 95.29"><defs><style>.cls-1{fill:#364d58;}.cls-2,.cls-5,.cls-8{fill:#1d1d1b;}.cls-2{opacity:0.2;}.cls-3{fill:#f59c93;}.cls-4{fill:#73a2aa;}.cls-5{opacity:0.1;}.cls-6{fill:#fdc8a8;}.cls-7{fill:#141424;}.cls-8{opacity:0.07;}.cls-9{fill:#ffc990;}.cls-10{fill:#f9f2d6;}.cls-11{fill:#9b8f87;}</style></defs><g id="Layer_2" data-name="Layer 2"><g id="Layer_1-2" data-name="Layer 1"><rect class="cls-1" x="0.65" y="2.59" width="54.73" height="89.66"/><path class="cls-2" d="M51.5,24.24c-1-1.11-2.09-2.22-3.14-3.32A15.81,15.81,0,0,0,53,22.21l-4.26-2.79A10.23,10.23,0,0,0,52,20a33.22,33.22,0,0,0-3.33-1.9l1.17-8.9c.83-.37,1.68-.72,2.54-1-.81,0-1.61,0-2.42.07,0-.2.06-.39.08-.59A4.12,4.12,0,0,0,52,6.2l-3.2.57a54.33,54.33,0,0,0-23.6-3.13c-.19,1-.32,2-.42,3l-.27-2.73a4.61,4.61,0,0,0-.25,2.31,5.39,5.39,0,0,1-.06,1.27l-.26,0L21,5.33q.87,1,1.68,2h-.76l-3-1.52,1.82,1.52c-5.15,0-10.43.31-15,2.41A8.75,8.75,0,0,1,3,8.72a3.72,3.72,0,0,0,1.59,1.55c-.2.1-.39.22-.59.33a7.7,7.7,0,0,1-2-.7,4.52,4.52,0,0,0,1.67,1.49,29.46,29.46,0,0,0,2,15.05,11,11,0,0,1-2.37,1.21,9,9,0,0,0,2.84-.12.08.08,0,0,1,0,0L3,30.39a30.14,30.14,0,0,0,6.11-2.07l.26,0a3.42,3.42,0,0,1-.13.34,15.25,15.25,0,0,1-1.7,2.74A13.37,13.37,0,0,1,10.9,29.6a15.58,15.58,0,0,1,.83,3.1l3,.19a14.51,14.51,0,0,1-1.07-2.12,6.26,6.26,0,0,0-1.1-1.71l.08,0A.71.71,0,0,0,13,28.4a.9.9,0,0,0-.34-.56,76,76,0,0,0,14.53-3.79c.1.26.21.53.32.79l14.74.33c1.69,0,3.61,0,4.79-1.21,1.08,3,2.48,6,2.39,9.19,1.43-.94,2.19-2.6,2.88-4.16a4.64,4.64,0,0,0,.57-2.53A4.58,4.58,0,0,0,51.5,24.24Z"/><path class="cls-3" d="M25.25,8.37a4.38,4.38,0,0,0-2.58-.54c-6,0-12.41.1-17.55,3.25A27.67,27.67,0,0,0,7.81,27.79,70.3,70.3,0,0,0,28.73,23a84.76,84.76,0,0,0-2.19-12.27A4.15,4.15,0,0,0,25.25,8.37Z"/><path class="cls-4" d="M46,23.3a5.72,5.72,0,0,0,1-3Q47.85,14,48.66,7.77A51,51,0,0,0,25.31,4.39a34.6,34.6,0,0,0,2.17,19.92l13.85.3C43,24.65,44.94,24.59,46,23.3Z"/><path class="cls-5" d="M39.65,14.82l4.57-.44L38,13.88a5.37,5.37,0,0,1,4-1.19,32.23,32.23,0,0,1-3.59-1.88c-.41-.25-.86-.57-.93-1.05C37.31,9,38.19,8.48,39,8.4A4.86,4.86,0,0,0,41.18,8c-2,.29-3.9-.55-5.73-1.32s-3.83-1.51-5.75-1C28.32,6,26.9,7,25.61,6.4a4.51,4.51,0,0,1,.87,1.26,1.55,1.55,0,0,1-.11,1.48,1,1,0,0,1-.75.39,1.19,1.19,0,0,1,.46.93,1.76,1.76,0,0,1-.93,1.39,3.39,3.39,0,0,1-.73.3,2.07,2.07,0,0,1,.38-.66,5.06,5.06,0,0,1-1.76.24,1.73,1.73,0,0,1-1.43-.91,1,1,0,0,1,.59-1.44L16.39,11a16,16,0,0,1-6.27.89,2.89,2.89,0,0,1,1.69,1.45,2.65,2.65,0,0,1-.45,2.94A2.36,2.36,0,0,1,9.91,17a10,10,0,0,1,1.66.68c.35.19.73.5.64.88s-.46.46-.79.54L7.7,20a9.15,9.15,0,0,1,3.26.09,3.52,3.52,0,0,1,2.46,2,2.22,2.22,0,0,1-1,2.79c1.53,4,25.93-1.26,24.27-5.63-.36-.94,1.52-.77,2.44-.36a5.21,5.21,0,0,1-1.53-1.09A1.77,1.77,0,0,1,37.2,16C37.55,15.13,38.69,14.91,39.65,14.82Z"/><polygon class="cls-6" points="22.52 22.89 26.32 24.31 25.24 29.21 22.32 28.14 22.52 22.89"/><polygon class="cls-6" points="25.81 37.92 29.68 36.42 29.12 25.44 25.5 25.67 25.86 37.66 25.81 37.92"/><path class="cls-6" d="M29.78,21.61l-1.59-.25a3.19,3.19,0,0,0-1.66.17h0a3.25,3.25,0,0,0-2.07,2.54l-2.28,9.84-4.47,2.25L18,40.24l.86-.17h.05A24.87,24.87,0,0,0,26,37.19a32.93,32.93,0,0,0,1.82-4.32.56.56,0,0,0,0-.12c.14-.38.26-.78.38-1.17s.17-.55.24-.83A35.58,35.58,0,0,0,29.78,21.61Z"/><path class="cls-6" d="M40.17,17.22l1.41,4,1.59,4.52.36.31a40.07,40.07,0,0,1-1.48,8.7A26.35,26.35,0,0,1,40.88,38c-.13.31-.27.62-.42.92l-.27.56a25.31,25.31,0,0,1-2.67,4.19c-.36.46-.73.91-1.13,1.36l-.47.51-.09.09c-.26.28-.53.55-.81.82l-4.68-3-2.5-1.59c0-.44.07-.88.1-1.31l0-.47a54.23,54.23,0,0,0-.11-7.33l0-.42h0c0-.58-.1-1.16-.16-1.75-.1-1-.22-2-.35-3.09a.11.11,0,0,0,0,0h0c-.23-1.88-.5-3.83-.78-5.9h0l6.55-3.41,6.67-.85h0Z"/><path class="cls-6" d="M36,17.9c-.27,1.71-5.61,2.5-5.61,2.5l-.1-.91-.08-.81-.11-1.09L30,16.14l-.08-.66-.3-2.63a48.1,48.1,0,0,0,5.31-.12l.4,1.82Z"/><path class="cls-5" d="M31.12,19.44a4.46,4.46,0,0,1-.81,0l-.08-.81-.81.08a1.41,1.41,0,0,1-1.36-.83,5.12,5.12,0,0,1-.31-2.15,13.33,13.33,0,0,1,2.21.36c1.32.27,2.71.5,3.33-.18,0,.05,0,.1,0,.15C33.4,17.17,32.93,19.16,31.12,19.44Z"/><path class="cls-6" d="M36.67,14.23c-.13.4-.72.39-1.38.32a8,8,0,0,0-1.76-.15,3.71,3.71,0,0,1-.23,1.71,4.15,4.15,0,0,1-2.77,2.54l-.3,0-.81.08a1.41,1.41,0,0,1-1.36-.83,2.79,2.79,0,0,1-.35-1.09s-.05-1.47-.09-1.82l-.5-.1a.55.55,0,0,1-.45-.71l.6-2a5.61,5.61,0,0,1-.29-.6c-.12-3.43,1.89-5.08,4.11-5.34,1.91-.13,5.51-.63,6,4.51A10.1,10.1,0,0,1,36.67,14.23Z"/><path class="cls-7" d="M35.75,15.4c-3.42,1-1.74-3.12-1.74-3.12s-.7,1.31-1,1.68c-.56,0-.56,0-1.08,0-.5-4.37.21-6.39-4.54-5-1-.09-1.71-3.06,4.13-3.3a4.91,4.91,0,0,1,5.33,3.68C37.5,11.77,37.73,14.6,35.75,15.4Z"/><path class="cls-6" d="M34.62,12.58c.05.81-.57,1.79-1.09,1.82S33,13.78,33,13c0-.53-.22-1.28.34-1.49S34.54,11.4,34.62,12.58Z"/><path class="cls-8" d="M22.65,28.36c0,.1.05.19.07.29s0,.38,0,.56Z"/><path class="cls-8" d="M24.28,34.4l.23.06A.86.86,0,0,1,24.28,34.4Z"/><path class="cls-7" d="M21.19,19.33c-.93-2.33.23-5.13-.8-7.43a2.08,2.08,0,0,1,1.41.92,4.24,4.24,0,0,1,.6,1.6,27.68,27.68,0,0,1,.22,3.29,6.93,6.93,0,0,0,.76,3.18A1.71,1.71,0,0,1,22,20.52,3,3,0,0,1,21.19,19.33Z"/><path class="cls-7" d="M17.45,11.11a5.76,5.76,0,0,1,3.62.42,4.45,4.45,0,0,1,2.51,2.78,4.57,4.57,0,0,1-.41,2.51,3.28,3.28,0,0,0,.58,2.75,4.24,4.24,0,0,1-2.47-1.3c-1.26-1.42-.94-3.94-2.34-5.22a5.28,5.28,0,0,0-3-1.11A2.16,2.16,0,0,1,17.45,11.11Z"/><path class="cls-9" d="M26.68,40.62,16.41,42.79c-.12-1.9-.2-3.52-.2-3.55l.17,0,1.74-.47,1.11-.29,2.26-.61,1.05-.27L24.61,37h0l.09.16.07.11C25.47,38.38,26.1,39.5,26.68,40.62Z"/><path class="cls-10" d="M15.34,43c0-1.31.41-4.4.41-4.47-.21-.37-.45-.88-.73-1.5l-.38-.92-.08-.2c-.44-1.09-.9-2.3-1.31-3.43-.33-.94-.64-1.8-.87-2.48-.11-.31-.2-.58-.27-.8s-.16-.42-.18-.51a1.59,1.59,0,0,1-.11-.77c.07-.84.84-1.26.18-2.46a12.06,12.06,0,0,1,1.94-1.59c.73-.51,1.39-.92,1.51-1a36.92,36.92,0,0,1,3.94-.41l.69.08c.74.08,1.44.12,2,.21h0a2.44,2.44,0,0,1,.34.08l.07,0,.05,0h0a21.79,21.79,0,0,1,.61,2.22h0c.15.67.28,1.4.4,2.15s.26,1.76.36,2.68l0,.2c0,.5.1,1,.14,1.51,0,.18,0,.35.05.52s0,.22,0,.33l.09,1.21a.91.91,0,0,0,0,.17c0,.13,0,.25,0,.37v.13h0c0,.54.06,1.08.08,1.61v.25c0,.12,0,.23,0,.34v0l.26.39,0,0a1,1,0,0,1,.08.11l.07.11c.54.8,1.45,2.19,2.07,3.31Z"/><path class="cls-10" d="M19.88,30.56a2.83,2.83,0,0,0,3.27,2.31c1.48-.31,2.33-1.27,2-3.14s-2.56-2.76-3.3-4.37C21.22,23.92,19.54,29,19.88,30.56Z"/><path class="cls-8" d="M22.65,32.31C24.21,32,25.11,31,24.79,29a2.65,2.65,0,0,0-.15-.57,3.12,3.12,0,0,1,.54,1.28c.3,1.87-.55,2.83-2,3.14a2.73,2.73,0,0,1-2.67-1A2.86,2.86,0,0,0,22.65,32.31Z"/><path class="cls-6" d="M20.09,22.62l-.43-1.85c-1.88-2.53-2.5-2.61-4.38-2.53l.17,4.65c2.05,3.65,4.12,7.41,6,7.84C22.18,28.41,21.44,25.62,20.09,22.62Z"/><path class="cls-6" d="M22.65,19.12c-.2.14-.46.12-.5.31a4.58,4.58,0,0,1-.48,1.49,1.61,1.61,0,0,1-1.64.91h-.21s-1.68-.05-2.48-2.31c-.07-.23-.14-.47-.2-.74A4.36,4.36,0,0,1,14.59,17c-.36-1-1.09-.24-1.09-1.27.23-4.71,3.54-4.42,5.28-4.39,4.54.31,3.85,4.62,3.54,5.66a2.89,2.89,0,0,0,.46,1.4C23,18.76,22.92,18.92,22.65,19.12Z"/><path class="cls-7" d="M18.93,11.65a.4.4,0,0,0-.1-.35c-.08-.07.05-.3-.06-.31A7,7,0,0,0,15,11.9a4.76,4.76,0,0,0-1.86,2c-.7,2-1.14,4.82,2.27,8.39a8.5,8.5,0,0,1,1.65-5,19,19,0,0,0,1.45-3.71A7.69,7.69,0,0,0,18.93,11.65Z"/><path class="cls-6" d="M15.85,17.23c0,.73.6,1.6,1.08,1.6s.44-.59.46-1.33c0-.48.15-1.18-.38-1.34S15.87,16.14,15.85,17.23Z"/><path class="cls-7" d="M16.23,14.47a1.87,1.87,0,0,1,.24-1.32c.34-.64.62-1.33,1.29-1.59s1.87-.64,2.41-.17,2,.73,2,1.63c.06,2.91-1.7,3.45-3.19,4-.91.32-1,1.33-1,2.43-.78-1.45-.3-2.11-.62-2.92S16.43,15.25,16.23,14.47Z"/><path class="cls-10" d="M21,30.73c1.6.25-.59,3.13-2.07,3.44a2.42,2.42,0,0,1-3.12-2.05c-.5-1.9,1.75-3.63,1.25-5.33C16.85,26.22,19.88,30.56,21,30.73Z"/><path class="cls-5" d="M20,21.83a.54.54,0,0,1-.25.42.6.6,0,0,1-.3.05,1.52,1.52,0,0,1-.7-.12,1.67,1.67,0,0,1-.35-.24,3.06,3.06,0,0,1-1.09-2.43c.8,2.26,2.48,2.31,2.48,2.31Z"/><path class="cls-5" d="M29.85,29a4.23,4.23,0,0,1-2.08-1.77,13.75,13.75,0,0,1-1.13-2.54,24.57,24.57,0,0,1,.1,3,4.89,4.89,0,0,1-.34,1.87,15.45,15.45,0,0,1-.49-2.7c-.05-.45-.11-.9-.16-1.35a3.82,3.82,0,0,0-.4-1.53A1.3,1.3,0,0,0,24,23.31l.61.38a1.79,1.79,0,0,1,.53.45,2,2,0,0,1,.27,1.15L25.49,28a11.8,11.8,0,0,0,.61,4.15.22.22,0,0,0,.1.14.26.26,0,0,0,.17,0l.53-.2c.05.09.09.18.13.27a5.3,5.3,0,0,0,2.44-.9,33,33,0,0,1,4-1.85C32.29,29.15,31,29.43,29.85,29Z"/><path class="cls-5" d="M32.52,29.9h3.93a13.29,13.29,0,0,0,3-.82,2,2,0,0,0,.91-.61.94.94,0,0,0,.12-.22c-.06.55-.13,1.1-.22,1.65h2.87c.2-1.29.34-2.6.42-3.84l-.36-.31a28.25,28.25,0,0,0,3.47,2.66c-.39.51-.76,1-1.12,1.49h1L48.43,27l-6.85-5.79-.92-.78c0,1,.06,2,.06,3v.07c0,.69-.57,3.14-1.26,3.8a4.22,4.22,0,0,1-1.76.9,14.55,14.55,0,0,1-2.91.57,2.1,2.1,0,0,1-1.06-.1,1.84,1.84,0,0,1-.65-.62A9.86,9.86,0,0,1,31.78,23a25.78,25.78,0,0,0,.57,6.91Z"/><path class="cls-5" d="M27.26,23l3.95-.11s.05,0,.06,0,0-.1-.09-.12a7.46,7.46,0,0,0-3.2-.34,1.16,1.16,0,0,0-.47.17A.52.52,0,0,0,27.26,23Z"/><path class="cls-5" d="M34.31,22.19a48.11,48.11,0,0,1,4.86-1.25,2.2,2.2,0,0,0-1.33-.3,5.73,5.73,0,0,0-1.35.3,21.28,21.28,0,0,0-3.25,1.32.54.54,0,0,0-.23.19c0,.09,0,.23.08.25a.31.31,0,0,0,.2-.07A4.62,4.62,0,0,1,34.31,22.19Z"/><path class="cls-4" d="M55.37,30.52V93.18c-3.61.3-7.15.44-10.58.48-10.5.11-20.12-.78-28.78-1.07h0a83.7,83.7,0,0,0-15.35.59V35a19.46,19.46,0,0,1,8.91-2.38c1.23-.09,2.47-.11,3.69-.09a4.68,4.68,0,0,1,.53,0H15l3,0h1.29c1.07,0,2.15-.07,3.22-.17.52,0,1.05-.12,1.57-.19s1.06-.18,1.58-.3a18.47,18.47,0,0,0,2-.6L28.4,31h0c.33-.14.66-.28,1-.44l.14-.07c1.76-.89,3.32-2.16,5.25-2.7,2.79-.79,5.72.06,8.48,1.1l.66.25,1.05.41c2.78,1.09,6,2.08,8.81,1.42a7.15,7.15,0,0,0,1.39-.48v.12Z"/><path class="cls-5" d="M31.16,35.76a3.22,3.22,0,0,1-1.11,1.18,5.16,5.16,0,0,1-3.51.49c-.63-.1-1.27-.25-1.9-.38A11.63,11.63,0,0,0,23,36.82c-1.22-.06-2.44.18-3.66.22-1.42.06-2.9-.16-4.3,0a5.71,5.71,0,0,0-1.56.41,4.29,4.29,0,0,1,1.18-1.33,3.94,3.94,0,0,1,.48-.31l-.56.11-1.34.26a1.34,1.34,0,0,0,.64-1.69,2.08,2.08,0,0,0-1.52-1.18c-.56-.12-1.16-.67-1.73-.58l-1-.15c1.23-.09,2.47-.11,3.69-.09-.33-.94-.64-1.8-.87-2.48l-.6-1.07,0-.08a4.17,4.17,0,0,1-.27-.85.86.86,0,0,1,.36-.08,2.79,2.79,0,0,1,1.46.56l4.15,2.82.74.5a12.26,12.26,0,0,0,1.14.73h0c.13.08.27.14.4.21a11.59,11.59,0,0,0,2.46.72c.68.14,1.36.29,2.05.42a27.27,27.27,0,0,0,5.9.64c.44,0,1,0,1.16.44A.94.94,0,0,1,31.16,35.76Z"/><path class="cls-6" d="M25.3,34.48v1.76h-1l-7.81.1a.62.62,0,0,1-.5-.27l-2-3.14-.27-.46L12.38,30l-.6-1.07,0-.08a4.17,4.17,0,0,1-.27-.85A2.75,2.75,0,0,1,12,25.47h0a9.1,9.1,0,0,1,4.29,3.69,1.63,1.63,0,0,1,.11.17l.19.32.55,1.13.22.45.05.09.6,1.24.22.44,6,1.27Z"/><path class="cls-6" d="M31,35.12c0-.2-.15-.31-.5-.32a.37.37,0,0,0,.27-.25c0-.26-.14-.35-.37-.37a13.45,13.45,0,0,1-3.05-.25h0l.08-.06a1.07,1.07,0,0,0,.49-.71c0-.61-.4-.32-.62-.07-.68.75-1.59.87-2.19,1.32a1.14,1.14,0,0,0-.07,1.9,3.68,3.68,0,0,0,1.68.63c.37.05.64.06.64.06l1.88-.24c.92-.17.87-.39.87-.39,0-.17-.18-.26-.35-.27l.15,0,.32-.06a.39.39,0,0,0,.26-.11.35.35,0,0,0,.11-.21.25.25,0,0,0-.22-.27C30.74,35.43,30.93,35.31,31,35.12Z"/><path class="cls-5" d="M50.58,32.9l-2.11.76a4.54,4.54,0,0,0,2,.44,14.6,14.6,0,0,0-6.36,3.83c-1.62,1.67-3,3.81-5.14,4.59a9.26,9.26,0,0,1-2.17.42,2.52,2.52,0,0,1-1.16,0,1.79,1.79,0,0,1-.84-2.31,4.86,4.86,0,0,1,1.81-2,22.22,22.22,0,0,0,4.63-4,23.3,23.3,0,0,0,2.65-5.42l1.05.41c2.78,1.09,6,2.08,8.81,1.42a6.58,6.58,0,0,1-3.21.93c-.39,0-.92.1-.92.49S50.19,32.93,50.58,32.9Z"/><path class="cls-6" d="M43.31,18l8.12,7.67a2.43,2.43,0,0,1,0,3.49,65.77,65.77,0,0,1-9.69,9.62L40.18,37c.79-1,3.82-6.88,5.54-9.14a17.63,17.63,0,0,1-2.55-2.11c-.77-.67-1.6-1.42-2.45-2.21a0,0,0,0,1,0,0h0l-3.44-3.21,2.08-2.83.42-.21h0A3.06,3.06,0,0,1,43.31,18Z"/><path class="cls-6" d="M43.31,18l8.12,7.67a2.43,2.43,0,0,1,0,3.49,65.77,65.77,0,0,1-9.69,9.62L40.18,37c.79-1,3.82-6.88,5.54-9.14a17.63,17.63,0,0,1-2.55-2.11c-.77-.67-1.6-1.42-2.45-2.21a0,0,0,0,1,0,0h0l-3.44-3.21,2.08-2.83.42-.21h0A3.06,3.06,0,0,1,43.31,18Z"/><path class="cls-6" d="M38.55,37a1.07,1.07,0,0,0-.14.16c-.19.22-.61.73-1,1.06s-.74.71-1.27,1.24c-.17.17-.8.83-1,1s-.28.87.22.8c-.52.57-.14,1,.47.74-.28.4.18.69.67.44l1.32-.71c-.19.27.06.58.72.14s1.37-.77,2-1.25v0a.15.15,0,0,0,.11,0l.28-.24a7.3,7.3,0,0,0,1.05-1A2.38,2.38,0,0,0,42.64,38a2.6,2.6,0,0,0-.14-.87,2.11,2.11,0,0,0-.33-.63,1.56,1.56,0,0,0-.83-.52h0l-.07,0h0a3.3,3.3,0,0,0-1.82-.27,2.58,2.58,0,0,0-1,.33c-.49.34-1.77.15-2,.17S35.84,37.52,38.55,37Z"/><path class="cls-5" d="M14.13,46.47c-.1-2.17.34-4.38-.2-6.48.43,3.09-1.69,6-1.52,9.17.15,2.75,2.11,5.15,4.48,6.56a25.58,25.58,0,0,0,7.83,2.58A12.61,12.61,0,0,1,14.13,46.47Z"/><path class="cls-5" d="M26.32,64.56a8.39,8.39,0,0,0,.54-4.46c-.51-2-2.42-3.34-4.24-4.37s-3.82-2-4.77-3.9c1,3.48,5.61,4.63,7.25,7.85,1.32,2.6.35,5.73-.79,8.41s-2.44,5.57-1.71,8.39Z"/><path class="cls-5" d="M22.16,66.56a21.3,21.3,0,0,0,1.65-1.91,3.69,3.69,0,0,0,.75-2.35,2.06,2.06,0,0,0-1.45-1.86c.62,2.11-.56,4.3-1.78,6.14s-2.58,3.82-2.37,6A14.79,14.79,0,0,1,22.16,66.56Z"/><path class="cls-5" d="M41.92,58.26a21.33,21.33,0,0,0,.25,12.31c-.7-5.2.74-10.45,2.63-15.34a34.36,34.36,0,0,0,2.36-7.41,9.12,9.12,0,0,0-1.8-7.33c1.28,2.82.85,6.14-.13,9.08S42.76,55.27,41.92,58.26Z"/><path class="cls-5" d="M41.06,83.91a52.6,52.6,0,0,1-.27-27.06C37.59,65.56,37,75.6,41.06,83.91Z"/><path class="cls-5" d="M44.83,91.7C46,88.25,45.21,84.43,44,81s-3-6.71-3.67-10.29C39.21,77.86,45.12,84.48,44.83,91.7Z"/><path class="cls-5" d="M35.21,58.15c.65-2.36,1.27-5,.16-7.18-1.42-2.79-4.95-3.6-7.45-5.48a14.66,14.66,0,0,1,5.76,11.15C33.84,62,31,67.18,31.3,72.56Q33.25,65.36,35.21,58.15Z"/><path class="cls-5" d="M26.2,40.44a17.12,17.12,0,0,0,8.8,8l-7.19-6.36C26.78,41.2,26.57,41.76,26.2,40.44Z"/><path class="cls-5" d="M16,92.59a83.7,83.7,0,0,0-15.35.59V37.56A57.88,57.88,0,0,0,4.49,52L2.82,50.92A46.16,46.16,0,0,0,5.33,75a16.05,16.05,0,0,1,1.38,4.7c.12,1.74-.44,3.48-.2,5.21.45,3.3,3.63,5.51,6.74,6.73.59.23,1.2.45,1.81.66Z"/><path class="cls-5" d="M55.37,42.17v51c-3.61.3-7.15.44-10.58.48.43-.48.87-.94,1.33-1.4,1.08-1.12,2.18-2.22,3.14-3.42a20.62,20.62,0,0,0,4.05-16.51l-2.84,3.52a65.74,65.74,0,0,0,3.58-26.46l-.58.8A66.75,66.75,0,0,0,55.37,42.17Z"/><path class="cls-5" d="M26.45,2.43a1.2,1.2,0,0,0,.48.65Z"/><rect class="cls-11" width="56.02" height="3.24"/><rect class="cls-11" y="92.05" width="56.02" height="3.24"/></g></g></svg>