<?xml version="1.0" encoding="utf-8"?>
<!-- Generator: Adobe Illustrator 23.0.3, SVG Export Plug-In . SVG Version: 6.00 Build 0)  -->
<svg version="1.1" id="Capa_1" xmlns="http://www.w3.org/2000/svg" xmlns:xlink="http://www.w3.org/1999/xlink" x="0px" y="0px"
	 viewBox="0 0 512 512" style="enable-background:new 0 0 512 512;" xml:space="preserve">
<style type="text/css">
	.st0{fill:#77455D;}
	.st1{fill:#5B3248;}
	.st2{fill:#5F7BA3;}
	.st3{fill:#CBE2FF;}
	.st4{fill:#4A5482;}
	.st5{fill:#86A0AF;}
	.st6{fill:#738B95;}
</style>
<path class="st0" d="M436.1,160.2c-0.7-27.2-15.4-52-38.9-65.7L329,54.9l-73,3.3l-73-3.3l-68.1,39.7c-23.5,13.7-38.2,38.5-38.9,65.7
	l-6.9,308h56.7v26.3c86.8,13.4,173.6,13.4,260.5,0v-26.3H443L436.1,160.2z"/>
<path class="st1" d="M305.7,69.2l68.1,39.7c23.5,13.7,38.2,38.5,38.9,65.7l6.6,293.8H443l-6.9-308c-0.7-27.2-15.4-52-38.9-65.7
	L329,54.9l-73,3.3L305.7,69.2z"/>
<path class="st2" d="M125.8,504.6H77.3c-5.1,0-9.2-4.2-9-9.3l0.7-27.1h56.7L125.8,504.6z"/>
<path class="st3" d="M386.2,504.6h48.5c5.1,0,9.2-4.2,9-9.3l-0.7-27.1h-56.7L386.2,504.6L386.2,504.6z"/>
<path class="st2" d="M386.2,504.6h48.5c5.1,0,9.2-4.2,9-9.3l-0.7-27.1h-56.7L386.2,504.6L386.2,504.6z"/>
<path class="st4" d="M443,468.3h-23.5l0.6,36.3h14.6c5.1,0,9.2-4.2,9-9.3L443,468.3z"/>
<path class="st2" d="M75.9,160.2l-0.6,28.6h361.4l-0.6-28.6c-0.1-5.1-0.8-10-1.8-14.9H77.8C76.7,150.2,76.1,155.2,75.9,160.2
	L75.9,160.2z"/>
<path class="st4" d="M434.2,145.4h-28c3.9,9.1,6.2,18.9,6.5,29.1l0.3,14.4h23.7C435.8,165.6,437,157.9,434.2,145.4z"/>
<path class="st2" d="M205.7,55.9l-22.7-1l-12.5,7.3v438.1c11.7,1.2,23.5,2.1,35.2,2.8L205.7,55.9L205.7,55.9z"/>
<path class="st2" d="M306.3,55.9v447.2c11.7-0.7,23.5-1.6,35.2-2.8V62.2L329,54.9L306.3,55.9z"/>
<path class="st2" d="M72.7,305.4h366.6l-1-43.5H73.6L72.7,305.4z"/>
<path class="st4" d="M415.6,305.4h23.7c-0.1-4.9-0.9-39.1-1-43.5h-23.7L415.6,305.4z"/>
<path class="st2" d="M70.1,422h371.8l-1-43.5H71L70.1,422z"/>
<g>
	<path class="st2" d="M418.2,422h23.7c-0.3-15.1-0.7-30.1-1-43.5h-23.7L418.2,422z"/>
	<path class="st2" d="M306.3,145.4h35.2v43.5h-35.2L306.3,145.4z"/>
	<path class="st2" d="M170.4,145.4h35.2v43.5h-35.2V145.4z"/>
	<path class="st2" d="M306.3,261.6h35.2v43.5h-35.2L306.3,261.6z"/>
	<path class="st2" d="M170.4,261.6h35.2v43.5h-35.2V261.6z"/>
	<path class="st2" d="M306.3,377.9h35.2v43.5h-35.2L306.3,377.9z"/>
	<path class="st2" d="M170.4,377.9h35.2v43.5h-35.2V377.9z"/>
	<path class="st2" d="M313.9,13.6c-38.6-8.6-77.2-8.6-115.9,0l-25.2,29c11.9,27.7,30.2,57,55.1,73.9l28.1-16.4l28.1,16.4
		c24.9-17,43.2-46.3,55.1-73.9L313.9,13.6z"/>
</g>
<path class="st5" d="M221,45.3c6.3,19,18.7,37.2,35,54.9c16.3-17.7,28.7-35.8,35-54.9C267.7,34.9,244.3,34.9,221,45.3z"/>
<path class="st6" d="M244.6,86.9c3.5,4.5,7.3,8.9,11.4,13.3c16.3-17.7,28.7-35.8,35-54.9c-9.4-4.2-18.9-6.7-28.3-7.5
	C261.7,51.2,257.8,70.5,244.6,86.9z"/>
<path d="M443.3,155.4c-2.2-28.2-17.8-53.2-42.4-67.5l-58.7-34.2c1.3-2.7,2.5-5.5,3.7-8.4c1.1-2.6,0.7-5.7-1.2-7.9l-25.2-29
	c-1.1-1.2-2.5-2.1-4-2.4c-14.6-3.3-29.5-5.3-44.1-6.2c-4.1-0.2-7.7,2.9-7.9,7.1c-0.2,4.1,2.9,7.7,7.1,7.9
	c13.1,0.8,26.3,2.5,39.3,5.3l20.4,23.5c-12.5,27.8-28.9,50.1-46.7,63.7l-15.9-9.3c14.8-17.3,24.8-33.9,30.3-50.5c0,0,0,0,0,0
	l3.8-10.6c1.4-3.9-0.6-8.2-4.5-9.6c-3.9-1.4-8.2,0.6-9.6,4.5l-1.2,3.3c-20.3-7.3-40.8-7.3-61.1,0l-1.2-3.3c-1.4-3.9-5.7-5.9-9.6-4.5
	c-3.9,1.4-5.9,5.7-4.5,9.6l3.8,10.6c0,0,0,0,0,0c5.5,16.6,15.5,33.1,30.3,50.4l-15.9,9.3c-17.8-13.5-34.2-35.9-46.7-63.7l20.4-23.5
	c13-2.8,26.3-4.6,39.3-5.3c4.1-0.2,7.3-3.8,7.1-7.9c-0.2-4.1-3.8-7.3-7.9-7.1c-14.7,0.8-29.5,2.9-44.1,6.2c-1.6,0.3-3,1.2-4,2.4
	l-25.2,29c-1.9,2.2-2.4,5.2-1.2,7.9c1.2,2.9,2.5,5.7,3.7,8.4l-58.7,34.2c-25.9,15.1-41.8,42-42.6,72C68,179.4,65,311.2,64.7,327.8
	c-0.1,4.1,3.2,7.6,7.3,7.7c0.1,0,0.1,0,0.2,0c4.1,0,7.4-3.3,7.5-7.3l0.3-15.4h38.2v58H78.7l0.3-12.6c0.1-4.1-3.2-7.6-7.3-7.7
	c-4.1,0-7.6,3.2-7.7,7.3c-0.9,23.8-2.6,100.5-3.2,137.1c-0.1,4.5,1.5,8.8,4.7,12c3.1,3.2,7.3,5,11.8,5h48.5c4.1,0,7.5-3.4,7.5-7.5
	v-1.3c39.3,5.6,79.9,8.8,122.7,8.8c42.7,0,83.4-3.1,122.7-8.8v1.3c0,4.1,3.4,7.5,7.5,7.5h48.5c4.5,0,8.7-1.8,11.8-5
	c3.1-3.2,4.8-7.5,4.7-12C451.2,494.8,443.5,156.9,443.3,155.4L443.3,155.4z M393.7,429.3h40.8l0.7,31.3h-41.5V429.3z M313.9,494.9
	v-65.6h20.2v64C327.3,493.9,320.6,494.4,313.9,494.9L313.9,494.9z M313.9,414.2v-28.5h20.2v28.5H313.9z M177.9,493.2v-64h20.2v65.6
	C191.4,494.4,184.7,493.9,177.9,493.2L177.9,493.2z M177.9,414.2v-28.5h20.2v28.5H177.9z M162.9,414.2h-29.6v-28.5h29.6V414.2z
	 M82.6,196.2h35.6v58H81.3L82.6,196.2z M84,152.7h78.9v28.5h-29.6v-4c0-4.1-3.4-7.5-7.5-7.5s-7.5,3.4-7.5,7.5v4H83
	C83.5,165,83.1,159.8,84,152.7L84,152.7z M198.1,99.1v38.6h-20.2v-68C184.6,81.5,191.5,91.2,198.1,99.1z M198.1,152.7v28.5h-20.2
	v-28.5H198.1z M313.9,99.1c6.7-7.9,13.5-17.5,20.2-29.4v68h-20.2L313.9,99.1z M334.1,152.7v28.5h-20.2v-28.5H334.1z M429,181.1
	h-35.3v-4c0-4.1-3.4-7.5-7.5-7.5c-4.1,0-7.5,3.4-7.5,7.5v4h-29.6v-28.5H428C428.9,159.9,428.5,165.4,429,181.1L429,181.1z
	 M431.3,281.2l0.4,16.5h-37.9v-28.5H431L431.3,281.2z M378.7,297.7h-29.6v-28.5h29.6V297.7z M349.1,254.2v-58h29.6v58H349.1z
	 M334.1,254.2h-20.2v-58h20.2L334.1,254.2z M334.1,269.2v28.5h-20.2v-28.5H334.1z M298.8,297.7h-85.7v-28.5h85.7V297.7z
	 M298.8,312.7v58h-85.7v-58H298.8z M313.9,312.7h20.2v58h-20.2V312.7z M349.1,312.7h29.6v58h-29.6V312.7z M393.7,312.7H432l1.3,58
	h-39.5V312.7z M430.7,254.2h-36.9v-58h35.6L430.7,254.2z M298.8,181.1H271c-4.1,0-7.5,3.4-7.5,7.5s3.4,7.5,7.5,7.5h27.8v58h-85.7
	v-58H241c4.1,0,7.5-3.4,7.5-7.5s-3.4-7.5-7.5-7.5h-27.8v-28.5h85.7V181.1z M198.1,254.2h-20.2v-58h20.2V254.2z M133.3,196.2h29.6v58
	h-29.6V196.2z M162.9,269.2v28.5h-29.6v-28.5H162.9z M177.9,269.2h20.2v28.5h-20.2V269.2z M198.1,312.7v58h-20.2v-58H198.1z
	 M213.2,385.8h85.7v28.5h-85.7V385.8z M349.1,385.8h29.6v28.5h-29.6V385.8z M393.7,385.8h39.9l0.6,28.5h-40.5L393.7,385.8z
	 M424.3,137.6h-75.2V75.1l44.3,25.8C408,109.4,418.7,122.4,424.3,137.6L424.3,137.6z M281.4,49.3C276.1,62.1,267.7,75,256,88.7
	c-11.7-13.6-20.1-26.6-25.4-39.4C247.6,43.2,264.4,43.2,281.4,49.3z M223.7,122.6c2.4,1.6,5.5,1.7,8,0.3l24.3-14.2l24.3,14.2
	c1.2,0.7,2.5,1,3.8,1c1.5,0,3-0.4,4.2-1.3c3.3-2.2,6.8-4.9,10.5-8.2v23.3h-85.7v-23.3C216.9,117.6,220.5,120.3,223.7,122.6
	L223.7,122.6z M118.6,100.9l44.3-25.8v62.6H87.7C93.3,122.4,104,109.4,118.6,100.9z M80.4,297.7l0.5-21.4l0.2-7h37.3v28.5H80.4z
	 M133.3,312.7h29.6v58h-29.6V312.7z M118.3,414.2H77.8l0.6-28.5h39.9V414.2z M118.3,429.3v31.3H76.7l0.7-31.3H118.3z M118.3,496.9
	H77.3c-0.5,0-0.9-0.2-1.1-0.5c-0.2-0.2-0.4-0.6-0.4-1.1l0.5-19.8h41.9L118.3,496.9z M133.3,429.3h29.6v62.5
	c-9.9-1.1-19.8-2.4-29.6-3.8V429.3z M213.2,495.8v-66.5h85.7v66.5C270.3,497.2,241.7,497.2,213.2,495.8z M349.1,491.7v-62.5h29.6
	v58.7C368.9,489.4,359,490.6,349.1,491.7z M435.8,496.4c-0.2,0.2-0.6,0.5-1.1,0.5h-40.9v-21.3h41.9l0.5,19.8
	C436.2,495.9,436,496.2,435.8,496.4z"/>
<path d="M256,174.6c4.1,0,7.5-3.4,7.5-7.5v-1.2c0-4.1-3.4-7.5-7.5-7.5c-4.1,0-7.5,3.4-7.5,7.5v1.2
	C248.5,171.2,251.9,174.6,256,174.6L256,174.6z"/>
<path d="M256,217c-4.1,0-7.5,3.4-7.5,7.5v1.2c0,4.1,3.4,7.5,7.5,7.5c4.1,0,7.5-3.4,7.5-7.5v-1.2C263.5,220.4,260.1,217,256,217
	L256,217z"/>
<path d="M256,291.8c4.1,0,7.5-3.4,7.5-7.5v-1.2c0-4.1-3.4-7.5-7.5-7.5c-4.1,0-7.5,3.4-7.5,7.5v1.2
	C248.5,288.5,251.9,291.8,256,291.8L256,291.8z"/>
<path d="M256,350.5c4.1,0,7.5-3.4,7.5-7.5v-1.2c0-4.1-3.4-7.5-7.5-7.5c-4.1,0-7.5,3.4-7.5,7.5v1.2
	C248.5,347.1,251.9,350.5,256,350.5L256,350.5z"/>
<path d="M256,393c-4.1,0-7.5,3.4-7.5,7.5v1.2c0,4.1,3.4,7.5,7.5,7.5c4.1,0,7.5-3.4,7.5-7.5v-1.2C263.5,396.3,260.1,393,256,393
	L256,393z"/>
</svg>
