<svg xmlns="http://www.w3.org/2000/svg" xmlns:xlink="http://www.w3.org/1999/xlink" viewBox="0 0 276.36 331.62"><defs><style>.cls-1,.cls-7{fill:none;}.cls-2{isolation:isolate;}.cls-3,.cls-6{fill:#d0c3a0;}.cls-3{stroke:#bbad72;}.cls-16,.cls-3,.cls-7,.cls-8{stroke-linecap:round;stroke-linejoin:round;stroke-width:2.02px;}.cls-4{fill:#bbad72;}.cls-5{fill:#daceb8;opacity:0.38;}.cls-19,.cls-22,.cls-5{mix-blend-mode:screen;}.cls-6{opacity:0.5;}.cls-15,.cls-21,.cls-6{mix-blend-mode:multiply;}.cls-7{stroke:#2f292b;}.cls-8,.cls-9{fill:#f6d685;}.cls-16,.cls-8{stroke:#c29a64;}.cls-10{fill:#c29a64;}.cls-11{clip-path:url(#clip-path);}.cls-12{fill:#2f292b;}.cls-13{fill:#6f412c;}.cls-14{fill:#a3552b;}.cls-15,.cls-21{fill:#e4b056;}.cls-15{opacity:0.7;}.cls-16{fill:#fcefdd;}.cls-17{fill:#9b671a;}.cls-18,.cls-19,.cls-22{fill:#fff;}.cls-19{opacity:0.63;}.cls-20{clip-path:url(#clip-path-2);}.cls-21{opacity:0.54;}.cls-22{opacity:0.45;}</style><clipPath id="clip-path"><path class="cls-1" d="M207.3,48.17C184.71,21.61,177.18,3,146.48,8.4s-57,33-44,70.87,62.84,79.57,59.08,125.52a98.15,98.15,0,0,1-1.41,10.47c-2.63,16-10.55,25.28-10.55,25.28A43,43,0,0,1,136.13,252c-14.71,8.1-35.88,9.57-64.08,5a53.05,53.05,0,0,1-10.2-2.61c-30-11.21-10-43.53,33.37-26.22a178.53,178.53,0,0,0,54.36,12.33s7.92-9.33,10.55-25.28a213.88,213.88,0,0,1-64.91-21c-40.63-20.54-85.72.3-92.38,28.53a41.5,41.5,0,0,0-.79,4.43c-3.58,27.28,17.7,58.52,57,67.63,40.55,9.42,105.81-6.23,119.66-42.13.29-.76.57-1.53.81-2.31q1.66-5.27,2.77-10.23a102.68,102.68,0,0,0,2.52-23.06c-.16-20.71-7.05-37-13.68-50.56-9.85-20.05-26.65-42.27-25.49-56.38,0,0,16.22,12.91,34.46,10.21a25.27,25.27,0,0,0,7.34.86c4.18-.15,9.1-1.55,11.85-6.61C224.27,113.14,229.52,74.31,207.3,48.17Z"/></clipPath><clipPath id="clip-path-2"><path class="cls-1" d="M215.4,213.5l-.51.13c.23,4,.32,8.18.22,12.48-.08,3.5-.3,6.94-.68,10.3a55.7,55.7,0,0,1,9.08-.39c18,1.2,20,15.61,11.3,32.13-7.7,14.62-28.56,19.12-45.9,21.21-1.48.25-3,.49-4.55.7l.31-.22-2.28.23c-13.15,1.3-36.25,7.34-49.31,19.67-5.06,4.78-8.61,10.5-9.48,17.26-.58,4.51,2.32,5.11,5.21,0s9.85-16.21,44-14.41,96.44-10.21,101.07-54.95S243.2,206,215.4,213.5Z"/></clipPath></defs><title>Asset 1</title><g class="cls-2"><g id="Layer_2" data-name="Layer 2"><g id="Layer_1-2" data-name="Layer 1"><path class="cls-3" d="M230.46,258.54c2.11,11.31-9.4,25.32-41.55,30.82,17.34-2.09,38.2-6.59,45.9-21.21,8.68-16.52,6.66-30.93-11.3-32.13a55.7,55.7,0,0,0-9.08.39,93.39,93.39,0,0,1-2.16,12.15C223,248.38,229,250.93,230.46,258.54Z"/><path class="cls-3" d="M149.58,240.54a178.53,178.53,0,0,1-54.36-12.33c-43.35-17.31-63.42,15-33.37,26.22-3.76-2.55-5.94-5.71-5.29-9.63,2.89-17.42,29.4-5.18,47.64.53A193,193,0,0,0,136.13,252,43,43,0,0,0,149.58,240.54Z"/><path class="cls-3" d="M214.89,213.63c-1.81-30.82-12.69-53.67-20.63-70.4-5-10.64-6.52-17.76-6.85-22a25.27,25.27,0,0,1-7.34-.86c-18.24,2.7-34.46-10.21-34.46-10.21-1.16,14.11,15.64,36.33,25.49,56.38,6.63,13.51,13.52,29.85,13.68,50.56a102.68,102.68,0,0,1-2.52,23.06q-1.11,5-2.77,10.23c-.24.78-.52,1.55-.81,2.31C164.83,288.64,99.57,304.29,59,294.87c-39.27-9.11-60.55-40.35-57-67.63-4.22,20,4.8,44,20.48,58C44.77,305.11,89.19,317,133.08,309.74c13.06-12.33,36.16-18.37,49.31-19.67l2.28-.23c15-10.9,23.57-25,27.6-41.28a93.39,93.39,0,0,0,2.16-12.15c.38-3.36.6-6.8.68-10.3C215.21,221.81,215.12,217.65,214.89,213.63Z"/><path class="cls-4" d="M176.85,146.18c-10.16,0-20.43-5.48-20.6-5.56a.47.47,0,0,1-.18-.61.42.42,0,0,1,.58-.19c.25.13,25,13.34,35.06-1.77a.43.43,0,0,1,.6-.11.46.46,0,0,1,.12.62C188.59,144.34,182.74,146.18,176.85,146.18Z"/><path class="cls-4" d="M188.87,174.73c-8.1,0-15.89-3.66-16-3.73a.46.46,0,0,1-.21-.59.42.42,0,0,1,.58-.22c.23.11,23,10.81,30.47-5a.42.42,0,0,1,.58-.2.46.46,0,0,1,.2.6C201.13,172.69,194.91,174.73,188.87,174.73Z"/><path class="cls-4" d="M197,202.23A39.22,39.22,0,0,1,182.62,199a.45.45,0,0,1-.22-.59.43.43,0,0,1,.57-.23c.13.05,12.9,5.73,21.54,1.6,3.38-1.61,5.71-4.54,6.94-8.7a.44.44,0,0,1,.54-.3.46.46,0,0,1,.29.57c-1.3,4.41-3.8,7.53-7.41,9.25A18.22,18.22,0,0,1,197,202.23Z"/><path class="cls-4" d="M198.36,227a42.6,42.6,0,0,1-13.93-2.56.45.45,0,0,1-.25-.59.44.44,0,0,1,.56-.26c.2.09,20.64,8.09,30-4.88a.43.43,0,0,1,.61-.09.47.47,0,0,1,.09.63C211.06,225.31,204.39,227,198.36,227Z"/><path class="cls-4" d="M193.85,258.31a26.56,26.56,0,0,1-15.45-5.22.46.46,0,0,1-.06-.63.41.41,0,0,1,.61-.07c.15.12,15.83,12.75,32.62-2.57a.43.43,0,0,1,.62,0,.47.47,0,0,1,0,.64C205.63,256.44,199.26,258.31,193.85,258.31Z"/><path class="cls-4" d="M182.2,285.14a31.69,31.69,0,0,1-22.68-9.05.45.45,0,0,1,0-.63.41.41,0,0,1,.61,0c.12.13,11.7,13,32.32,7.3a.43.43,0,0,1,.53.33.46.46,0,0,1-.31.55A39.7,39.7,0,0,1,182.2,285.14Z"/><path class="cls-4" d="M147,300.74h0c-9.53-.32-14.16-11.09-14.21-11.2A.46.46,0,0,1,133,289a.43.43,0,0,1,.57.23c0,.11,4.47,10.36,13.44,10.66a.45.45,0,0,1,.42.47A.44.44,0,0,1,147,300.74Z"/><path class="cls-4" d="M117.72,312h-.1c-15-3.31-14.47-15.57-14.46-15.69a.43.43,0,0,1,.46-.42.43.43,0,0,1,.4.47c0,.47-.44,11.61,13.79,14.76a.46.46,0,0,1,.33.54A.44.44,0,0,1,117.72,312Z"/><path class="cls-4" d="M77.55,309.76a.45.45,0,0,1-.19-.05c-8.86-4.69-7.54-12.93-7.53-13a.42.42,0,0,1,.5-.36.45.45,0,0,1,.36.52c-.06.31-1.21,7.67,7.06,12.05a.44.44,0,0,1,.19.6A.44.44,0,0,1,77.55,309.76Z"/><path class="cls-4" d="M45.1,299.9a.44.44,0,0,1-.33-.16A13.73,13.73,0,0,1,41.53,289a.45.45,0,0,1,.52-.35.45.45,0,0,1,.33.54,13,13,0,0,0,3,10,.45.45,0,0,1,0,.63A.38.38,0,0,1,45.1,299.9Z"/><path class="cls-4" d="M17.87,281a.43.43,0,0,1-.4-.29c-1.95-5.51,0-9,0-9.14a.43.43,0,0,1,.59-.16.45.45,0,0,1,.16.61s-1.76,3.29,0,8.38A.46.46,0,0,1,18,281,.39.39,0,0,1,17.87,281Z"/><path class="cls-4" d="M56.46,246.33a.44.44,0,0,1-.44-.44c-.22-8.67-7.92-8.79-8.25-8.8a.44.44,0,0,1-.43-.45.44.44,0,0,1,.43-.45s8.88.08,9.12,9.68a.43.43,0,0,1-.42.46Z"/><path class="cls-4" d="M60.61,238.25a.43.43,0,0,1-.26-.09.47.47,0,0,1-.08-.64c4.17-5.59,1-12.72.95-12.79a.46.46,0,0,1,.21-.6.43.43,0,0,1,.58.21c0,.08,3.45,7.7-1.06,13.73A.41.41,0,0,1,60.61,238.25Z"/><path class="cls-4" d="M76,237.09a.38.38,0,0,1-.28-.11.45.45,0,0,1,0-.63c4.89-5.78,1.56-12.86,1.53-12.94a.45.45,0,0,1,.19-.6.43.43,0,0,1,.58.2c0,.07,3.64,7.69-1.65,13.93A.43.43,0,0,1,76,237.09Z"/><path class="cls-4" d="M92.09,241.71a.42.42,0,0,1-.39-.24.46.46,0,0,1,.19-.61c7.18-3.73,4.94-11.65,4.92-11.73a.46.46,0,0,1,.29-.57.44.44,0,0,1,.54.3c0,.09,2.47,8.74-5.36,12.81A.43.43,0,0,1,92.09,241.71Z"/><path class="cls-4" d="M118.76,249.52a.44.44,0,0,1-.3-.12.46.46,0,0,1,0-.63,15.73,15.73,0,0,0,3.64-12.05.46.46,0,0,1,.35-.52.45.45,0,0,1,.51.36,16.36,16.36,0,0,1-3.86,12.81A.42.42,0,0,1,118.76,249.52Z"/><path class="cls-4" d="M220,249.52h0a.45.45,0,0,1-.43-.46c0-.42.2-10.37,5-13.32a.43.43,0,0,1,.6.15.47.47,0,0,1-.15.62c-4.36,2.7-4.55,12.47-4.55,12.57A.44.44,0,0,1,220,249.52Z"/><path class="cls-4" d="M230.46,259h-.08a.44.44,0,0,1-.34-.52c.07-.42,1.94-10.27,9.15-12a.43.43,0,0,1,.52.34.45.45,0,0,1-.32.54c-6.67,1.6-8.48,11.19-8.5,11.28A.44.44,0,0,1,230.46,259Z"/><path class="cls-4" d="M228.81,269a.43.43,0,0,1-.31-.13.45.45,0,0,1,0-.63,15.44,15.44,0,0,1,8.08-4.37.45.45,0,0,1,.11.89c-4.25.62-7.54,4.07-7.57,4.1A.44.44,0,0,1,228.81,269Z"/><path class="cls-4" d="M221.34,277.54a.43.43,0,0,1-.34-.16.48.48,0,0,1,.06-.64,11.55,11.55,0,0,1,8.76-2.36.45.45,0,0,1-.14.89,10.87,10.87,0,0,0-8.07,2.17A.39.39,0,0,1,221.34,277.54Z"/><path class="cls-5" d="M174.26,127.65c-11.62-1.33-15.15,5.52-8.32,11.69s18.46,2.68,20.2,0S187.14,129.11,174.26,127.65Z"/><path class="cls-5" d="M183.32,146.79c-17,0-9.91,10.5-5.65,18.62s24.77,6.08,19.66-4.36S190.5,146.8,183.32,146.79Z"/><path class="cls-5" d="M193.74,177.19c-7.14,1-10.06-.05-9.16,7.3s4.52,16,13.56,15.09,7.13-10.73,5.92-15.09S201,176.21,193.74,177.19Z"/><path class="cls-5" d="M199.85,204c-9,1.69-8.93,2.63-9.15,7.06s-.17,12.26,9.15,11.61,9.31-6.81,9.31-11.61S206,202.85,199.85,204Z"/><path class="cls-5" d="M199.85,229.93c-5.26.12-10.53,0-13.32,8.89s-1.28,14.8,6.66,15.21,12.5-7.25,14.24-14.23S205,229.81,199.85,229.93Z"/><path class="cls-5" d="M187.7,261.51c-7.8-1.05-11,1.53-14.29,6s-7.58,10.72-1.23,12.1c13.5,2.92,19.62-5.12,22.24-9C199.06,263.7,196.48,262.7,187.7,261.51Z"/><path class="cls-5" d="M162.25,282.82c-5-1.29-10.21,3-16.51,5.34s-5.21,6.74,0,6.67,16.7-5.35,20.85-5.75C176.22,288.16,165.94,283.78,162.25,282.82Z"/><path class="cls-5" d="M122.64,296.78c-6.48,1.15-13.46,3.29-11.14,6.26s17.52-2.39,20.12-2.75S134.07,294.75,122.64,296.78Z"/><path class="cls-5" d="M90.57,301.51c-5.42-.34-14.77.57-4.34,2.43S101.22,302.19,90.57,301.51Z"/><path class="cls-1" d="M165.06,293.44c-2,.55-4,1.17-6,1.85C160.94,294.78,162.92,294.18,165.06,293.44Z"/><path class="cls-6" d="M135.1,292.73s1.09,3.83,2.17,6.72-6.73,9-18.51,8.4-15.12-10.29-15.12-10.29-.69,10.93-14.56,10.26-18.9-10.26-18.9-10.26c-1.07,5.5-7,4.63-17,1.89s-11.33-9.74-11.33-9.74c-1.78,4-14.31-.36-18.64-7.12s-5.37-10.75-5.37-10.75v0C5.74,258.71.06,242.37,2.05,227.24c-4.22,20,4.8,44,20.48,58C44.77,305.11,89.19,317,133.08,309.74c6.86-6.48,16.5-11.22,26-14.45C138.23,301,135.1,292.73,135.1,292.73Z"/><path class="cls-3" d="M165.09,293.44h0a105,105,0,0,1,17.33-3.37l2.28-.23a69.79,69.79,0,0,0,21.24-24.32C198.12,276.8,184.89,286.6,165.09,293.44Z"/><path class="cls-6" d="M156.45,124.38c2.17-3.26,4.2,0,18.28,0a20.49,20.49,0,0,1,14.57,6.24,45.77,45.77,0,0,1-1.89-9.35,25.27,25.27,0,0,1-7.34-.86c-18.24,2.7-34.46-10.21-34.46-10.21-1.16,14.11,15.64,36.33,25.49,56.38C161,146.36,154.29,127.65,156.45,124.38Z"/><path class="cls-6" d="M228.81,274.7c-1.79-4,6.07-10,6.07-10-3-.59-2-2.86-1.1-7.59a38.1,38.1,0,0,1,3.34-9.39s-7.11,0-11.58-2.4a5.69,5.69,0,0,1-3.21-6.54c-2.11,2.27-5.19,3.62-8.9,4.35-.34,1.82-.72,3.62-1.16,5.39,10.68-.18,16.77,2.37,18.19,10,2.11,11.31-9.4,25.32-41.55,30.82,10.49-1.26,22.27-3.41,31.64-8.15A11.62,11.62,0,0,1,228.81,274.7Z"/><path class="cls-6" d="M124.75,244.46c-.15-2.86-2.11-6.66-2.11-6.66a6.41,6.41,0,0,1-3.88,5.06c-3.66,1.65-18.92-3.36-19.21-5.41a39.92,39.92,0,0,0-2-6.28c.19,5.77-15.4,3.53-16.12.67a21.11,21.11,0,0,0-3-6c.43,8.56-12.6,7.51-13.18,5.33a13.26,13.26,0,0,0-2.92-4.59c.55,6-4.9,9.32-8.2,9.38a11.59,11.59,0,0,0-4.84.86s5.9,4,4.67,9.06a3.71,3.71,0,0,1-2.06,2.57,28,28,0,0,0,10,6c-3.76-2.55-5.94-5.71-5.29-9.63,2.89-17.42,29.4-5.18,47.64.53A193,193,0,0,0,136.13,252a43.81,43.81,0,0,0,8.66-6.24C135.47,250.1,124.86,246.82,124.75,244.46Z"/><path class="cls-7" d="M184.36,290.06c1.56-.21,3.07-.45,4.55-.7-1.44.18-2.86.33-4.24.48Z"/><path class="cls-8" d="M215.4,213.5l-.51.13c.23,4,.32,8.18.22,12.48-.08,3.5-.3,6.94-.68,10.3a55.7,55.7,0,0,1,9.08-.39c18,1.2,20,15.61,11.3,32.13-7.7,14.62-28.56,19.12-45.9,21.21-1.48.25-3,.49-4.55.7l.31-.22-2.28.23c-13.15,1.3-36.25,7.34-49.31,19.67-5.06,4.78-8.61,10.5-9.48,17.26-.58,4.51,2.32,5.11,5.21,0s9.85-16.21,44-14.41,96.44-10.21,101.07-54.95S243.2,206,215.4,213.5Z"/><path class="cls-9" d="M207.3,48.17C198.61,38,192.15,28.93,185.74,22c-3.63-8.8-12-25-23.27-20.84A10.3,10.3,0,0,0,156,7.49a56.86,56.86,0,0,0-9.52.91,63.88,63.88,0,0,0-13.59,4c-4-1.71-9.19-3-13-.28-3.47,2.48-5.21,7.32-5.75,12.53-13.08,12.75-19.53,31.84-11.68,54.64,13,37.84,62.84,79.57,59.08,125.52a98.15,98.15,0,0,1-1.41,10.47,213.88,213.88,0,0,1-64.91-21c-40.63-20.54-85.72.3-92.38,28.53a41.5,41.5,0,0,0-.79,4.43c-3.58,27.28,17.7,58.52,57,67.63,40.55,9.42,105.81-6.23,119.66-42.13.29-.76.57-1.53.81-2.31q1.66-5.27,2.77-10.23a102.68,102.68,0,0,0,2.52-23.06c-.16-20.71-7.05-37-13.68-50.56-9.85-20.05-26.65-42.27-25.49-56.38,0,0,16.22,12.91,34.46,10.21a25.27,25.27,0,0,0,7.34.86c4.18-.15,9.1-1.55,11.85-6.61C224.27,113.14,229.52,74.31,207.3,48.17ZM136.13,252c-14.71,8.1-35.88,9.57-64.08,5a53.05,53.05,0,0,1-10.2-2.61c-30-11.21-10-43.53,33.37-26.22a178.53,178.53,0,0,0,54.36,12.33A43,43,0,0,1,136.13,252Z"/><path class="cls-10" d="M84.37,298a113.85,113.85,0,0,1-25.45-2.67C40.52,291,24.61,281.4,14.13,268.16c-9.75-12.33-14.31-27.26-12.51-41a41.21,41.21,0,0,1,.8-4.48c2.86-12.14,12.68-23.08,26.93-30,20.34-9.89,45-9.45,66.06,1.19a212.3,212.3,0,0,0,64.38,20.87c.59-3.25,1-6.61,1.31-10,2.34-28.48-15.85-55.07-33.44-80.79C117,108.41,107,93.73,102.05,79.42c-7.13-20.7-2.87-40.74,11.68-55,.46-4.22,1.87-9.78,5.92-12.68,3-2.13,6.77-1.9,10.12-1h0a12.92,12.92,0,0,1,1.79.59c.44.16.88.33,1.29.51A64.25,64.25,0,0,1,146.41,8,57.26,57.26,0,0,1,155.7,7a11.08,11.08,0,0,1,1.2-2.26l0,0a11.3,11.3,0,0,1,5.4-4c11.38-4.22,19.77,11.32,23.77,21,3.55,3.85,7,8.22,11.05,13.29,3.24,4.08,6.61,8.31,10.47,12.86,12.95,15.22,17.67,36.63,11.47,52.05-3.68,9.16-10.63,14.53-19.57,15.16-2.34,4.14-6.51,6.42-12.09,6.63a25.84,25.84,0,0,1-7.39-.85c-16.13,2.34-30.82-7.49-34-9.83-.33,9.67,7.32,22.93,15.4,37,3.5,6.07,7.12,12.35,10.08,18.39,7,14.33,13.58,30.4,13.73,50.76a102.86,102.86,0,0,1-2.53,23.16c-.75,3.38-1.68,6.83-2.77,10.27-.23.71-.5,1.47-.83,2.34-6.41,16.62-24.2,30.23-50.09,38.32A152.84,152.84,0,0,1,84.37,298ZM60.77,186.47a71,71,0,0,0-31.05,7c-14,6.82-23.66,17.54-26.46,29.41-.31,1.34-.57,2.78-.78,4.39C.71,240.77,5.2,255.46,14.8,267.58c10.36,13.09,26.1,22.63,44.32,26.86,42.56,9.87,105.9-7.51,119.15-41.87.33-.84.59-1.59.81-2.28,1.08-3.41,2-6.84,2.75-10.19a102.22,102.22,0,0,0,2.51-22.95c-.15-20.18-6.64-36.13-13.63-50.37-3-6-6.57-12.27-10.06-18.33-8.38-14.54-16.3-28.27-15.47-38.29a.44.44,0,0,1,.25-.37.41.41,0,0,1,.44,0C146,110,162.16,122.6,180,120a.43.43,0,0,1,.19,0,24.87,24.87,0,0,0,7.2.84c5.43-.2,9.29-2.34,11.48-6.38a.41.41,0,0,1,.35-.23c8.71-.53,15.48-5.72,19.06-14.62,6.07-15.12,1.42-36.14-11.32-51.12h0c-3.88-4.55-7.24-8.79-10.49-12.88-4-5.08-7.52-9.46-11.06-13.3a.47.47,0,0,1-.08-.14c-3.88-9.4-12-24.57-22.72-20.59a10.29,10.29,0,0,0-5,3.66l0,0c-1.43,2.42-1.73,5.83-1.73,8.28a29.13,29.13,0,0,0,.16,3.11.13.13,0,0,1,0,.06.44.44,0,0,1-.38.45.44.44,0,0,1-.49-.39,29.08,29.08,0,0,1-.18-3.26A23,23,0,0,1,155.65,8a56,56,0,0,0-9.1.89,64.4,64.4,0,0,0-12.68,3.62,34.76,34.76,0,0,1,7.9,6.28.47.47,0,0,1,.12.31.47.47,0,0,1-.14.33.44.44,0,0,1-.62,0c0-.06-4.67-5.1-9.91-7.17-3.51-1.28-7.86-2-11.08.29-2.32,1.65-4,4.64-5,8.58a26.12,26.12,0,0,0-.61,5.87,53.78,53.78,0,0,0,3.25,17,.55.55,0,0,1,0,.17.45.45,0,0,1-.27.42.43.43,0,0,1-.57-.25A53.66,53.66,0,0,1,113.69,27c0-.45,0-.9,0-1.35-14,14.16-17.85,33.09-10.84,53.45,4.89,14.19,14.9,28.82,25.5,44.32,17.68,25.85,36,52.58,33.6,81.39a102.24,102.24,0,0,1-1.41,10.51.46.46,0,0,1-.49.37,213.19,213.19,0,0,1-65-21A76.17,76.17,0,0,0,60.77,186.47ZM100.53,260A181.32,181.32,0,0,1,72,257.48a53.93,53.93,0,0,1-10.28-2.63c-8.36-3.11-13.5-8-14.48-13.9-.73-4.38,1.12-8.82,5.06-12.17,7-6,22.05-9.39,43.09-1a176.82,176.82,0,0,0,54.23,12.31.41.41,0,0,1,.36.26.46.46,0,0,1-.05.47,43.74,43.74,0,0,1-13.59,11.57h0C127.09,257.49,115.26,260,100.53,260ZM71.86,223.67c-8.66,0-15.12,2.49-19,5.81-3.69,3.14-5.43,7.27-4.75,11.32.9,5.43,6,10.25,13.91,13.21a53,53,0,0,0,10.12,2.58c28.52,4.59,49.39,3,63.8-5h0a43,43,0,0,0,12.79-10.68,179.83,179.83,0,0,1-53.65-12.3C86.17,225.08,78.39,223.67,71.86,223.67Z"/><g class="cls-11"><path class="cls-12" d="M136.88,111.7c-.2-.37-.45-.76-.62-1s-.37-.55-.55-.79a7.6,7.6,0,0,0-1-1.2,2.7,2.7,0,0,0-1.79-.91c-1,0-1.5,1.31-.74,3.7a8,8,0,0,0,.87,1.76,13.68,13.68,0,0,0,1.4,1.76,9.94,9.94,0,0,0,3,2.32C139.13,118,139.82,116.82,136.88,111.7Z"/><path class="cls-13" d="M135.84,111.28c-1-1.83-2-2.65-2.68-2.63s-1,.9-.49,2.52a5.09,5.09,0,0,0,.58,1.2c.12.19.26.37.4.56l.5.58a7.06,7.06,0,0,0,2,1.58C137.36,115.59,137.83,114.76,135.84,111.28Z"/><path class="cls-12" d="M95.46,274.29c3.53.46,5.76-.19,6.39-1.06s-.31-2-3-2.72a13.3,13.3,0,0,0-8.07.66C89.14,272,89.53,273.47,95.46,274.29Z"/><path class="cls-13" d="M96.22,273.89c2.56.29,4.17-.11,4.63-.66s-.22-1.26-2.17-1.72a10.85,10.85,0,0,0-5.88.42C91.59,272.48,91.91,273.38,96.22,273.89Z"/><path class="cls-12" d="M154.82,149.43c-4.09-8.13-10.17-9-13.36-15s-16.61-18.16-9.48,4c3.58,11,5.44,14.25,7.59,15.94s4.55,1.67,8.65,5.7,7.45,5.39,9.11,3.79S158.8,157.4,154.82,149.43Z"/><path class="cls-13" d="M152.34,148.88c-3.37-6.64-8.1-7.44-10.72-12.44s-13.34-15-7.27,3c3,9,4.56,11.68,6.28,13.09s3.58,1.46,6.89,4.83,6,4.49,7.22,3.18S155.62,155.4,152.34,148.88Z"/><path class="cls-14" d="M151.5,149.41c-2.6-5.15-6.27-5.78-8.29-9.65s-10.33-11.55-5.64,2.36c2.31,6.92,3.5,9,4.84,10.15s2.77,1.14,5.36,3.76,4.7,3.48,5.63,2.45S154,154.46,151.5,149.41Z"/><path class="cls-12" d="M168.09,202c-.64-8-2.88-13.61-4.72-16.17-.94-1.28-1.8-1.77-2.54-1.41s-1.37,1.6-2.08,3.66a49.11,49.11,0,0,0-2.51,10,12.18,12.18,0,0,0,.25,5.57c.21.47.61,1.18,1.07,2.1.22.46.46,1,.69,1.51.11.28.23.56.34.85s.2.72.31,1.08c.78,3,1.29,6.3.75,8.55-.26,1.12.09,1.6.82,1.51a5.77,5.77,0,0,0,3-2.15,19.11,19.11,0,0,0,3.32-6.14c.24-.67.46-1.44.65-2.14a19.16,19.16,0,0,0,.46-2.11A20,20,0,0,0,168.09,202Z"/><path class="cls-13" d="M167,201.78c-.54-6.46-2.12-11-3.52-13.11-.71-1-1.39-1.48-2-1.21s-1.2,1.23-1.88,2.86a32.86,32.86,0,0,0-2.32,8.21,10.28,10.28,0,0,0,.19,4.71,36.68,36.68,0,0,1,2.08,4.41c.09.25.17.5.25.76l.22,1c.13.65.24,1.28.31,1.9a11.08,11.08,0,0,1,0,3.37c-.41,1.9,1.24,1.68,3.11-.64a16.92,16.92,0,0,0,2.66-5.14A16.45,16.45,0,0,0,167,201.78Z"/><path class="cls-14" d="M165.92,202.37c-.36-4.91-1.33-8.39-2.29-10s-1.91-1.36-3.1,1.06a21.14,21.14,0,0,0-2.11,6.29,8,8,0,0,0,.09,3.76c.28.63,1.05,1.91,1.63,3.46a10.74,10.74,0,0,1,.66,5.26c-.29,1.52,1,1.3,2.41-.55a11.82,11.82,0,0,0,1.07-1.71c.17-.34.34-.71.5-1.09s.3-.68.44-1.05A13.25,13.25,0,0,0,165.92,202.37Z"/><path class="cls-12" d="M173.8,237.71a38.91,38.91,0,0,0,3.13-10.25c.38-2.69.27-4.55-.12-5.48s-1.07-.95-1.92,0a25.21,25.21,0,0,0-3.19,5.88c-1.29,3-2.5,6.54-3.66,9.84s-2.29,6.32-2.85,8.33-.44,3.09,1.05,2.24a12.72,12.72,0,0,0,3.12-3.06A37.6,37.6,0,0,0,173.8,237.71Z"/><path class="cls-13" d="M173.45,237.29a33.78,33.78,0,0,0,2.63-8.37,9.74,9.74,0,0,0,0-4.51c-.65-1.56-2.12-.06-4.29,4.79-1.09,2.42-2.12,5.39-3.06,8.14s-1.79,5.3-2.18,7-.23,2.56,1,1.79S170.9,242.86,173.45,237.29Z"/><path class="cls-14" d="M173.37,236.14c2.21-5.15,2.48-8.76,2-10s-1.65-.07-3.37,3.69a57.27,57.27,0,0,0-2.35,6.38,50.4,50.4,0,0,0-1.5,5.54c-.22,1.34-.05,2,.83,1.35S171.47,240.45,173.37,236.14Z"/><path class="cls-12" d="M131.58,264.18a25.58,25.58,0,0,0,9.75-4.2,13.93,13.93,0,0,0,4.71-5.49c.72-1.71.66-3.11.09-3.94s-1.66-1.12-3.27-.74c-3.26.73-4.44,1.58-5.64,2.84a13.66,13.66,0,0,1-6.49,4.19c-4,1.35-7,3.58-7.36,5.38-.17.9.31,1.68,1.64,2.11A13.36,13.36,0,0,0,131.58,264.18Z"/><path class="cls-13" d="M132.47,263a23.31,23.31,0,0,0,7.94-3.37,12.55,12.55,0,0,0,4.05-4.25c.7-1.32.77-2.42.36-3.08s-1.29-.89-2.7-.57c-2.84.61-3.88,1.31-4.92,2.3a12.54,12.54,0,0,1-5.45,3.36c-3.33,1.12-5.72,2.9-6,4.29-.13.7.28,1.28,1.36,1.58A11.86,11.86,0,0,0,132.47,263Z"/><path class="cls-14" d="M133.14,262.44c5-1.17,8.27-3.79,9.46-5.8s.59-3.38-1.69-2.92a7,7,0,0,0-4,1.75,10.66,10.66,0,0,1-4.32,2.63c-2.6.89-4.41,2.32-4.59,3.4S129.29,263.33,133.14,262.44Z"/><path class="cls-12" d="M168.92,147c-5.36-6.21-9.12-7.13-10.67-5.33s-.9,6.51,2.46,12.55,3.36,10.62,3.68,14.74a25.45,25.45,0,0,0,1.1,6.26,31.34,31.34,0,0,0,3.87,7.57c2,3,3.91,6.27,5.6,9.35s3.15,6,4.38,8.2,2.24,3.71,3.11,3.9,1.56-.9,1.81-3.86a86.74,86.74,0,0,0,.25-11.39,76.28,76.28,0,0,0-7.62-29.64A59.48,59.48,0,0,0,168.92,147Z"/><path class="cls-13" d="M168.5,148.18c-4.38-5.13-7.49-5.94-8.77-4.46s-.76,5.38,2,10.38,2.8,8.76,3.13,12.17a20.66,20.66,0,0,0,1,5.19,24.79,24.79,0,0,0,3.48,6.19c1.77,2.45,3.56,5,5.18,7.45s3.07,4.7,4.28,6.4,2.21,2.82,2.93,2.89,1.17-.91,1.1-3.36-.24-5.62-.71-9.23a76.06,76.06,0,0,0-2.45-11.7C177.34,162,173.39,153.9,168.5,148.18Z"/><path class="cls-14" d="M168.86,151.56c-3.37-4.05-5.79-4.75-6.8-3.61s-.63,4.2,1.5,8.14,2.14,6.87,2.4,9.54.78,5.14,3.65,8.87,5.86,7.87,7.94,10.35c1,1.22,1.89,2,2.45,2s.84-.8.63-2.65a82.17,82.17,0,0,0-3.14-15.76C175.58,162.3,172.62,156.09,168.86,151.56Z"/><path class="cls-12" d="M118.17,87.66a54.42,54.42,0,0,0-2-6.87,30.63,30.63,0,0,0-2.06-4.39c-1.33-2.36-2.51-3.84-2.17-5.31a9.09,9.09,0,0,1,1-2.55,9.07,9.07,0,0,0,.77-2.62,5.12,5.12,0,0,0-.54-2.79,4.51,4.51,0,0,0-2-2.27c-.85-.39-2-.29-3.29,1.39s-2.54,4.94-2.55,10.28a38.67,38.67,0,0,0,2,12.3,37.36,37.36,0,0,0,3.13,6.85c1,1.74,2,3.13,2.89,4.66s1.92,3.21,3.14,5.51,2.37,3.44,3.15,3.64,1.24-.53,1.32-2C121.24,100.61,119.88,94.9,118.17,87.66Z"/><path class="cls-13" d="M116.09,86a38.45,38.45,0,0,0-3.46-9.54c-1-2-2-3.1-1.81-4.39a9.7,9.7,0,0,1,.56-2.31,10.26,10.26,0,0,0,.39-2.39,5,5,0,0,0-.54-2.39,2.8,2.8,0,0,0-1.59-1.66c-.66-.15-1.49.27-2.25,1.87S106,69.59,106.28,74a37.47,37.47,0,0,0,2.13,10A34,34,0,0,0,111,89.57c1.64,2.82,2.86,4.54,4.83,8.35,1,1.9,1.88,2.85,2.45,3s.84-.43.81-1.63C119,96.91,117.71,92.15,116.09,86Z"/><path class="cls-14" d="M114,83.49a26.55,26.55,0,0,0-2.43-7.61c-.8-1.56-1.51-2.45-1.39-3.47.27-2,.58-1.61.66-3.74,0-1-.62-2.91-1.48-3-.44,0-1,.36-1.41,1.63a17.3,17.3,0,0,0-.56,6.75,35.46,35.46,0,0,0,1.6,8.09,36.39,36.39,0,0,0,2.17,5.22c1.46,2.85,2.7,4.8,4.11,7.77.71,1.48,1.21,2.09,1.42,2s.18-.78-.06-2C116.16,92.73,115,88.39,114,83.49Z"/><path class="cls-12" d="M75.76,262.34a26.81,26.81,0,0,0,10,1.23,21.4,21.4,0,0,0,7.7-1.82c1.86-.89,2.87-1.93,2.71-2.81s-1.46-1.55-4.3-1.91a68.79,68.79,0,0,0-9.36-.43,62.31,62.31,0,0,0-8.48.59c-2.24.37-3.7.95-3.68,1.81S71.9,261.06,75.76,262.34Z"/><path class="cls-13" d="M77.18,261.66c5.58,1.72,11.46,1.06,14.49-.2S95,258.54,90.34,258a67.92,67.92,0,0,0-14.71-.11c-1.84.25-3,.67-3,1.32S74,260.68,77.18,261.66Z"/><path class="cls-14" d="M77.82,261.52a18.89,18.89,0,0,0,11.24-.08c2.39-.94,2.69-2.21-1-2.73a47.31,47.31,0,0,0-11.48-.15C73.75,258.94,72.9,260,77.82,261.52Z"/><path class="cls-12" d="M132.32,286.63a108.37,108.37,0,0,0,12.84-4.3,50.25,50.25,0,0,0,9.36-5c2.28-1.63,3.6-3.07,3.69-4s-1-1.4-3.5-1.53c-4.94-.34-7.69-2-10.21-2.58s-4.71-.34-8.56,2.11-6.63,4.45-9.3,6a17.26,17.26,0,0,1-8.82,2.67c-3.48.05-5.93,2.78-4.46,5.15a4.73,4.73,0,0,0,1.91,1.63,12.13,12.13,0,0,0,3.61,1.11C121.88,288.37,126.22,288.28,132.32,286.63Z"/><path class="cls-13" d="M132.76,285.22a108.42,108.42,0,0,0,10.44-3.44,46.6,46.6,0,0,0,7.58-3.72c1.87-1.19,3-2.26,3.08-3s-.76-1.22-2.75-1.48c-4-.58-6.17-2-8.24-2.56s-3.91-.37-7.13,1.63-5.51,3.69-7.72,5a14.59,14.59,0,0,1-7.29,2.31c-2.92.1-4.73,2.39-3.51,4.31.62.95,2,1.82,4.5,2.16S127.78,286.6,132.76,285.22Z"/><path class="cls-14" d="M133.23,284.15c5.82-1.65,11-3.53,13.84-5.21,1.44-.83,2.31-1.57,2.42-2.15s-.52-1-2-1.3c-3-.65-4.68-1.8-6.27-2.29s-3.07-.37-5.62,1.18-4.35,2.88-6.07,3.92a11.92,11.92,0,0,1-5.7,1.9c-2.29.13-3.69,1.95-2.7,3.42.5.72,1.61,1.36,3.56,1.59A22.57,22.57,0,0,0,133.23,284.15Z"/><path class="cls-12" d="M4.22,234a28.3,28.3,0,0,0,.92,8.6A8.78,8.78,0,0,0,7,246.51c.57.51,1,.24,1.21-.79a30.38,30.38,0,0,0,.19-5.38c0-2.57-.21-5.59-.32-8.4L8,228c-.07-1.18-.14-2.15-.26-2.92-.23-1.52-.66-2.16-1.38-1.09a11.19,11.19,0,0,0-1.18,3.09A33.79,33.79,0,0,0,4.22,234Z"/><path class="cls-13" d="M4.88,236c0,4.83,1.16,7.75,1.89,8.46s1.11-.66,1.05-4.2c0-1.77-.19-3.86-.36-5.79a45.62,45.62,0,0,0-.6-4.83c-.24-1.1-.58-1.54-1-.69S4.89,231.92,4.88,236Z"/><path class="cls-12" d="M45,204.13a12.78,12.78,0,0,0-8.52,5.6c-.85,1.19-1.48,2.39-2.15,3.52A19.32,19.32,0,0,1,32,216.52a10.69,10.69,0,0,0-2.17,4.89,8.89,8.89,0,0,0,.39,5.2,2.22,2.22,0,0,0,3.13,1.11,10.28,10.28,0,0,0,2.6-1.65,40.11,40.11,0,0,1,3.45-2.39,12.87,12.87,0,0,1,3.09-1.26c.8-.21,1.4-.35,1.92-.52a3.53,3.53,0,0,0,2-1.53c.45-.7.74-1.62,1.36-2.66a8.5,8.5,0,0,1,3.68-3.3,23,23,0,0,0,5.09-3.22c1.2-1.11,1.78-2.28,1.52-3.42s-1.37-2.26-3.53-3.06A18.94,18.94,0,0,0,45,204.13Z"/><path class="cls-13" d="M43.88,206.42a10.51,10.51,0,0,0-6.52,4.46c-1.32,1.84-2.09,3.58-3.68,5.12a8.72,8.72,0,0,0-2,3.65,7,7,0,0,0-.1,4,1.63,1.63,0,0,0,2.32,1.08c1.19-.35,2.82-1.63,5.08-2.85a15.64,15.64,0,0,1,2.76-1.14c.74-.23,1.33-.4,1.81-.58a3.64,3.64,0,0,0,1.91-1.35c.41-.57.65-1.3,1.15-2.13a7.25,7.25,0,0,1,2.89-2.7c3.28-1.77,5.49-3.64,4.93-5.39-.27-.85-1.22-1.67-3-2.17A15.71,15.71,0,0,0,43.88,206.42Z"/><path class="cls-14" d="M44.14,207.4a8.64,8.64,0,0,0-5,3.24,18,18,0,0,1-3.16,3.6,6.55,6.55,0,0,0-1.9,2.48,5.1,5.1,0,0,0-.53,2.95,1.34,1.34,0,0,0,1.63,1.16,21.18,21.18,0,0,0,4.22-1.45c1.94-.71,3.19-.91,4.09-1.22a3.55,3.55,0,0,0,1.77-1.1c.77-.89.82-2.32,3.31-3.83s4.14-3,3.66-4.32c-.24-.66-1-1.24-2.33-1.59A12.7,12.7,0,0,0,44.14,207.4Z"/><path class="cls-12" d="M97.69,222.22c-9-2.85-15.54-4.43-19-4.39s-3.91,1.52-.78,5.23a36.38,36.38,0,0,0,10.06,8.31,20.78,20.78,0,0,0,7.64,2.86c1.43.05,4.45-.17,7.75-.08s6.89.47,9.36,1.62,2.48-1,0-4.07A32,32,0,0,0,97.69,222.22Z"/><path class="cls-13" d="M97.1,223.15c-7.34-2.32-12.74-3.69-15.64-3.73s-3.27,1.19-.71,4.31a29.64,29.64,0,0,0,8.3,6.94A17.19,17.19,0,0,0,95.36,233c2.34.06,10-.68,14,1.21,2,.94,2-.82,0-3.34A25.93,25.93,0,0,0,97.1,223.15Z"/><path class="cls-14" d="M97.35,224.48c-5.68-1.8-9.87-2.93-12.13-3s-2.59.85-.61,3.32c3.92,5,9.53,7.27,11.38,7.36s7.75-.53,10.84.92S106.86,227.55,97.35,224.48Z"/><path class="cls-12" d="M134,217.45a77,77,0,0,0-8.77-3.51c-2.35-.73-4.06-1-5-.73-1.87.44-.63,2.73,4.67,6.13a33,33,0,0,0,9.45,4,18.33,18.33,0,0,0,8.44.16c2-.48,2.66-1.23,1.29-2.07a18.89,18.89,0,0,0-3.62-1.44l-1.38-.46-.7-.26c-.33-.1-.5-.18-.76-.28C136.68,218.62,135.45,218.1,134,217.45Z"/><path class="cls-13" d="M133.67,217.84a59.86,59.86,0,0,0-7.23-2.87,9,9,0,0,0-4.1-.58c-1.53.37-.51,2.25,3.85,5a28.44,28.44,0,0,0,7.74,3.29,15.11,15.11,0,0,0,6.84.35c1.6-.35,2.19-.95,1.09-1.67A15.5,15.5,0,0,0,139,220.1l-1.07-.41-1.17-.49Z"/><path class="cls-14" d="M132.67,218c-4.45-2.09-7.63-3-8.81-2.69s-.39,1.76,3,3.9a24.06,24.06,0,0,0,6,2.58,13.31,13.31,0,0,0,5.23.58c1.18-.2,1.67-.64.88-1.25A49.42,49.42,0,0,0,132.67,218Z"/><path class="cls-12" d="M54.13,188.3a25.86,25.86,0,0,0-11.18,4c-2.19,1.6-2.77,3.1-2.11,4.14s2.5,1.69,5.11,2.11a86.82,86.82,0,0,0,9.87.8,22.77,22.77,0,0,1,9,2.14A41.24,41.24,0,0,1,70.56,205c3.44,2.34,6.7,4.16,13.62,4.32s14.12.33,18.57-.24,6.2-2,2-4.64-10.83-7.2-19.47-11a69.24,69.24,0,0,0-14.42-4.58A49.76,49.76,0,0,0,54.13,188.3Z"/><path class="cls-13" d="M55.07,189.28a22,22,0,0,0-9,3c-1.79,1.21-2.31,2.39-1.83,3.28s1.92,1.54,4,2a52.64,52.64,0,0,0,8.11.87,20.07,20.07,0,0,1,7.52,1.74,37,37,0,0,1,4.88,2.8,18.58,18.58,0,0,0,11.53,3.3c5.8,0,11.81,0,15.51-.59s5.13-1.73,1.57-3.86a114.85,114.85,0,0,0-16.54-8.63,61,61,0,0,0-12.06-3.51A44.42,44.42,0,0,0,55.07,189.28Z"/><path class="cls-14" d="M58.67,190.81a16.93,16.93,0,0,0-6.69,1.8c-1.35.79-1.81,1.64-1.52,2.37.57,1.48,4,2.48,8.91,2.93s7.26,2.3,9.57,3.71a14.45,14.45,0,0,0,9.11,2.5,93.61,93.61,0,0,0,12.2-.71c2.89-.5,4-1.44,1.14-3A97,97,0,0,0,78.29,194C72.62,191.78,65.63,190.14,58.67,190.81Z"/><path class="cls-12" d="M32.73,271.6a36.34,36.34,0,0,0,10.63,5.64,27.47,27.47,0,0,0,7.6,1.35c4.15.14,6.62-.58,8.69.38a32.18,32.18,0,0,1,3.66,1.95,13.55,13.55,0,0,0,4.14,1.41c2.42.55,7.14-.88,7.75-3.07.31-1.09-.37-2.33-2.73-3.63s-6.41-2.67-12.79-4.58-11.08-3.72-14.79-5.22-6.44-2.74-8.76-3.88A38.15,38.15,0,0,1,30,258.26,24.88,24.88,0,0,1,24,251.87c-2-3.09-3.13-5-4.05-5.52s-1.57.34-1.59,2.6a16.16,16.16,0,0,0,.69,4.36,27.3,27.3,0,0,0,2.43,5.77A40.87,40.87,0,0,0,32.73,271.6Z"/><path class="cls-13" d="M36.68,272a35,35,0,0,0,8.89,4,25.56,25.56,0,0,0,6.08,1c3.28.09,5.16-.42,6.93.3,3.56,1.39,2.7,1.67,6.68,2.52,2,.42,5.67-.58,5.94-2.16.14-.78-.54-1.68-2.62-2.66s-5.54-2-11-3.54-9.43-2.92-12.6-4.08-5.5-2.1-7.49-2.95a40.77,40.77,0,0,1-5.37-2.69,27.47,27.47,0,0,1-5.71-4.65c-2.13-2.27-3.41-3.61-4.15-3.84s-.93.65-.37,2.46a23.49,23.49,0,0,0,4.41,7.48A42.39,42.39,0,0,0,36.68,272Z"/><path class="cls-14" d="M41.48,272.83c5.37,2.88,9,3.32,11.48,3.39s4-.34,5.34.22c2.75,1.09,2.07,1.3,5.14,2,1.54.34,4.3-.18,4.46-1.19.09-.51-.47-1.13-2.11-1.85a74.83,74.83,0,0,0-8.63-2.74c-8.49-2.43-13.59-4.27-17.65-5.86A48.21,48.21,0,0,1,34,264.27a28.9,28.9,0,0,1-5.21-3.65c-1.81-1.61-2.69-2.34-2.91-2.19s.24,1.16,1.37,2.7a35,35,0,0,0,5.36,5.64A51,51,0,0,0,41.48,272.83Z"/><path class="cls-12" d="M42.4,253.71a13.74,13.74,0,0,0,5.52,1.72,4,4,0,0,0,3-.82c1.19-1.12.79-3.09-.38-4.79s-1.22-2.18-2.13-2.68c-.44-.26-1.09-.52-2.08-1A29.56,29.56,0,0,1,42.52,244c-1.47-1-2-1.34-2.24-1.34s-.24.33-.16.74.21.89.05,1.11-.69.2-1.74-.44-1.7-.73-2.25-.48a1.81,1.81,0,0,0-.9,1.84,6.81,6.81,0,0,0,1.62,3.81A16.91,16.91,0,0,0,42.4,253.71Z"/><path class="cls-13" d="M43.42,253.09a12.26,12.26,0,0,0,4.43,1.47,3.08,3.08,0,0,0,2.37-.51c.92-.8.56-2.31-.43-3.65s-1.07-1.72-1.83-2.15c-.38-.21-.92-.45-1.76-.84a30.26,30.26,0,0,1-3.35-1.85,8.25,8.25,0,0,0-2.09-1.24c-.22,0-.14.27,0,.62s.31.75.2.93-.54.13-1.51-.43-1.55-.68-2-.47-.58.75-.41,1.56a7,7,0,0,0,1.73,3.06A16.55,16.55,0,0,0,43.42,253.09Z"/><path class="cls-14" d="M44.07,252.67c2.78,1.42,4.53,1.36,5.23.76s.47-1.79-.29-2.84-.82-1.34-1.43-1.68-1.76-.72-4.13-2.11a7.36,7.36,0,0,0-1.8-1c-.2,0-.1.22,0,.5.28.55.69,1.29-1,.42-.84-.44-1.36-.52-1.67-.34s-.37.64-.16,1.28C39.22,249,40.91,251,44.07,252.67Z"/></g><path class="cls-10" d="M196.1,115.22c-22.65,0-32.32-20.89-32.42-21.12a.46.46,0,0,1,.21-.6.44.44,0,0,1,.58.22c.11.24,11.36,24.49,38,20a.45.45,0,0,1,.5.38.44.44,0,0,1-.36.51A39.92,39.92,0,0,1,196.1,115.22Z"/><path class="cls-10" d="M160.64,94.76a7,7,0,0,1-2.6-.44.45.45,0,0,1-.23-.59.43.43,0,0,1,.57-.24c.25.12,6.27,2.64,12.06-6.36a.44.44,0,0,1,.61-.13.47.47,0,0,1,.12.63C167.32,93.62,163.22,94.76,160.64,94.76Z"/><path class="cls-10" d="M182.24,121.34a.4.4,0,0,1-.15,0c-8.62-3.21-11.55-8.94-11.67-9.18a.44.44,0,0,1,.19-.6.42.42,0,0,1,.58.19s2.92,5.66,11.19,8.75a.44.44,0,0,1,.26.57A.42.42,0,0,1,182.24,121.34Z"/><path class="cls-10" d="M149.14,113.08a.46.46,0,0,1-.24-.08c-16.82-11.42-21.69-29.83-21.74-30a.45.45,0,0,1,.31-.55.43.43,0,0,1,.53.32c.05.18,4.84,18.26,21.38,29.49a.47.47,0,0,1,.13.63A.48.48,0,0,1,149.14,113.08Z"/><path class="cls-10" d="M134.87,98.58a.46.46,0,0,1-.22-.06c-6-3.67-10.29-10.61-10.47-10.9a.46.46,0,0,1,.13-.62.42.42,0,0,1,.6.13c0,.07,4.38,7.06,10.19,10.61a.47.47,0,0,1,.15.62A.44.44,0,0,1,134.87,98.58Z"/><path class="cls-15" d="M212.65,91.47c0,1.35-.45,2.44-1,2.44s-1-1.09-1-2.44.46-2.44,1-2.44S212.65,90.12,212.65,91.47Z"/><path class="cls-15" d="M205.62,93.28c.78,1.07,1,2.23.61,2.58s-1.45-.24-2.23-1.32S203,92.31,203.4,92,204.84,92.2,205.62,93.28Z"/><path class="cls-10" d="M183.32,51.07a.38.38,0,0,1-.25-.08.47.47,0,0,1-.11-.63,14.19,14.19,0,0,1,15-5.13.45.45,0,0,1,.31.55.42.42,0,0,1-.53.32,13.29,13.29,0,0,0-14.09,4.79A.42.42,0,0,1,183.32,51.07Z"/><path class="cls-10" d="M137.27,73.6l-.12,0a.45.45,0,0,1-.3-.55c.05-.18,4.75-17.27,21.32-13.16a.46.46,0,0,1,.32.54.45.45,0,0,1-.52.34c-15.77-3.92-20.1,11.84-20.28,12.51A.45.45,0,0,1,137.27,73.6Z"/><path class="cls-10" d="M149.16,241.52a.39.39,0,0,1-.25-.08.45.45,0,0,1-.11-.62c6.92-10.47,10.87-25.53,10.91-25.68a.45.45,0,0,1,.54-.32.45.45,0,0,1,.3.56c0,.15-4,15.35-11,26A.42.42,0,0,1,149.16,241.52Z"/><path class="cls-15" d="M207.64,108.42c-26.5,8.92-41.36-14.51-41.36-14.51,8.36-5.59,4.52-8.3,4.52-8.3-5.19,9.91-37.86,11.18-32.26-9s22.11-14.92,22.11-14.92c-1.15-2.31-8.48-3.41-8.48-3.41,3.18-5.39,1.18-17.06-6.69-29.15-4.89-7.52-12.25-10.07-17.17-8.33-6.84,3.58-7.13,15.89-9.45,15.74s-3.76-6.45-3.62-15.06a24.76,24.76,0,0,1,.38-3.88,20.79,20.79,0,0,0-1.33,6.89c-13.18,12.75-19.71,31.9-11.83,54.79,13,37.84,62.84,79.57,59.08,125.52a98.15,98.15,0,0,1-1.41,10.47,213.88,213.88,0,0,1-64.91-21c-40.63-20.54-85.72.3-92.38,28.53a41.5,41.5,0,0,0-.79,4.43c-3.58,27.28,17.7,58.52,57,67.63,40.55,9.42,105.81-6.23,119.66-42.13.29-.76.57-1.53.81-2.31q1.66-5.27,2.77-10.23a102.68,102.68,0,0,0,2.52-23.06c-.16-20.71-7.05-37-13.68-50.56-9.85-20.05-26.65-42.27-25.49-56.38,0,0,16.22,12.91,34.46,10.21a25.27,25.27,0,0,0,7.34.86c4.18-.15,9.1-1.55,11.85-6.61,8.33-.51,14.46-5.15,18.12-12.09A25.89,25.89,0,0,1,207.64,108.42Zm-41.77,91.16c3.41,2.39,10.71,72.11-60.82,81S-.69,255.32,5.43,221c1.43-8,18.82-32.67,52.71-32.67s43.72,19.83,98.31,28.53c0,0,.44,14.78-13.46,13.1s-65.91-28.1-86.53-21.5S30.92,241.16,50,252.72s86.43,16.75,102.23-13.9S161.81,196.74,165.87,199.58Zm-16.29,41A43,43,0,0,1,136.13,252c-14.71,8.1-35.88,9.57-64.08,5a53.05,53.05,0,0,1-10.2-2.61c-30-11.21-10-43.53,33.37-26.22A178.53,178.53,0,0,0,149.58,240.54Zm-32.94-136.2C98.37,74.83,99.55,52.83,104.47,42.71s-.34.24,1.18,25.92,30.1,61.42,36.47,70.71C142.12,139.34,134.9,133.85,116.64,104.34Z"/><path class="cls-1" d="M61.85,254.43A53.05,53.05,0,0,0,72.05,257c28.2,4.53,49.37,3.06,64.08-5a43,43,0,0,0,13.45-11.46,178.53,178.53,0,0,1-54.36-12.33C51.87,210.9,31.8,243.22,61.85,254.43Z"/><path class="cls-15" d="M174.26,13.91s-6.57-2.57-8,5.14,2.92,24.3,15.08,28.84c0,0-.43,4.08,2,5,0,0,4.56-9.38,16.5-5.48a6.47,6.47,0,0,0-6.08-3.35s.86-7-3.49-16.9C178.24,12.72,174.26,13.91,174.26,13.91Z"/><path class="cls-15" d="M215.4,213.5l-.51.13c.23,4,.32,8.18.22,12.48-.08,3.5-.3,6.94-.68,10.3a55.7,55.7,0,0,1,9.08-.39c18,1.2,20,15.61,11.3,32.13-7.7,14.62-28.56,19.12-45.9,21.21-1.48.25-3,.49-4.55.7l.31-.22-2.28.23c-13.15,1.3-36.25,7.34-49.31,19.67-5.06,4.78-8.61,10.5-9.48,17.26-.58,4.51,2.32,5.11,5.21,0s9.85-16.21,44-14.41,96.44-10.21,101.07-54.95S243.2,206,215.4,213.5Zm-18,82.79c-39.69.5-57.3,10.93-57.3,10.93,14.52-12.74,38.5-13.81,57.22-15.62s42.38-7.8,51.94-20.85,5.22-29.89-2.89-36.85-25.2-6-24-11.24,12.51-10.54,24-8.23c16.74,3.37,23,13.87,24.32,21.69C278.91,283.93,237.11,295.81,197.41,296.29Z"/><path class="cls-16" d="M188.05,24.45c5.17,9.29,5.38,19.2.48,22.13s-13.07-2.23-18.24-11.52-5.38-19.2-.47-22.13S182.89,15.15,188.05,24.45Z"/><path class="cls-17" d="M183.43,28.08c3.75,6.75,4,13.89.53,16s-9.29-1.73-13-8.47-4-13.89-.53-16S179.68,21.34,183.43,28.08Z"/><path class="cls-16" d="M148.57,37.33c4.6,10.51,3.83,21.15-1.72,23.76s-13.78-3.79-18.38-14.31S124.63,25.62,130.19,23,144,26.81,148.57,37.33Z"/><path class="cls-17" d="M143.25,40.72c3.34,7.64,2.88,15.31-1,17.15S132.43,55,129.09,47.39s-2.88-15.32,1-17.16S139.91,33.09,143.25,40.72Z"/><path class="cls-12" d="M180.36,30.47c2.51,4.5,2.66,9.26.36,10.64s-6.2-1.16-8.7-5.65-2.66-9.27-.36-10.64S177.86,26,180.36,30.47Z"/><path class="cls-12" d="M140.64,42.93c2.22,5.09,1.92,10.22-.69,11.44s-6.53-1.9-8.76-7-1.91-10.21.69-11.44S138.41,37.84,140.64,42.93Z"/><path class="cls-18" d="M139.57,36.47c1.32,2.7,1.36,5.43.09,6.09s-3.36-1-4.68-3.67-1.37-5.43-.1-6.1S138.24,33.77,139.57,36.47Z"/><path class="cls-18" d="M180.06,24.64c1.46,2.37,1.73,4.88.62,5.62s-3.2-.59-4.65-3-1.73-4.89-.62-5.63S178.61,22.26,180.06,24.64Z"/><path class="cls-19" d="M100.13,205.12S77,186.06,47.51,191.23,7,221.8,14.55,240.14c10.43,25.38,52.56,36.08,91.37,30.61,0,0-90.64,1.64-84.85-44.91S87.68,197.61,100.13,205.12Z"/><path class="cls-19" d="M239.79,215.93s20.49,8.77,21.64,27.21-3.09,32.33-20.27,41.57c0,0,28.18-9.13,26.07-42.72C265.78,219,239.79,215.93,239.79,215.93Z"/><g class="cls-20"><path class="cls-12" d="M269.83,231a20.48,20.48,0,0,0-4-5.27,5.52,5.52,0,0,0-2.88-1.66c-1.31,0-.94,1.67,1,5.13a56.6,56.6,0,0,0,3.49,5.4,36.31,36.31,0,0,0,3.37,4.24c.91.89,1.59,1.08,1.66-.07S272,235.08,269.83,231Z"/><path class="cls-13" d="M268.51,230.07c-1.89-3.2-3.79-4.61-4.64-4.69s-.7,1.13.62,3.53a29.49,29.49,0,0,0,5,6.44c.67.56,1.14.64,1.13-.14S270.08,232.76,268.51,230.07Z"/><path class="cls-12" d="M130.31,319.86c2.15-1.87,3.07-3.46,2.92-4.48s-1.45-1.41-3.63-.26a8.59,8.59,0,0,0-4,5.93c-.06.87.26,1.41,1,1.28S128.5,321.44,130.31,319.86Z"/><path class="cls-13" d="M130.42,319.12c1.57-1.37,2.26-2.52,2.19-3.19s-1-.85-2.45,0a7,7,0,0,0-3,4.13C127,321.3,127.8,321.48,130.42,319.12Z"/><path class="cls-12" d="M256.72,265.34a10.56,10.56,0,0,0,.59-8.17c-.66-2.34-1.56-4.21-1.37-6.5a8,8,0,0,0-1-4.11,5.53,5.53,0,0,0-2.91-2.79,3.22,3.22,0,0,0-3.17,1c-1,.91-1.83,2.78-3,5.29s-2.14,3.86-2.56,4.87a2.67,2.67,0,0,0-.12,2.34c.3.68.86,1.35,1.38,2.27a6.92,6.92,0,0,1,.92,3.82c-.13,3.38.31,6.47,2.24,7.67a3.92,3.92,0,0,0,3.9-.16A12.77,12.77,0,0,0,256.72,265.34Z"/><path class="cls-13" d="M255.51,263.38a8.69,8.69,0,0,0,.4-6.37c-.48-1.82-1.12-3.32-.9-5.15a7,7,0,0,0-.59-3.33,5,5,0,0,0-2.07-2.5,2,2,0,0,0-2.49.51,15.79,15.79,0,0,0-2.55,4.47c-1,2.19-1.8,3.42-2.17,4.35a2.7,2.7,0,0,0-.17,2.1,17.92,17.92,0,0,0,1,1.88,6,6,0,0,1,.72,3.12c-.07,2.78.45,5.13,2,5.89a3.14,3.14,0,0,0,3-.44A10.85,10.85,0,0,0,255.51,263.38Z"/><path class="cls-14" d="M254.6,263a6.91,6.91,0,0,0,.38-4.81,9.24,9.24,0,0,1-.48-4c.31-1.41-.38-3.94-1.59-4.75a1.53,1.53,0,0,0-2,.12A11.25,11.25,0,0,0,248.6,253c-.94,1.74-1.6,2.76-1.93,3.54a2.4,2.4,0,0,0-.21,1.76c.27,1,1.32,1.79,1.31,4s.47,4,1.72,4.54a2.5,2.5,0,0,0,2.32-.43A8.77,8.77,0,0,0,254.6,263Z"/><path class="cls-12" d="M223.44,281.43a53.17,53.17,0,0,0,8.28-2.62,13.11,13.11,0,0,0,4.33-2.68c.82-.87,1-1.67.66-2.42s-1.37-1.46-2.94-2.3a25.85,25.85,0,0,0-4.35-1.89,16.34,16.34,0,0,0-3.94-.69,9.94,9.94,0,0,0-5.39,1c-.87.6-2.61,2.17-4.78,3.56s-4.68,2.65-6.73,2.68-1.33,2,1.46,3.66A18.28,18.28,0,0,0,223.44,281.43Z"/><path class="cls-13" d="M223.44,280.33c5.54-1.35,9.08-2.82,10.46-4.17s.89-2.52-1.7-4a15.23,15.23,0,0,0-7-2.21,8.36,8.36,0,0,0-4.5.79c-.71.5-2.15,1.79-3.89,3s-3.78,2.2-5.45,2.24-1.06,1.64,1.22,3A14.77,14.77,0,0,0,223.44,280.33Z"/><path class="cls-14" d="M222.75,279.26c4.28-1,7.1-2.05,8.33-3.05.62-.51.83-1,.64-1.51s-.75-1-1.8-1.65a12.53,12.53,0,0,0-5.72-1.82,6.53,6.53,0,0,0-3.58.6c-.57.39-1.69,1.39-3,2.3a9,9,0,0,1-4.17,1.77c-1.27,0-.8,1.27,1,2.32A11.44,11.44,0,0,0,222.75,279.26Z"/><path class="cls-12" d="M195.86,299.78c6.5.34,10.63-.61,11.81-1.85s-.56-2.7-5.6-3.54-12.08.21-15.1,1.69S185,299.24,195.86,299.78Z"/><path class="cls-13" d="M196,299.29c5.34.27,8.73-.5,9.7-1.51s-.45-2.23-4.59-2.93-9.94.18-12.43,1.38S187,298.84,196,299.29Z"/><path class="cls-14" d="M196.75,298.76c8.33.43,10.42-2.37,4-3.44S182.78,298.09,196.75,298.76Z"/><path class="cls-12" d="M156.8,301.33c7.39-1.91,12.92-4.66,15.76-7.34s2.86-5.2-1.37-5.55-6,.48-7.67,1.56a28.46,28.46,0,0,1-7.79,4c-4.45,1.58-7.16,4.53-7.15,6.35,0,.92.63,1.57,2,1.76A16.9,16.9,0,0,0,156.8,301.33Z"/><path class="cls-13" d="M157.59,300.13c6.14-1.51,10.72-3.73,13-5.83s2.32-4-1.17-4.22-4.91.46-6.28,1.31a23.42,23.42,0,0,1-6.37,3.14c-3.63,1.23-5.89,3.47-5.94,4.87S152.84,301.35,157.59,300.13Z"/><path class="cls-14" d="M158.23,299.58c4.79-1.15,8.35-2.94,10.14-4.6s1.75-3.16-1-3.26-3.79.41-4.85,1.07a17.44,17.44,0,0,1-4.9,2.44c-2.79.93-4.54,2.6-4.6,3.69S154.53,300.49,158.23,299.58Z"/><path class="cls-12" d="M273.5,284.19c2.27-4.3,2.94-7.78,2.86-10.06s-1-3.46-2.12-3.64-2.67.58-4.37,2a53.81,53.81,0,0,0-5.77,6.19,16.94,16.94,0,0,1-6.49,4.94,25.51,25.51,0,0,1-5.74,1.51,23.15,23.15,0,0,0-5.19,1.37,22.22,22.22,0,0,0-5.82,3.84c-2.26,1.94-4.71,3.83-7,5.55s-4.29,3.28-5.76,4.65-2.4,2.54-2.41,3.44.86,1.5,3,1.61a83.54,83.54,0,0,0,8.57.06,49.48,49.48,0,0,0,12.19-2.21,43.82,43.82,0,0,0,13.4-6.94A38.71,38.71,0,0,0,273.5,284.19Z"/><path class="cls-13" d="M272.23,284.28a17.89,17.89,0,0,0,2.53-8.09c0-1.88-.66-2.87-1.61-3.07s-2.22.35-3.67,1.5a37.51,37.51,0,0,0-4.93,5.06,15.26,15.26,0,0,1-5.42,4.2,24.58,24.58,0,0,1-4.79,1.5,19,19,0,0,0-4.37,1.44,19.56,19.56,0,0,0-4.81,3.61c-3.68,3.59-7.94,7-10.38,9.46-1.2,1.23-1.93,2.26-1.91,3s.82,1.18,2.69,1.11A52.1,52.1,0,0,0,253,300.67a40.66,40.66,0,0,0,10.73-6.29A35.07,35.07,0,0,0,272.23,284.28Z"/><path class="cls-14" d="M269,286a14.08,14.08,0,0,0,2.31-6c.11-1.43-.32-2.23-1-2.47-1.47-.47-4,1.28-7,4.51s-5.81,3.69-8.14,4.3a12.82,12.82,0,0,0-7.25,4.24c-2.86,3-6.06,5.91-7.89,8s-2.19,3.5.83,3.14a47.64,47.64,0,0,0,13.47-3.46,35.79,35.79,0,0,0,8.11-4.9A29.65,29.65,0,0,0,269,286Z"/><path class="cls-12" d="M235.89,211a26.39,26.39,0,0,0-9.36-.32,20.21,20.21,0,0,0-5.87,1.85c-3,1.5-4.57,3.09-6.38,3-3.62-.21-2.91-1-6.79-.35-2,.33-5,3.28-4.8,5.56a2.3,2.3,0,0,0,.27.8,4.07,4.07,0,0,0,.64.68,5.57,5.57,0,0,0,2.4,1c2.18.43,5.57.33,10.82-.28s9.19-.89,12.32-1.15,5.47-.42,7.49-.53a31.23,31.23,0,0,1,5.57.06,18.18,18.18,0,0,1,6.45,2c2.45,1.32,3.92,2.05,4.81,1.91s1.14-1.13.48-2.84A14.93,14.93,0,0,0,248.4,216a25.47,25.47,0,0,0-2.67-1.61c-1-.52-2.13-1-3.09-1.43A37.06,37.06,0,0,0,235.89,211Z"/><path class="cls-13" d="M233,212.41c-6.31-.63-9.9.66-12.28,1.81s-3.58,2.38-5.09,2.37c-3,0-2.49-.56-5.67.07-1.6.32-4,2.51-3.66,4.08.15.78,1,1.39,2.79,1.59s4.72,0,9.13-.68,7.73-1,10.36-1.34l6.28-.73a34.35,34.35,0,0,1,4.68-.25,19.81,19.81,0,0,1,2.52.23,20.92,20.92,0,0,1,3.17.75c2.35.75,3.74,1.1,4.4.87s.54-1-.46-2.17a17,17,0,0,0-6-3.94A33.77,33.77,0,0,0,233,212.41Z"/><path class="cls-14" d="M229.3,213.83a17.1,17.1,0,0,0-9.31,1.63c-1.82.93-2.75,1.85-3.92,1.84-2.34,0-1.92-.45-4.37,0-1.24.23-3.09,1.68-2.88,2.69.11.5.72.88,2.15,1a37.62,37.62,0,0,0,7.15-.61c6.92-1,11.13-1.56,14.53-2a26.81,26.81,0,0,1,9.6.18c1.88.44,2.82.58,2.93.33s-.56-.83-2-1.57a28.11,28.11,0,0,0-5.68-2.16A42.62,42.62,0,0,0,229.3,213.83Z"/><path class="cls-12" d="M233.52,237.09A9.83,9.83,0,0,0,229,238a3.64,3.64,0,0,0-1.91,2c-.5,1.51.44,3.16,1.84,4.21s1.6,1.44,2.42,1.48a17.49,17.49,0,0,0,1.81-.08,24.43,24.43,0,0,1,3.37,0l.82,0a1.19,1.19,0,0,0,.15-.09.52.52,0,0,0,.22-.22,1.1,1.1,0,0,0,.09-.65c0-.49-.27-1.17.71-1.57a2.68,2.68,0,0,0,1.62-3,3.2,3.2,0,0,0-1.35-2A11.71,11.71,0,0,0,233.52,237.09Z"/><path class="cls-13" d="M233,238.12c-3.17,0-4.81,1-5.19,2.14s.35,2.35,1.51,3.14,1.34,1.09,2,1.13a15.12,15.12,0,0,0,1.53,0,26.7,26.7,0,0,1,3,0c1.21.09,1.67.09,1.77,0s.11-.29-.13-.53-.44-.47-.42-.68.09-.21.27-.28a1.55,1.55,0,0,1,.36-.1l.24,0,.12-.06a1.81,1.81,0,0,0,1-2.28,2.51,2.51,0,0,0-.41-.77c0-.11-.31-.27-.51-.4a7.47,7.47,0,0,0-.75-.38A11.5,11.5,0,0,0,233,238.12Z"/><path class="cls-14" d="M232.67,238.79c-2.45,0-3.7.79-4,1.65a2.25,2.25,0,0,0,1.14,2.45c.89.63,1,.85,1.58.88s1.51-.13,3.63-.05a3.91,3.91,0,0,0,1.57-.06c.14-.09,0-.24-.18-.41-.37-.34-.88-.76.59-.9a2.11,2.11,0,0,0,.82-.19.86.86,0,0,0,.26-.18.8.8,0,0,0,.1-.23,1.78,1.78,0,0,0,.08-.53,1.18,1.18,0,0,0-.3-.62C237.31,239.73,235.47,238.8,232.67,238.79Z"/><path class="cls-12" d="M165.92,316.47c4.91-1.72,9.71-2.41,12.46-3.39s3.56-2.29.77-4.86-4.46-4.93-6.16-6.29-3.46-1.68-6.29.13a37,37,0,0,0-6.08,5.3,10.71,10.71,0,0,1-5.33,3.22,2.54,2.54,0,0,0-2,2.22,4,4,0,0,0,1.17,3.18,6.37,6.37,0,0,0,4.09,1.8A17.65,17.65,0,0,0,165.92,316.47Z"/><path class="cls-13" d="M165.94,315.15c4.14-1.42,8.06-2,10.32-2.89s2.87-1.93.56-4-3.71-4-5.11-5.11-2.83-1.36-5.12.14a33.65,33.65,0,0,0-5,4.32,8.39,8.39,0,0,1-4.43,2.55c-1.95.4-2.29,2.84-.85,4.43a5.11,5.11,0,0,0,3.36,1.59A14.7,14.7,0,0,0,165.94,315.15Z"/><path class="cls-14" d="M166.05,314.17c3.27-1.1,6.3-1.64,8-2.33s2.18-1.53.37-3.1c-3.62-3.1-4.41-6.07-7.9-3.77s-4.27,4.75-7.26,5.21c-1.5.26-1.86,2.13-.79,3.42a3.92,3.92,0,0,0,2.59,1.32A11.3,11.3,0,0,0,166.05,314.17Z"/></g><path class="cls-1" d="M50,252.72C30.92,241.16,35.84,215,56.46,208.43s72.63,19.81,86.53,21.5,13.46-13.1,13.46-13.1C101.86,208.13,92,188.3,58.14,188.3S6.86,213,5.43,221c-6.12,34.35,28.09,68.53,99.62,59.62s64.23-78.62,60.82-81c-4.06-2.84,2.18,8.59-13.61,39.24S69.14,264.28,50,252.72Z"/><path class="cls-1" d="M61.85,254.43A53.05,53.05,0,0,0,72.05,257c28.2,4.53,49.37,3.06,64.08-5a43,43,0,0,0,13.45-11.46,178.53,178.53,0,0,1-54.36-12.33C51.87,210.9,31.8,243.22,61.85,254.43Z"/><path class="cls-21" d="M165.87,103.26s.29,4.35.72,8.66-39.06-4.72-36.88-40.35a20.74,20.74,0,0,0-2.85,15.81s-4.87-3.72-5.15-7c0,0,.46,10,11,20.27,3.48,3.38,8.31,13.75,12.08,23.76s39.39,59.66,37.45,91.55S162.05,294.38,76,290.06c-41-2.06-60.8-19.3-70.21-36.93C13.49,271.85,32,288.61,59,294.87c40.55,9.42,105.81-6.23,119.66-42.13.29-.76.57-1.53.81-2.31q1.66-5.27,2.77-10.23a102.68,102.68,0,0,0,2.52-23.06c-.16-20.71-7.05-37-13.68-50.56-9.85-20.05-26.65-42.27-25.49-56.38,0,0,16.22,12.91,34.46,10.21C180.07,120.41,171.66,117.32,165.87,103.26Z"/><path class="cls-1" d="M270.7,236.12c-1.34-7.82-7.58-18.32-24.32-21.69-11.5-2.31-22.83,2.95-24,8.23s15.9,4.29,24,11.24,12.45,23.8,2.89,36.85-33.22,19.05-51.94,20.85-42.7,2.88-57.22,15.62c0,0,17.61-10.43,57.3-10.93S278.91,283.93,270.7,236.12Z"/><path class="cls-21" d="M124,330c.86,1.28,2.85.47,4.83-3,2.9-5.1,9.85-16.21,44-14.41,24.8,1.31,64.39-4.66,86-25.13-15.89,11.69-41.75,16.35-77.62,17C143.62,305.14,129.37,319.17,124,330Z"/><path class="cls-22" d="M200,47.89s12.37,2.16,17.9,23.78-1.72,29.82-8.15,31.32c0,0,12.26-7.33,5-29.43S200,47.89,200,47.89Z"/><path class="cls-9" d="M170.8,105.88s10.56,13.25,24.61,10.53C195.41,116.41,180.38,127.05,170.8,105.88Z"/><path class="cls-1" d="M61.85,254.43A53.05,53.05,0,0,0,72.05,257c28.2,4.53,49.37,3.06,64.08-5a43,43,0,0,0,13.45-11.46,178.53,178.53,0,0,1-54.36-12.33C51.87,210.9,31.8,243.22,61.85,254.43Z"/><path class="cls-1" d="M50,252.72C30.92,241.16,35.84,215,56.46,208.43s72.63,19.81,86.53,21.5,13.46-13.1,13.46-13.1C101.86,208.13,92,188.3,58.14,188.3S6.86,213,5.43,221c-6.12,34.35,28.09,68.53,99.62,59.62s64.23-78.62,60.82-81c-4.06-2.84,2.18,8.59-13.61,39.24S69.14,264.28,50,252.72Z"/><path class="cls-1" d="M126.86,29.75a10.9,10.9,0,0,1,2.89-5.38,8.11,8.11,0,0,0-2.06,1.49A17.88,17.88,0,0,0,126.86,29.75Z"/><path class="cls-15" d="M136.17,14.45l-2.94-1.82s7.53-4.65,23-5.16c0,0,1-6.26,9.78-7,0,0-16.88,1.22-5.74,30,0,0-5.8-13.36-7-17.65S136.17,14.45,136.17,14.45Z"/><path class="cls-22" d="M142.12,22.6S132.85,12,124.75,14.09s-6.38,16.14-3.77,15S120,7.74,142.12,22.6Z"/><path class="cls-22" d="M180.39,13.32s-6.93-11.23-13.16-9.5c-8.75,2.43-8.49,12.11-6.17,15S160.48-2.85,180.39,13.32Z"/><path class="cls-22" d="M151.57,63.56s9.4-4.21,15.86,6.3-1.51,18-4.4,19.22c0,0,5.64-7.85.29-15.94S151.57,63.56,151.57,63.56Z"/></g></g></g></svg>