<svg xmlns="http://www.w3.org/2000/svg" viewBox="0 0 156.31 129.64"><defs><style>.cls-1{fill:#444f4d;}.cls-2{fill:#e7bb3a;}.cls-3{fill:#de6d25;}.cls-4{fill:#e97a70;}.cls-5{fill:#4b3333;}.cls-6{fill:#d99036;}.cls-7{fill:#f4765f;}</style></defs><title>jigsaw_1</title><g id="Layer_2" data-name="Layer 2"><g id="OBJECTS"><ellipse class="cls-1" cx="78.73" cy="122.13" rx="67.1" ry="7.51"/><path class="cls-2" d="M125.54,78.76c7.89,7.6,12.43,18.23,8.06,29.12-3,7.35-9.66,12.73-17,15.61-8.23,3.22-17.41,3-25.81,5.22-4.58,1.2-6.86,0-10.73-1.74,0-.92-.07-1.85-.1-2.77l-10.94-1c-4.8,5.11-10.74,3.42-16.86,3.2-3.16-.23-6.23.63-9.31.71-12.72.31-20-7-20.56-19.89S30.82,86.25,39,77.6c7.09-7.54,14.59-5.93,24.36-6.76l19.12-1.61c7.72-.65,16.29-2.62,23.9-1A41.2,41.2,0,0,1,125.54,78.76Z"/><path class="cls-3" d="M75.15,97c-3.73,2.76-11,2.12-15.05,2-2.07-.07-23.46-1-23.57-1.57a77.62,77.62,0,0,1-1-7.8,17.78,17.78,0,0,1-2.76,5.48c-6,7.15-19.48-5.41-23.2-10.29C7,81.29,4,76.92,2.54,72.78a10.5,10.5,0,0,1-.26-6.86c1.23-3.5,4.7-5.63,7.93-7.46L.07,57.58c-.49,0,1.64-15.87,1.91-17.12A49.27,49.27,0,0,1,6.09,28.28c1-1.85,3.59-7.59,5.45-8.35,1.06-.44,2.16.56,2.8,1.52s1.4,2.11,2.56,2.11a30.15,30.15,0,0,0-2.59-7.85C16.56,12.64,22.23,9.84,25.55,8A72.44,72.44,0,0,1,39.28,2.44,55.23,55.23,0,0,1,56.79,0c1.89.05,6-.28,7.39,1,1.61,1.48,1.89,6.8,2.11,8.87a25.81,25.81,0,0,0,2.87-8C75.94,4.57,82,7.12,87.59,12,96.4,19.8,100,29.27,104.19,39.89L96,46.32c3.11-.25,6.31-.73,9.41-.69-1.07,5.52.32,11.28-.65,17A62.88,62.88,0,0,1,98.09,82.1c-3,5.58-10.73,13.84-17.55,9.19-2.39-1.64-4-4.2-5.45-6.68,1.14,2.27,2.31,4.63,2.39,7.17A5.78,5.78,0,0,1,75.15,97Z"/><path class="cls-2" d="M40.14,27.91c3.43,5.61,2.26,12.6-5.08,13.64-6.65,1-11-6.58-9.23-12.56A7.74,7.74,0,0,1,32,23.53C35.22,23.11,38.44,25.12,40.14,27.91Z"/><path class="cls-4" d="M36.74,30.48c1.81,5.15-6.36,7.2-7.74,2.5a4.07,4.07,0,0,1,7.74-2.5Z"/><path class="cls-2" d="M82,32.78c-3.15,6.06-21.27,9.17-17.29-.69,1-2.49,4.79-6.07,7.09-7.34,3.14-1.74,7.62-1.82,9.83,1A6.65,6.65,0,0,1,82,32.78Z"/><path class="cls-4" d="M76.55,30.48c1.81,5.15-6.36,7.2-7.74,2.5a4.07,4.07,0,0,1,7.74-2.5Z"/><path class="cls-2" d="M74.2,74C67.58,79,58,81.14,49.78,80.6c-6.52-.43-16.34-1.93-21.12-6.57-6.09-5.92-5.69-18.1-4.08-25.89A27.33,27.33,0,0,1,40.39,29c10.83-4.57,24-1.92,33.22,5.32,4.52,3.54,8.31,8.21,9.93,13.71C86.29,57.38,82,68,74.2,74Z"/><path class="cls-5" d="M37,51.25a2,2,0,1,0,2,2A2,2,0,0,0,37,51.25Z"/><path class="cls-5" d="M68.66,51.25a2,2,0,1,0,2,2A2,2,0,0,0,68.66,51.25Z"/><path class="cls-5" d="M58.49,79.46a19.51,19.51,0,0,0-2.81-3,7.57,7.57,0,0,0-1.46-1.35c.31-1.56-.14-3.65-.17-5.21,0-2.7.08-5.47,0-8.19l.39-.1c1.24-.44,4.1-6.23,3-6.37-1.78-.2-11.66-1.85-9.31,2.5a8.37,8.37,0,0,0,4.46,3.9c-.09,1.85-.06,3.7-.06,5.53,0,1.36,0,2.73,0,4.09,0,.76.38,3.3.11,4a7,7,0,0,0-.84.8c-1,1.06-2.07,2.15-3,3.29a.58.58,0,0,0,.82.82c.73-.61,1.41-1.28,2.1-1.95.44-.42,1.33-1.65,2-1.54s1.49,1.49,1.86,1.87a12.84,12.84,0,0,0,2.1,1.87A.67.67,0,0,0,58.49,79.46Z"/><path class="cls-6" d="M96.52,95.53c-4.23-2.59-9.42,5.43-10.73,8.67-2.66,6.59,1.56,11.33,5.84,15.78-4.46-.43-10.38-.46-12.85,2.42-1.92,2.23-.6,5.44,2.4,5,1.25-.17.92-1.86,0-2.22a3.08,3.08,0,0,1,3.09-2.36,24.49,24.49,0,0,1,3.5-.46,31.31,31.31,0,0,1,6.63.27,1.18,1.18,0,0,0,1.13-2c-3.12-3.34-8.5-7.4-8.36-12.38.07-2.72,4.72-12.49,8.79-11.45A.73.73,0,0,0,96.52,95.53Z"/><path class="cls-2" d="M146.14,81.47c-1.18-5.22-5.41-8.42-9.61-11.23-1.23-.83-2.81-1.67-3.59-3-1.21-2.06-.45-5.07.22-7.14,1.29-4,4-7.82,8.55-7.68,1.52,0,1.73-1.85.71-2.62-8.84-6.64-16.57,12.08-13.83,18.65,2.23,5.34,9.2,6.36,11.49,11.74a7,7,0,0,1-4.23,9.44c-3,1.15-6.16-.08-9.21.74a2.42,2.42,0,0,0-1.06,4c3.81,3.72,10.83,2.45,15-.26S147.25,86.36,146.14,81.47Z"/><path class="cls-3" d="M141.72,45.87a10.26,10.26,0,0,1,7.51-.77,30.57,30.57,0,0,1,7.08,3.06c.27.14-8.82,7.28-10.5,7.57C138.49,57,134.86,49.86,141.72,45.87Z"/><path class="cls-6" d="M60.92,115.42a8.12,8.12,0,0,0-1-.39,23.46,23.46,0,0,0,.54-11.38c-.35-1.8-3-1-2.71.75a31.32,31.32,0,0,1-.26,10.19,50.26,50.26,0,0,0-7.36.59c-.72.07-1.48.11-2.25.17a1,1,0,0,0,0-.67c-.76-2.21-3.06-3.86-4.89-5.21a18.7,18.7,0,0,0-5.58-3,41.91,41.91,0,0,1,1-4.81c.39-1.81-2.26-3.18-3.15-1.33a8.53,8.53,0,0,0-.42,6.16,1.08,1.08,0,0,0,.19,1.78l.61.38c.16.36.34.71.53,1.07a.7.7,0,0,0,1.24,0,35.16,35.16,0,0,1,3.4,2.08c1.5,1.09,2.74,2.75,4.23,3.86a12.56,12.56,0,0,0-4,1.18A6.55,6.55,0,0,0,39,126.93c.6.71,1.6-.2,1.23-1-3.57-7.21,5.39-7.2,9.92-7.36,3.49-.12,7.77.44,10.78-1.5A1,1,0,0,0,60.92,115.42Z"/><path class="cls-7" d="M31.73,64.61c9.26.46,2.61,6.68-2.71,3.64C25.89,66.47,28.6,64.45,31.73,64.61Z"/><path class="cls-7" d="M74.61,64.61c9.26.46,2.61,6.68-2.71,3.64C68.77,66.47,71.48,64.45,74.61,64.61Z"/></g></g></svg>