<svg xmlns="http://www.w3.org/2000/svg" viewBox="0 0 3615.75 2820.58"><defs><style>.cls-1{opacity:0.2;}.cls-2{fill:#cdf9f1;}.cls-3,.cls-5{fill:#fff;}.cls-3{opacity:0.3;}.cls-4{fill:#9df4ed;}.cls-6{fill:#e23a1a;}.cls-7{fill:#ff673e;}.cls-8{fill:#ff542c;}.cls-12,.cls-14,.cls-15,.cls-16,.cls-17,.cls-9{fill:#ffe97d;stroke:#af2d00;stroke-linecap:round;stroke-linejoin:round;}.cls-9{stroke-width:16.35px;}.cls-10{fill:#ffaf78;}.cls-11{fill:#ffd899;}.cls-12{stroke-width:14.46px;}.cls-13{fill:#ff6170;}.cls-14{stroke-width:15.26px;}.cls-15{stroke-width:11.75px;}.cls-16{stroke-width:15.2px;}.cls-17{stroke-width:15.95px;}.cls-18{fill:#ce2813;}.cls-19{fill:#ffaebc;}.cls-20{fill:#fff4ee;}.cls-21{fill:#27a092;}.cls-22{fill:#0a1d28;}.cls-23{fill:#ffe8d9;}.cls-24{fill:#7a0c04;}.cls-25{fill:#d6434b;}.cls-26{fill:#602216;}</style></defs><g id="Layer_2" data-name="Layer 2"><g id="Layer_1-2" data-name="Layer 1"><path class="cls-1" d="M819.31,2624.94c-386.46,214.69,1450.94,265.93,1811.81,87.1C3046.71,2506.08,1113,2461.79,819.31,2624.94Z"/><path class="cls-1" d="M1118.67,2640.82c-259.12,143.95,972.84,178.31,1214.8,58.4C2612.12,2561.13,1315.58,2531.43,1118.67,2640.82Z"/><path class="cls-2" d="M3344.21,1186.58c-121.6,13.08-204.08,190.89-150.43,302.08s266.51,120.8,355.94,40S3562.6,1163.1,3344.21,1186.58Z"/><path class="cls-3" d="M3376.05,1187.87c-134-20.46-291.17,207.2-123.25,317s295.42-161.7,244.17-231.57S3433.85,1196.7,3376.05,1187.87Z"/><path class="cls-4" d="M3378.94,1167.41c-204.44,0-366.61,434.1,0,422.47S3639.4,1167.41,3378.94,1167.41Zm-99,322.27C3113.84,1422,3215.53,1175,3363.28,1204,3549.13,1240.53,3467,1565.94,3280,1489.68Zm71.67,61.54c55.6-7.47,152.88-87.09,156.2-182.55C3615.3,1478.94,3487.94,1591.56,3351.62,1551.22Z"/><path class="cls-5" d="M3290.32,1205.44c-77.47,29.37-99.7,174.53,19.52,140.21S3409.9,1160.11,3290.32,1205.44Z"/><path class="cls-5" d="M3331.34,1454.57c-36.44,11.64-27.91,67.66,12.87,60.82S3381.42,1438.58,3331.34,1454.57Z"/><path class="cls-2" d="M2963.8,532c-102.28,9.84-171.66,143.66-126.53,227.35s224.17,90.92,299.39,30.13S3147.5,514.27,2963.8,532Z"/><path class="cls-3" d="M2990.58,532.92c-112.69-15.4-244.91,155.94-103.67,238.58s248.49-121.7,205.38-174.29S3039.2,539.56,2990.58,532.92Z"/><path class="cls-4" d="M2993,517.52c-205.38-20.27-271.11,329.33,0,318C3263.61,824.13,3200.09,538,2993,517.52Zm-83.26,242.55c-139.73-51-54.19-236.83,70.09-215C3136.17,572.55,3067.07,817.46,2909.75,760.07ZM2970,806.38c46.77-5.62,128.59-65.54,131.39-137.39C3191.82,752,3084.7,836.74,2970,806.38Z"/><path class="cls-5" d="M2918.47,546.14c-65.16,22.11-83.86,131.35,16.42,105.53S3019.05,512,2918.47,546.14Z"/><path class="cls-5" d="M2953,733.64c-30.66,8.76-23.49,50.93,10.82,45.78S2995.1,721.61,2953,733.64Z"/><path class="cls-2" d="M215.71,808.23C68.93,822.35-30.63,1014.39,34.14,1134.5S355.83,1265,463.78,1177.74,479.34,782.86,215.71,808.23Z"/><path class="cls-3" d="M254.15,809.62C92.43,787.52-97.32,1033.41,105.37,1152S462,977.36,400.11,901.89,323.91,819.15,254.15,809.62Z"/><path class="cls-4" d="M257.64,787.52c-294.74-29.09-389.08,472.62,0,456.3C646,1227.53,554.81,816.85,257.64,787.52ZM138.15,1135.6c-200.52-73.16-77.77-339.87,100.58-308.53C463.07,866.5,363.92,1218,138.15,1135.6Zm86.51,66.46C291.77,1194,409.2,1108,413.21,1004.89,542.94,1124,389.21,1245.63,224.66,1202.06Z"/><path class="cls-5" d="M150.67,828.6C57.15,860.32,30.32,1017.1,174.22,980S295,779.63,150.67,828.6Z"/><path class="cls-5" d="M200.18,1097.67c-44,12.57-33.7,73.09,15.53,65.69S260.63,1080.4,200.18,1097.67Z"/><path class="cls-2" d="M3255.4,8.69C3203,14.28,3167.51,90.37,3190.62,138s114.78,51.7,153.3,17.13S3349.47-1.36,3255.4,8.69Z"/><path class="cls-3" d="M3269.12,9.24C3211.41.48,3143.71,97.91,3216,144.9s127.24-69.2,105.17-99.1S3294,13,3269.12,9.24Z"/><path class="cls-4" d="M3270.36.48c-105.16-11.52-138.82,187.26,0,180.8C3408.92,174.82,3376.4,12.1,3270.36.48ZM3227.73,138.4c-71.55-29-27.75-134.67,35.89-122.25C3343.66,31.77,3308.29,171,3227.73,138.4Zm30.87,26.33c23.94-3.2,65.84-37.27,67.27-78.12C3372.16,133.8,3317.31,182,3258.6,164.73Z"/><path class="cls-5" d="M3232.19,16.76c-33.36,12.57-42.94,74.69,8.41,60S3283.69-2.64,3232.19,16.76Z"/><path class="cls-5" d="M3249.86,123.37c-15.7,5-12,29,5.54,26S3271.43,116.53,3249.86,123.37Z"/><path class="cls-2" d="M511,265c-52.37,5.59-87.89,81.68-64.79,129.27S561,445.93,599.54,411.37,605.09,254.92,511,265Z"/><path class="cls-3" d="M524.74,265.52c-57.71-8.76-125.41,88.67-53.09,135.66s127.24-69.2,105.17-99.1S549.63,269.3,524.74,265.52Z"/><path class="cls-4" d="M526,256.76C420.82,245.24,387.16,444,526,437.56,664.54,431.1,632,268.38,526,256.76ZM483.35,394.68c-71.55-29-27.75-134.67,35.89-122.25C599.28,288.05,563.9,427.31,483.35,394.68ZM514.21,421c23.95-3.2,65.85-37.27,67.28-78.12C627.78,390.08,572.93,438.27,514.21,421Z"/><path class="cls-5" d="M487.81,273c-33.36,12.57-42.94,74.68,8.41,60S539.31,253.64,487.81,273Z"/><path class="cls-5" d="M505.48,379.65c-15.7,5-12,29,5.54,26S527.05,372.81,505.48,379.65Z"/><path class="cls-6" d="M1184.68,1144.52C1033,750.83,1074.31,179.29,1618,39.37,2309.33-138.57,2850,563.63,2604.79,1040c-167.82,326.09-515.81,220.79-513,399.92"/><path class="cls-6" d="M2103.57,1368.25c-109.49,224.49,473.66,293,665.29,35.61S2722.17,950,2645.65,1089c-103.59,188.23,49.27,136.88,49.27,191.64S2432.09,1319,2465,1146.5s355.88-407.93,536.59-90.34-257.36,624.2-470.93,668-122,229.32,186.16,197.12l-27.34,224.48c-251.9,0-470.91-164.26-596.86,27.39s-5.45,131.41,120.48,131.41-11,279.26-208.06,213.53S1735.31,2204.42,1479.81,2303c-317.6,226.54-653.67,492.73-958.65,187.77-197.13-197.12,64.17-319,175.22-186.16s344.95-60.22,251.87-164.28S622.45,2154,422.59,1954.14s-2.72-413.4,32.86-377.8,20,266.32,273.77,175.2c213.56-76.66,206.42-195,136.9-219-142.36-49.28-337.57-160.72-233.54-418s400.23-171.88,425.2-26.16c30.52,178.17-191.26,255.9-229.3,171.13-11.36-25.33,13.12-28.71,67.75-54.1C938,1185.93,986.6,1089,866.12,1089s-194.13,347.4,169.74,268.3c143.63-31.22,167.44-136.82,133.25-256.31"/><path class="cls-7" d="M690.92,1034.75c-27.12,37.35,16.19,32.9,72.29,8.24,97.63-42.92,190-15.63,212.11,39,38.4,94.92-78,165.41-68.77,180.82s114.56,23,152.78-120S830.86,842,690.92,1034.75Z"/><path class="cls-7" d="M2522.66,1032c-77.49,71.13-101.43,263.72,112.37,248.32,19.67-17-110.19-86.72-56.39-209.09S2554.35,991,2522.66,1032Z"/><path class="cls-8" d="M1992.34,1237.59c-52.75,156.5,56.85,340,334.84,351.17s495.21-126.87,531.68-320.31-143.67-282.12-222.42-204.36c104-149.3,365.38-59.83,342,256s-594.85,586.74-1016.89,325.6S1992.34,1237.59,1992.34,1237.59Z"/><path class="cls-9" d="M1037.16,1210.64c-.26,32.07-46.15,20.93-30.57-12.16S1037.28,1194.42,1037.16,1210.64Z"/><path class="cls-9" d="M1073.69,1133.73c-.24,25.94-36.39,32.36-36.09-2.63S1074,1094.54,1073.69,1133.73Z"/><path class="cls-9" d="M1067.73,1056c4.58,25.27-30.1,37.83-36.3,3.72S1060.76,1017.76,1067.73,1056Z"/><path class="cls-9" d="M1033.34,991c15.66,22.23-20.51,53.28-41.61,23.33S1009.65,957.4,1033.34,991Z"/><path class="cls-9" d="M973,942.33c23.84,19.82-7.11,62.86-39.2,36.14S937,912.38,973,942.33Z"/><path class="cls-9" d="M884.89,919.62c34.22,5.55,28.78,59.06-17.36,51.61S833.18,911.35,884.89,919.62Z"/><path class="cls-9" d="M795.41,935.89c36.38-4.53,47.36,48.68-1.68,54.83S740.43,942.8,795.41,935.89Z"/><path class="cls-9" d="M703.22,974.77c38.76-15.68,67.65,38.07,15.37,59.2S644.64,998.46,703.22,974.77Z"/><path class="cls-9" d="M626.44,1067.28c26.6-34.67,84.47-4.25,48.61,42.51S586.26,1119.7,626.44,1067.28Z"/><path class="cls-9" d="M582.43,1173c7.43-34.42,62.83-32.45,52.81,13.86S571.16,1225,582.43,1173Z"/><path class="cls-9" d="M583,1271.57c-6.31-31,42.37-48.86,50.9-7S592.59,1318.44,583,1271.57Z"/><path class="cls-9" d="M594.9,1363.16c-8.79-26.32,32.13-46.57,44-11.1S608.18,1402.94,594.9,1363.16Z"/><path class="cls-6" d="M352.53,1852.34c-189.59-378,222.58-596.07,393.52-458.57s-47.15,304.89-71.76,248.55,144.71-89.64-3.22-169.76c-128.73-69.73-227.53,94-161.54,245.23"/><path class="cls-6" d="M682.29,1478.92c61.15,40.56,44.64,113.29-15,107.41-43.51-4.29-14.24-60.83-31.69-67.93C593,1501,535.52,1647.58,647.91,1674.8s204.37-95.84,159-195.88"/><path class="cls-7" d="M597.22,1590.42c-12.09-63.43,39.15-88.56,44.47-38.18,4.95,46.84,77.85,72.27,104.68-4.74s-103-184.08-276.49-107.59c-74,29.3-43.5-15-3.89-41.34,142.91-86.25,355.92-23.81,357.19,133.1S616.9,1693.79,597.22,1590.42Z"/><path class="cls-10" d="M1067.3,1908.74c69.38,102.21-24.74,397.59-238.69,436C939.56,2317.57,965,2149.52,903,2109.4s-459.85,69.45-585.67-348.15C510.63,2147.85,997.93,1806.5,1067.3,1908.74Z"/><path class="cls-11" d="M1009.21,1945.3C1089.94,1978,1034,2134,990.73,2212.2s-28.77,30.1-22.6-42.6-22.35-83.54-176.55-93.53-157.72-78.31-38.35-83.16S918.83,1908.74,1009.21,1945.3Z"/><path class="cls-8" d="M1701.51,1965.56c-98.61-96.16-224.9,125.19-500.51,346.89-304.77,245.14-635.61,202.24-663-11.3,219,257.38,663-40.79,570.46-469.07C998,1772,722.05,2024.15,486,1828.84c-134.53-111.33-105-338.45,72.59-368.66-64.81,20.14-112.3,140.2-67.64,246.47s201.12,119.54,378.28-14.94c74.58-56.61,87.53-153.18-28.42-212.79-147.6-75.89-188.58-260.71-67.68-342.73C669.34,1369.27,942.23,1436.32,1097,1369s123-203,89.78-339.54c-23.75-85.1-53.72-278.8,74.62-425.54,270.37-309.11,744.22-179.58,787.89,213.33,38.34,345-241.85,463.23,1.37,823.38,158.3,234.39,567.47,414.23,869.27,223.65-154.26,292.17-454.53,246.45-773.18,113.34C2024,1926.4,1915.86,2243.47,2051,2388.71,1841.2,2304.38,1787.11,2049,1701.51,1965.56Z"/><path class="cls-6" d="M805.54,1789.75c152.71-51.2,212.09,71.38,92.84,107.09S698.41,1825.67,805.54,1789.75Z"/><path class="cls-12" d="M806.88,1538.67c-15.39,30.85-50.28,4.41-24.51-32.43C801.64,1478.77,816.8,1518.75,806.88,1538.67Z"/><path class="cls-12" d="M793.39,1436.44c16.31,31.68-18.41,55.08-40.43,12.4S768.8,1388.57,793.39,1436.44Z"/><path class="cls-12" d="M723.94,1364.73c30,19.3,13.6,58.12-26.89,32.07S678.58,1335.58,723.94,1364.73Z"/><path class="cls-12" d="M630.88,1342.17c36.17,7.82,37.66,64.5-11.11,54S576.16,1330.48,630.88,1342.17Z"/><path class="cls-12" d="M532.66,1344.62c40.6-.89,58.89,62.52,4.15,63.73S471.25,1346,532.66,1344.62Z"/><path class="cls-12" d="M430.56,1389.53c34.69-22,85.32,30.79,38.6,60.47S378.17,1422.85,430.56,1389.53Z"/><path class="cls-12" d="M358.1,1462.73c26.1-32.82,90.31,6.7,55.13,51S318.67,1512.38,358.1,1462.73Z"/><path class="cls-12" d="M306.79,1570.12c16.61-44.83,96.62-18.87,74.19,41.53S281.61,1637.84,306.79,1570.12Z"/><path class="cls-12" d="M293.32,1715c-7-53.61,67.1-70.51,85.06.19S304,1796,293.32,1715Z"/><path class="cls-12" d="M368.14,1860.34c-29.17-37.06,19.7-79.11,59.05-29.13S412.3,1916.32,368.14,1860.34Z"/><path class="cls-12" d="M495.11,1930.92c-37.39-23.16-14.57-77.72,35.86-46.53S551.66,1965.89,495.11,1930.92Z"/><path class="cls-12" d="M634.24,1954c-37.93,6.85-56.8-42.12-5.69-51.37S691.56,1943.67,634.24,1954Z"/><path class="cls-12" d="M759,1935.74c-27.44,11.81-53-22.16-16-38.11S800.47,1917.85,759,1935.74Z"/><path class="cls-12" d="M854.1,1898c-25.25,1.15-35.33-33.33-1.32-34.94S892.22,1896.23,854.1,1898Z"/><path class="cls-6" d="M696.38,2304.58c-139.64-139.63-84-369.53,87.61-334,119,24.63,11,125.91,63,177.94s221.89-229.84-28.67-308.35S253,1993.32,471.93,2428.2"/><path class="cls-8" d="M634.85,2375c-103.26-53.13-143.84-242.61-79.63-388.22s259.23-102.23,302.69-28.4,22.49,130.39,53,129.08,60.89-178.77-102.81-238.61-382.82,50.87-390.52,257.32S575.64,2548.62,864.07,2473"/><path class="cls-8" d="M1219,1150.69C1114.48,974.83,1034.85,473.24,1323.53,214c299.78-269.18,776.62-175.19,968,114.88,352.75,534.71-286.11,695-311.21,991.17"/><path class="cls-7" d="M1631.16,106c-492.38,12.32-746,867-116.59,985.73C2183.83,1218,2476.62,84.87,1631.16,106Z"/><path class="cls-10" d="M3027,1312.65c-104.23,170.32-332.28,379.14-556.07,397.14s-136.68,188.47,142.45,217.44C2574.92,1835.73,2991.63,1725.89,3027,1312.65Z"/><path class="cls-11" d="M2908.31,1540.19c-90.58,84.93-249.88,170.5-350.16,203.73-92.83,30.77-31.19,129.48,68.64,93.31s227.15-152.11,286.78-238.3S2950,1501.14,2908.31,1540.19Z"/><path class="cls-10" d="M2192.52,2026.47c-113.17,38.31-181.94,220.84-80.76,270.58-4.44-65.6,54-227.92,258.14-190.82C2253.07,2024.13,2192.52,2026.47,2192.52,2026.47Z"/><path class="cls-10" d="M738.58,2617.79c211.94-11.75,387.14-117.73,606.16-336.73s330.35-275.57,474.56-47.45,307.92,322.9,529.93,236.31c-148.65,148.64-370.29,187.79-624.88-83-136-144.69-266.44-43.79-427,65.71S855.35,2664.64,738.58,2617.79Z"/><path class="cls-6" d="M2063.38,2220.91c0,40.07,51.18,113,172.45,48.75s38.72-249.56-89.39-214.91c-63.86,17.25-90.5,5.69-60.24-39.7,73.93-110.87,301.18-154.67,400.67,114.31,111.87,302.32-368.51,604.11-587,234"/><path class="cls-11" d="M1633.72,2177c-148.51-28.93-283.5,152.47-345.13,205.66s-47.24,75.78,49.31,20.31,174.62-128,287.6-97.91,201.83,194.86,261.15,190.55S1791.9,2207.84,1633.72,2177Z"/><path class="cls-13" d="M1194.5,1073.1c18.74,63.33,178.78,110.13,178.49,9.79C1372.73,993.82,1149,919.3,1194.5,1073.1Z"/><path class="cls-8" d="M2380.79,2421.93c260.36-212.89-16.36-664.25-264.95-421.65,161.54-63.92,337.63,98.24,232.78,265.93-63.69,101.85-363.66,143-358.5-91.24-75-110.94-173.85-148.89-155.56-13.49C1863.79,2377.79,2142.69,2616.61,2380.79,2421.93Z"/><path class="cls-6" d="M2716.82,1921.3c312.13-43.82,242-187.63,186.18-208.08-102.83-37.65-66.17,103.34-134.71,62.38-94-56.19,93.29-312.42,255.16-100.72,130,169.92-78,502.15-379.18,469.2"/><path class="cls-7" d="M2795.69,1682c76.09-80.54,178.8-12.66,203.39,52.06,34.86,91.72-7.34,168.69,36,165.63s55.79-189.34-29.84-252S2793.07,1582.5,2795.69,1682Z"/><path class="cls-14" d="M850.13,1819.44c52.78,13.2,30.16,71.2-21.58,47.44S825,1813.16,850.13,1819.44Z"/><path class="cls-15" d="M939.18,1918.33c19.83,36.92-24.94,54.08-38.21,12.29S929.75,1900.78,939.18,1918.33Z"/><path class="cls-14" d="M736.75,1789.75c41.41,0,49.12,55.83-6.73,55.83S674.19,1789.75,736.75,1789.75Z"/><path class="cls-14" d="M623.78,1812.94c40.73-7.43,58.33,46.13,3.42,56.14S562.22,1824.18,623.78,1812.94Z"/><path class="cls-14" d="M505.68,1865.84c36.56-24.52,83.62,31,34.33,64.08S450.38,1902.94,505.68,1865.84Z"/><path class="cls-14" d="M425.88,1959.82c33.32-37.12,99.89,10.2,55,60.25S375.54,2016,425.88,1959.82Z"/><path class="cls-14" d="M378.22,2096.13c11.24-53,96.31-45.34,81.19,26.23S361.27,2176.3,378.22,2096.13Z"/><path class="cls-14" d="M369.06,2240.64c-4.69-56.24,81-73.88,87.36,2S376.13,2325.63,369.06,2240.64Z"/><path class="cls-14" d="M414.36,2392.53c-22.27-59.78,65.68-105.19,95.73-24.55S448.06,2482.9,414.36,2392.53Z"/><path class="cls-14" d="M524.71,2545c-53.49-40.71-.75-130.64,71.37-75.77S605.62,2606.42,524.71,2545Z"/><path class="cls-14" d="M704.84,2623.93c-54.38-11.1-47.4-96.88,25.91-81.94S787.06,2640.66,704.84,2623.93Z"/><path class="cls-14" d="M871.07,2632.33c-50,10.21-75-64.89-7.59-78.66S946.67,2616.89,871.07,2632.33Z"/><path class="cls-14" d="M1019.19,2585.62c-42.66,14-72.08-49.14-14.56-68S1083.67,2564.52,1019.19,2585.62Z"/><path class="cls-14" d="M1147.47,2509c-30.32,18.19-64-25.08-23.21-49.67S1193.26,2481.33,1147.47,2509Z"/><path class="cls-14" d="M1263,2420.69c-25.65,15.42-54.19-21.16-19.62-41.94S1301.67,2397.36,1263,2420.69Z"/><path class="cls-12" d="M2482.34,1092.79c-23.74,33,29.31,54.26,38.81,9.34S2494.31,1076.15,2482.34,1092.79Z"/><path class="cls-12" d="M2520,1008c-19.13,26.66,11.27,59,37.1,23S2548.94,967.7,2520,1008Z"/><path class="cls-12" d="M2586.37,946.63c-23.34,22.56,1.05,60.09,32.55,29.66S2621.71,912.51,2586.37,946.63Z"/><path class="cls-12" d="M2673.18,896.47c-31.85,11.52-19.81,69,23.1,53.46S2721.29,879.05,2673.18,896.47Z"/><path class="cls-12" d="M2767.2,891.16c-38,3.27-40,69.22,11.23,64.81S2824.65,886.19,2767.2,891.16Z"/><path class="cls-12" d="M2872.2,912.08c-37.47-18.7-72.14,39.82-21.68,65.11S2928.76,940.42,2872.2,912.08Z"/><path class="cls-12" d="M2964.32,991.94c-32.05-30.48-82.48,16-39.28,57.19S3012.73,1038.13,2964.32,991.94Z"/><path class="cls-12" d="M3035.76,1095.45c-26.1-43.58-94.36-9.21-59.2,49.58S3075.16,1161.36,3035.76,1095.45Z"/><path class="cls-12" d="M3067.36,1251.13c0-54.39-79.13-64.44-79.07,8.83S3067.36,1333.27,3067.36,1251.13Z"/><path class="cls-12" d="M3031.25,1384.8c18.43-40.46-37-77.93-61.81-23.46S3003.41,1445.91,3031.25,1384.8Z"/><path class="cls-12" d="M2970.35,1506.79c29.41-27.23-4.75-80-44.29-43.39S2926.06,1547.88,2970.35,1506.79Z"/><path class="cls-12" d="M2866.67,1579.24c28.18-20.62,3.44-70.47-34.62-42.66S2824,1610.42,2866.67,1579.24Z"/><path class="cls-12" d="M2753.17,1638.64c25.06-10.59,14.36-53.48-19.53-39.2S2715.19,1654.63,2753.17,1638.64Z"/><path class="cls-12" d="M2646.76,1684.18c21.24-8.94,12.16-45.23-16.46-33.18S2614.67,1697.66,2646.76,1684.18Z"/><path class="cls-13" d="M1759.5,1114.63c41.9-51.54,218-32.26,180.84,60.94C1907.35,1258.31,1657.76,1239.79,1759.5,1114.63Z"/><path class="cls-8" d="M2961.85,1812.37c-14.41,79.61-227.57,146.51-417.58,125.39-85.24,6.61-134.54,135.5,31.86,141.92S2964.66,1994.75,2961.85,1812.37Z"/><path class="cls-16" d="M2776,1640.86c-32.63,7.38-11.53,49.34,18.77,26.88S2792.38,1637.14,2776,1640.86Z"/><path class="cls-16" d="M2838.14,1589c-26.33,6-25.18,42.44,10.29,34.37S2877.87,1579.94,2838.14,1589Z"/><path class="cls-16" d="M2919.6,1585.07c-26.66,1.21-32.09,37.57,3.9,36S2959.92,1583.31,2919.6,1585.07Z"/><path class="cls-16" d="M2993.14,1610.91c-25.89-10.22-49.81,31.72-14.89,45.5S3032.24,1626.39,2993.14,1610.91Z"/><path class="cls-16" d="M3053.59,1666.39c-25.19-18.65-62.31,20.87-28.38,46S3091.66,1694.66,3053.59,1666.39Z"/><path class="cls-16" d="M3092.76,1750.46c-12.88-31.89-66.06-14.73-48.73,28.33S3112.23,1798.72,3092.76,1750.46Z"/><path class="cls-16" d="M3089.46,1834.69c-3.08-36.25-59.5-35-55.3,13.84S3094.14,1889.49,3089.46,1834.69Z"/><path class="cls-16" d="M3067.06,1927.26c7.64-41-53.09-57.07-63.47-1.72S3055.42,1989.29,3067.06,1927.26Z"/><path class="cls-16" d="M2999.63,2025.89c29.54-33.45-13.66-82.71-53.52-37.59S2954.85,2076.5,2999.63,2025.89Z"/><path class="cls-16" d="M2906,2097.16c33.39-14.82,19.67-68.08-25.24-48.08S2855.64,2119.65,2906,2097.16Z"/><path class="cls-16" d="M2800.65,2141.33c32.9-.78,40.66-51.91-3.62-50.86S2751,2142.5,2800.65,2141.33Z"/><path class="cls-16" d="M2704.56,2153.92c28.62,2.65,40.48-41.52,1.92-45.1S2661.29,2149.86,2704.56,2153.92Z"/><path class="cls-16" d="M2604.53,2138.78c21.2,7.13,37.93-25.11,9.29-34.79S2572.43,2127.94,2604.53,2138.78Z"/><path class="cls-16" d="M2519.4,2130.89c18,6.06,32.15-21.22,7.95-29.38S2492.31,2121.77,2519.4,2130.89Z"/><path class="cls-17" d="M2093.79,1979.63c-23.69,31.57,20.79,54.23,45.29,8.93C2157.38,1954.73,2109.1,1959.27,2093.79,1979.63Z"/><path class="cls-17" d="M2187.48,1912.54c-38.42,12.8-30.93,60.73,20.88,43.42S2245.51,1893.14,2187.48,1912.54Z"/><path class="cls-17" d="M2301.91,1897c-42-3.12-61.09,59-4.5,63.22S2365.37,1901.64,2301.91,1897Z"/><path class="cls-17" d="M2421.65,1942c-37.22-27.59-95.39,20.25-45.23,57.51S2477.92,1983.74,2421.65,1942Z"/><path class="cls-17" d="M2502.62,2052.05c-18-43.67-99.36-27.25-75.19,31.67S2529.73,2118.06,2502.62,2052.05Z"/><path class="cls-17" d="M2530.72,2173.6c-2.92-48.29-88.37-53.3-84.37,11.78S2535.21,2246.53,2530.72,2173.6Z"/><path class="cls-17" d="M2507,2307.72c13.63-53.31-77.63-81.62-96-9.72S2486.43,2388.33,2507,2307.72Z"/><path class="cls-17" d="M2420.36,2449.88c46.46-40.73-16.62-110.91-79.23-56S2350.19,2511.47,2420.36,2449.88Z"/><path class="cls-17" d="M2256.32,2537.89c51.25-15.75,33.09-87.73-36-66.52S2178.9,2561.66,2256.32,2537.89Z"/><path class="cls-17" d="M2092.38,2520.79c49.83,2.84,64-63.77-3.13-67.61S2017.06,2516.53,2092.38,2520.79Z"/><path class="cls-17" d="M1947.88,2450.88c30.84,31.51,80.22-2.35,38.69-44.8S1901.32,2403.23,1947.88,2450.88Z"/><path class="cls-17" d="M1843.74,2351.27c17.86,29.24,63.72,14,39.66-25.44S1816.75,2307,1843.74,2351.27Z"/><path class="cls-17" d="M1779.77,2252.84c22.73,17.75,54.51-8.24,23.9-32.12S1745.41,2226,1779.77,2252.84Z"/><path class="cls-18" d="M1713,1089.26c-63.48-47.29,7.8-261.72,130-279.13s163.56,88.9,160.59,137.7C1996.7,1061.22,1825.62,1173.16,1713,1089.26Z"/><path class="cls-19" d="M1725.88,1094c-50.87-42.06-14-232.18,97.58-257,113.52-25.29,157.78,69.22,155.4,120.09C1973.86,1064.05,1826.06,1176.87,1725.88,1094Z"/><path class="cls-20" d="M1728.53,1091.23c-52.92-40.08-1.87-222.69,101.4-239.08s143.19,68.32,140.14,104C1961.73,1053.67,1829.47,1167.69,1728.53,1091.23Z"/><path class="cls-21" d="M1875.34,869.69c152.8,56.79,4.58,300.37-117.53,226.62C1682.71,1051,1760,826.82,1875.34,869.69Z"/><path class="cls-22" d="M1871.89,909.21c114.86,69.62-37.8,242.8-108,172.1C1697.88,1014.7,1787.49,858.06,1871.89,909.21Z"/><path class="cls-20" d="M1835.23,1039.33c1.55-18.8,76,2,70.7,23.6C1896.6,1100.52,1831.84,1080,1835.23,1039.33Z"/><path class="cls-23" d="M1778.8,967.58c16.62,3.34,12.57,30.28-7.94,25.6S1762.18,964.23,1778.8,967.58Z"/><path class="cls-18" d="M1364.45,1016.67c72.17-40.89,56.62-252.38-43.12-291.88s-143.42,83.48-147.71,138C1164.26,982.16,1260.78,1075.44,1364.45,1016.67Z"/><path class="cls-19" d="M1351.19,1016.87c61.5-29.73,63.25-228.21-30.13-262-89.63-32.48-132.51,54.66-134.87,98.51C1180.32,962.42,1242.06,1069.65,1351.19,1016.87Z"/><path class="cls-20" d="M1348.13,1013.26c55.16-22.4,73.3-195.6-4.56-243-75.32-45.84-144.64,37.29-144.63,112.61C1199,992.86,1264.43,1047.22,1348.13,1013.26Z"/><path class="cls-21" d="M1361.37,786c-145.25-64.67-165,210.64-62.55,237.84C1415.62,1054.85,1424,847,1361.37,786Z"/><path class="cls-22" d="M1370.33,819.53c-126.52-33.14-142.86,189.28-42.21,200C1408.37,1028.13,1423,841.28,1370.33,819.53Z"/><path class="cls-20" d="M1286.18,951.92c0-18.48-69.72-15.16-66.71,6.92C1224.7,997.26,1286.07,991.81,1286.18,951.92Z"/><path class="cls-23" d="M1387,903.79c-12.93-10.22-25.07,10.38-8.8,22.64S1399.87,914,1387,903.79Z"/><path class="cls-24" d="M1381.62,1092.41c12.66-6.21,49.76,35,142.62,47.72s152-7.69,173.19-2.75,17.89,28.45-.64,19.29c-36.61-17.51-63.56,109.22-183,85.91-101.86-19.88-88-132-128.88-136.79C1372.52,1114.63,1360.72,1093.34,1381.62,1092.41Z"/><path class="cls-25" d="M1623.31,1192.75c-27.65-44-125-34.11-155.71,25C1513.79,1247.07,1600.1,1244.41,1623.31,1192.75Z"/><path class="cls-26" d="M2043.35,722.81c4-73.25-42.68-146.91-121.56-129.59-17.81,9.68-28.28,22.63-11,21.56S2020.71,622.18,2043.35,722.81Z"/><path class="cls-26" d="M1227.38,526.48c35.94-64.18,95-93.92,150.42-39,8.66,18.51,9.89,35.52-2.93,24.6S1298.55,454.61,1227.38,526.48Z"/><path class="cls-11" d="M2115.84,2106.23c-44.26,51.78-20.35,133.13,42.53,61.9S2160.09,2054.45,2115.84,2106.23Z"/><path class="cls-6" d="M2248.35,386.21c-115.46,18.51-27.64,214.66,71.16,214.66C2442.76,600.87,2405.82,361,2248.35,386.21Z"/><path class="cls-6" d="M2258.3,783.35c-53.61-44.34-91.38,86.18-41.36,105S2315.15,830.36,2258.3,783.35Z"/><path class="cls-6" d="M2161.17,214.83c-62.72,24.12-10.08,113.38,51.22,97.28C2268.44,297.39,2227.43,189.35,2161.17,214.83Z"/><path class="cls-6" d="M2215.09,639.67c-54.45-5.86-49.31,79.89,0,77.84S2282.79,647,2215.09,639.67Z"/><path class="cls-6" d="M1318.47,2080c-122,53.91-49.54,225.21,51.71,131.84S1461.34,2016.88,1318.47,2080Z"/><path class="cls-6" d="M1167.84,2258.7c-84.87-2.34-56.86,109.3,3.06,77S1224.77,2260.27,1167.84,2258.7Z"/><path class="cls-6" d="M1443.62,1955c-44.38,1.24-62.83,76.33-6.28,75.32S1479.57,1954,1443.62,1955Z"/><path class="cls-6" d="M2276.72,1667.91c-75.6-9.15-125.63,78.82-14.55,99.84S2381.48,1680.6,2276.72,1667.91Z"/><path class="cls-6" d="M2423,1634.19c-40.23,7.34-48.88,57.27,0,56.61S2493.24,1621.37,2423,1634.19Z"/><path class="cls-6" d="M1020.26,1735.35c-45-17.16-51.84,53.35-8.85,54.4S1058,1749.73,1020.26,1735.35Z"/><path class="cls-6" d="M925.64,1372.31c-61.13-8.63-81.84,81.67,9.72,99.32S1003.53,1383.31,925.64,1372.31Z"/><path class="cls-6" d="M1069.3,1392.87c-35.09,2.47-26.29,48.33,0,48.39C1097.77,1441.33,1117.47,1389.47,1069.3,1392.87Z"/></g></g></svg>