<svg id="Capa_1" enable-background="new 0 0 511.995 511.995" height="512" viewBox="0 0 511.995 511.995" width="512" xmlns="http://www.w3.org/2000/svg"><g><ellipse cx="73.873" cy="247.348" fill="#ffbe9d" rx="66.373" ry="60.279"/><ellipse cx="101.742" cy="90.205" fill="#383c43" rx="70.793" ry="62.461"/><path d="m371.871 484.251c10.09 0 17.798-8.916 16.46-18.917-9.245-69.112-68.437-122.417-140.079-122.417s-130.834 53.305-140.079 122.417c-1.338 10.001 6.37 18.917 16.46 18.917z" fill="#8fd9a9"/><path d="m223.709 394.907h49.086v89.345h-49.086z" fill="#6ac65e"/><ellipse cx="422.659" cy="247.348" fill="#ffbe9d" rx="66.373" ry="60.279"/><path d="m434.168 247.697c0 92.372-83.237 155.272-185.916 155.272-102.678 0-185.916-62.901-185.916-155.272s83.238-167.253 185.916-167.253c102.679 0 185.916 74.882 185.916 167.253z" fill="#ffd3bd"/><path d="m248.252 402.97c26.088 0 50.916-4.068 73.448-11.641-247.627-26.162-208.899-220.666-130.661-302.803-74.681 21.71-128.703 84.76-128.703 159.172.001 92.371 83.238 155.272 185.916 155.272z" fill="#ffbe9d"/><g><g><path d="m184.896 294.907c.008 16.294-16.572 29.51-37.032 29.521-20.461.01-37.054-13.19-37.062-29.483-.008-16.294 16.572-29.511 37.032-29.521 20.461-.011 37.054 13.19 37.062 29.483z" fill="#eda1ab"/><path d="m311.608 294.844c.008 16.294 16.601 29.494 37.062 29.483 20.46-.01 37.04-13.227 37.032-29.52-.008-16.294-16.601-29.494-37.062-29.484-20.46.01-37.04 13.227-37.032 29.521z" fill="#eda1ab"/><path d="m284.56 281.52c-.011-22.443-16.271-24.543-36.327-24.533s-36.314 2.127-36.302 24.57c.011 22.443 16.279 40.628 36.335 40.617 20.056-.01 36.305-18.212 36.294-40.654z" fill="#4e5660"/></g></g><path d="m375.469 190.381c9.014 30.752 12.923 89.561 8.112 127.848-1.463 11.641 12.05 19.123 21.128 11.689 26.501-21.703 44.702-61.162 44.702-117.498 0-101.591-73.008-152.428-201.165-152.428s-201.165 50.838-201.165 152.428c0 55.917 17.931 95.207 44.112 117.011 9.158 7.627 22.866-.278 21.075-12.06-6.484-42.642-4.642-113.76 16.395-158.366 19.9 17.763 170.29 57.839 246.806 31.376z" fill="#4e5660"/><path d="m111.093 357.557c5.758-13.901-3.257-35.399 21.649-57.671 4.336-3.877 2.524-11.085-3.177-12.236-29.829-6.023-73.497.832-90.291 37.472-9.374 20.453-.555 45.02 20.2 53.705 20.138 8.427 43.272-1.119 51.619-21.27z" fill="#cde9fa"/><path d="m109.154 361.568c-52.454 2.261-51.307-51.459-34.514-69.369-14.761 5.961-27.796 16.409-35.366 32.924-9.374 20.453-.555 45.02 20.2 53.705 18.749 7.845 40.089.106 49.68-17.26z" fill="#a2ddfd"/><path d="m437.437 353.077c-5.111-12.339 2.891-31.42-19.216-51.189-3.848-3.441-2.241-9.838 2.82-10.86 26.476-5.346 65.235.739 80.141 33.26 8.321 18.154.493 39.96-17.929 47.668-17.873 7.479-38.407-.994-45.816-18.879z" fill="#cde9fa"/><path d="m483.254 371.956c5.255-2.199 9.644-5.548 13.045-9.629-45.846-6.715-47.107-56.068-37.343-70.693-13-3.077-26.582-2.895-37.915-.606-5.06 1.022-6.668 7.419-2.82 10.86 22.107 19.769 14.105 38.85 19.216 51.189 7.409 17.886 27.943 26.358 45.817 18.879z" fill="#a2ddfd"/><path d="m365.746 194.891-4.523-4.523c-5.74-5.74-5.74-15.046 0-20.786l49.552-49.552c5.74-5.74 15.046-5.74 20.786 0l4.523 4.523c5.74 5.74 5.74 15.046 0 20.786l-49.552 49.552c-5.74 5.74-15.046 5.74-20.786 0z" fill="#6ac65e"/><path d="m327.048 237.599h-.013c-13.858.007-25.127 11.288-25.12 25.146.002 4.141 3.359 7.496 7.5 7.496h.004c4.142-.002 7.498-3.362 7.496-7.504-.003-5.587 4.54-10.136 10.128-10.139h.005c5.585 0 10.131 4.543 10.134 10.128.002 4.141 3.359 7.496 7.5 7.496h.004c4.142-.002 7.498-3.362 7.496-7.504-.007-13.853-11.281-25.119-25.134-25.119zm180.953 83.563c-6.381-13.92-16.786-23.706-28.979-30.045 30.985-33.522 19.496-85.139-23.791-104.612-1.917-14.368-5.474-27.724-10.662-39.922 5.272-8.553 4.226-19.928-3.182-27.335l-4.522-4.521c-4.44-4.441-10.531-6.887-17.24-6.427-7.334-7.791-15.784-14.855-25.176-21.031-3.461-2.275-8.112-1.315-10.388 2.146-2.275 3.461-1.315 8.111 2.147 10.387 6.946 4.568 13.3 9.666 18.98 15.21l-49.268 49.267c-6.586 6.586-8.145 16.311-4.707 24.399-77.294 13.121-201.05-20.535-217.556-35.268-3.741-3.338-9.643-2.131-11.777 2.396-14.022 29.732-21.483 75.156-20.308 122.707-11.246.838-22.53 3.431-32.85 8.103-9.375-20.676-14.139-45.583-14.139-74.196 0-108.459 86.064-144.928 193.664-144.928 42.526 0 78.825 5.723 107.89 17.008 3.865 1.501 8.208-.417 9.706-4.276 1.5-3.861-.415-8.207-4.276-9.706-54.946-21.334-135.544-22.168-189.4-10.872-12.972-23.795-40.451-39.403-70.425-39.403-43.171 0-78.293 31.385-78.293 69.961 0 21.36 10.809 41.309 29.23 54.534-5.628 12.711-9.448 26.654-11.446 41.795-25.193 11.365-41.233 34.783-41.233 60.815 0 26.205 16.059 49.408 40.958 60.693-24.631 31.429-10.886 66.613 15.62 77.706 21.637 9.053 45.859.677 57.74-18.183 7.577 5.948 15.701 11.311 24.291 16.078-20.508 22.367-33.85 50.65-37.869 80.698-1.65 12.334 6.517 24.118 18.593 26.827 4.029.904 8.05-1.623 8.96-5.677.906-4.042-1.635-8.053-5.677-8.96-4.559-1.023-7.638-5.504-7.009-10.202 3.801-28.413 16.875-55.081 36.978-75.649 19.465 8.852 40.916 14.856 63.624 17.762v68.31h-59.174c-4.143 0-7.5 3.358-7.5 7.5s3.357 7.5 7.5 7.5h214.835c14.602 0 25.836-12.902 23.895-27.412-4.02-30.061-17.367-58.358-37.888-80.728 26.115-14.46 47.352-34.189 61.787-57.512 1.427-1.537 2.821-3.121 4.176-4.76 5.595 12.282 2.26 23.962 6.67 34.608 8.964 21.641 33.821 32.056 55.641 22.928 22.5-9.416 31.859-35.872 21.85-57.713zm-51.258-116.844c29.926 19.029 33.363 57.765 6.969 80.815-5.864-1.629-11.904-2.625-17.929-3.065 8.816-24.298 11.949-52.149 10.96-77.75zm-90.216-29.432 49.553-49.553c2.812-2.812 7.364-2.814 10.179.001l4.523 4.522c2.807 2.806 2.807 7.373 0 10.179l-49.552 49.552c-2.808 2.807-7.375 2.806-10.181 0l-4.521-4.522c-2.807-2.806-2.807-7.373-.001-10.179zm-328.078-84.681c0-30.306 28.394-54.961 63.293-54.961 22.997 0 44.09 10.992 55.178 28.068-40.113 10.954-76.001 31.765-97.299 67.891-13.379-10.374-21.172-25.24-21.172-40.998zm1.295 114.147c-1.13 29.913 3.158 62.347 15.903 89.739-1.091.773-2.159 1.582-3.21 2.417-43.711-15.263-50.665-67.959-12.693-92.156zm64.42 150.335c-6.765 16.333-25.482 24.049-41.795 17.222-17.002-7.115-23.804-27.238-16.276-43.662 13.558-29.579 49.634-39.43 81.067-33.426-26.406 24.069-18.289 48.5-22.996 59.866zm161.131 122.064h-34.086v-66.855c12.005.798 22.837.738 34.086-.022zm115.602-10.422c.738 5.514-3.467 10.422-9.027 10.422h-91.575v-68.345c22.541-2.915 44.073-8.896 63.601-17.75 20.117 20.57 33.199 47.248 37.001 75.673zm-260.806-113.366c2.542-14.793-1.501-30.359 17.65-47.486 8.943-7.996 5.049-22.808-6.691-25.178-4.665-.943-9.524-1.571-14.479-1.879-1.06-41.297 4.585-80.641 15.477-108.324 17.382 9.233 52.484 19.954 90.571 27.281 32.267 6.207 92.518 14.83 139.653 4.446 2.778 2.227 5.97 3.681 9.293 4.376 6.472 32.292 8.513 79.754 4.575 111.096-1.259 10.019 4.851 19.287 14.466 22.196-64.912 70.029-197.331 74.307-270.515 13.472zm299.466-69.287c-11.102 2.242-14.788 16.243-6.334 23.803.495.442.965.883 1.425 1.323-4.445 5.81-9.365 10.952-14.691 15.314-3.887 3.183-9.546-.081-8.935-4.951 4.142-32.963 2.144-80.956-4.565-115.011 5.256-2.755 3.616-2.675 46.777-45.358 13.658 37.743 10.375 89.376-3.56 123.419-3.449.315-6.838.799-10.117 1.461zm60.802 81.361c-14.066 5.886-30.174-.782-35.993-14.831-4.003-9.662 2.835-31.052-19.385-52.282 25.432-4.301 57.228 2.97 69.383 29.489 6.546 14.281.516 31.549-14.005 37.624zm-310.934-127.359h-.013c-6.714.003-13.024 2.621-17.77 7.37-4.745 4.75-7.355 11.062-7.353 17.776.002 4.141 3.359 7.496 7.5 7.496h.004c4.142-.002 7.498-3.362 7.496-7.504-.001-2.707 1.052-5.252 2.965-7.167 1.912-1.915 4.457-2.97 7.164-2.971h.005c2.705 0 5.248 1.053 7.162 2.964 1.915 1.913 2.971 4.457 2.972 7.164.002 4.141 3.359 7.496 7.5 7.496h.004c4.142-.002 7.498-3.362 7.496-7.504-.003-6.713-2.621-13.024-7.371-17.769-4.746-4.74-11.053-7.351-17.761-7.351zm78.805 11.808c-15.313.008-43.815.022-43.799 32.074.014 26.536 19.667 48.113 43.818 48.113h.021c24.159-.012 43.804-21.615 43.791-48.157-.017-32.052-28.539-32.016-43.831-32.03zm.032 65.188h-.013c-15.882 0-28.809-14.855-28.818-33.121-.007-13.546 5.916-17.055 28.807-17.067h.108c22.8 0 28.708 3.513 28.715 17.037.008 18.272-12.911 33.143-28.799 33.151z"/></g></svg>