<svg id="Layer_1" enable-background="new 0 0 512.001 512.001" height="512" viewBox="0 0 512.001 512.001" width="512" xmlns="http://www.w3.org/2000/svg"><g><g><path d="m255.866 266.25c-66.991 0-123.202-19.671-167.071-58.466-21.4-18.926-38.937-41.769-52.194-67.973-.951-1.88 1.95-28.564 3.534-30.002 2.378-2.158 5.199-4.753 8.427-7.721 57.388-52.776 115.64-101.672 152.969-102.08 18.486-.212 34.353 3.779 47.136 11.833 4.373 2.755 10.025 2.754 14.399-.001 12.781-8.054 28.637-12.024 47.134-11.832 37.329.408 95.581 49.304 152.971 102.081 3.228 2.969 6.049 5.563 8.427 7.721 1.583 1.437 4.484 28.122 3.534 30.002-13.257 26.203-30.794 49.047-52.194 67.972-43.871 38.795-100.082 58.466-167.072 58.466z" fill="#ff405c"/></g><path d="m471.598 109.81c-2.378-2.158-5.199-4.753-8.427-7.721-57.39-52.777-115.642-101.673-152.971-102.081-18.498-.192-34.353 3.778-47.134 11.832-2.187 1.377-4.694 2.066-7.2 2.067v252.343c66.991 0 123.202-19.671 167.071-58.466 21.4-18.926 38.938-41.77 52.194-67.972.951-1.879-1.95-28.564-3.533-30.002z" fill="#c1126b"/><path d="m35.984 113.525c-6.505 5.698-5.526 13.509-2.17 20.597.907 1.914 1.84 3.809 2.791 5.688h438.523c.951-1.88 1.884-3.773 2.79-5.688 1.719-3.63 3.27-6.752 2.817-10.917-.403-3.708-2.175-7.219-4.987-9.681-1.177-1.031-2.57-2.281-4.149-3.715h-431.466c-1.579 1.435-2.972 2.685-4.149 3.716z" fill="#d0004f"/><path d="m480.734 123.206c-.403-3.708-2.175-7.219-4.987-9.681-1.177-1.031-2.57-2.281-4.149-3.715h-215.732v30h219.261c.951-1.88 1.884-3.773 2.79-5.688 1.719-3.63 3.27-6.752 2.817-10.916z" fill="#a20f59"/><g><path d="m335.164 512.001h-110.219c-8.284 0-15-6.716-15-15 0-64.336.12-321.669.12-386 0-8.284 6.716-15 15-15 24.969 0 46.403 8.791 63.707 26.128 17.304 17.339 26.054 38.55 26.006 63.045 0 0-.107 52.893-.131 69.146l114.939 46.414v.001c20.219 8.165 32.779 26.783 32.779 48.588v35.477c.001 70.139-57.062 127.201-127.201 127.201z" fill="#ffe4c1"/></g><path d="m429.586 300.736-114.939-46.415c.024-16.254.131-69.146.131-69.146.047-24.495-8.702-45.706-26.006-63.045-9.704-9.723-20.709-16.755-32.906-21.059v410.931h79.298c70.139 0 127.202-57.062 127.202-127.201v-35.477c0-21.805-12.56-40.423-32.78-48.588z" fill="#fdd1a3"/></g></svg>