<svg id="Capa_1" enable-background="new 0 0 512 512" height="512" viewBox="0 0 512 512" width="512" xmlns="http://www.w3.org/2000/svg"><g><g><path d="m393.005 78.18c0 43.09-36.62 93.74-137 156.59-100.38-62.85-137.01-113.5-137.01-156.59 0-43.18 35.01-78.18 78.19-78.18 23.46 0 44.49 10.35 58.82 26.71 14.33-16.36 35.36-26.71 58.82-26.71 43.18 0 78.18 35 78.18 78.18z" fill="#ff6398"/><path d="m393.005 78.18c0 43.09-36.62 93.74-137 156.59v-208.06c14.33-16.36 35.36-26.71 58.82-26.71 43.18 0 78.18 35 78.18 78.18z" fill="#ff2d75"/></g><path d="m511.97 118.87s-14.32 0-31.98 0c-17.67 0-31.99 14.32-31.99 31.99v97.41l-3.79 3.79-3.535 17.265-17.675 3.955-.02-.02c-12.49-12.49-32.75-12.49-45.25 0l-46.72 46.73c-41.43 0-75.01 33.59-75.01 75.01 0-41.42-33.58-75.01-75.01-75.01l-46.72-46.73c-12.5-12.49-32.76-12.49-45.25 0l-.02.02-17.675-3.955-3.535-17.265-3.79-3.79v-97.41c0-17.67-14.32-31.99-31.99-31.99-17.66 0-31.98 0-31.98 0l-.03 201.13 128 128v64h128 128v-64l128-128z" fill="#ffe0e0"/><path d="m256 395v117h128v-64l128-128-.03-201.13s-14.32 0-31.98 0c-17.67 0-31.99 14.32-31.99 31.99v97.41l-3.79 3.79-3.535 17.265-17.675 3.955-.02-.02c-12.49-12.49-32.75-12.49-45.25 0l-46.72 46.73c-41.43 0-75.01 33.59-75.01 75.01z" fill="#ffcccb"/><path d="m156.9 386.4-21.29 21.29-.81-.96-110.84-110.84 21.22-21.21 22.61-22.62 21.21 21.22-22.61 22.61z" fill="#ffcccb"/><path d="m355.1 386.4 21.29 21.29.81-.96 110.84-110.84-21.22-21.21-22.61-22.62-21.21 21.22 22.61 22.61z" fill="#ffb3b2"/></g></svg>